{"glyphs":{"0":{"ha":940,"x_min":41,"x_max":886,"o":"m 364 895 l 513 895 q 886 497 886 895 q 463 25 790 25 q 41 497 41 25 q 364 895 159 895 m 165 422 q 463 174 165 224 q 712 646 712 174 q 414 771 712 771 q 165 422 165 721 z "},"1":{"ha":319,"x_min":41,"x_max":264,"o":"m 215 870 q 264 821 264 863 l 264 746 q 215 75 215 142 l 215 -24 q 140 -99 215 -60 l 115 -99 l 41 -50 q 140 870 115 764 l 215 870 z "},"2":{"ha":791,"x_min":41,"x_max":736,"o":"m 364 945 q 662 646 616 945 q 364 149 662 479 l 364 125 q 736 -75 736 125 l 662 -124 q 66 50 283 -68 l 66 174 q 513 671 513 522 q 488 746 488 720 l 339 746 q 115 572 233 676 l 90 572 q 41 622 41 572 l 41 721 q 364 945 208 945 z "},"3":{"ha":766,"x_min":41,"x_max":712,"o":"m 389 994 l 414 994 q 637 846 550 994 l 637 671 l 538 522 q 712 249 680 522 l 712 224 q 314 -124 712 -81 l 190 -124 q 140 -75 140 -124 l 140 25 q 463 100 140 81 q 563 298 563 205 q 239 398 563 366 l 215 522 q 463 696 215 548 l 463 771 q 414 821 463 821 q 140 671 309 821 l 66 671 l 41 795 q 389 994 179 994 z "},"4":{"ha":1040,"x_min":41,"x_max":985,"o":"m 787 870 q 836 721 836 789 q 736 671 776 671 l 762 497 l 762 373 l 911 373 q 985 273 985 373 q 960 199 960 225 l 811 199 l 811 174 q 861 -75 811 110 q 836 -149 836 -123 l 762 -149 q 662 199 694 -149 l 612 199 q 41 323 41 213 l 41 348 q 787 870 41 538 m 314 398 l 488 373 l 637 373 l 637 422 q 587 597 637 597 q 314 398 340 465 z "},"5":{"ha":791,"x_min":41,"x_max":736,"o":"m 115 970 l 414 970 q 736 895 736 970 l 736 771 q 314 795 445 795 l 190 795 q 165 721 190 769 q 190 597 190 680 q 488 671 426 671 q 736 348 706 671 q 463 0 736 84 q 264 -50 372 -50 q 215 0 215 -50 l 215 75 q 563 249 215 115 l 587 298 l 587 348 q 513 497 587 477 l 488 497 q 190 348 376 497 l 140 348 q 41 771 66 348 l 41 895 q 115 970 41 931 z "},"6":{"ha":766,"x_min":41,"x_max":712,"o":"m 513 1119 l 662 1094 l 662 970 q 364 870 662 933 q 215 597 264 739 l 239 597 q 438 622 376 622 q 712 323 712 528 q 414 0 712 94 q 41 323 229 0 q 488 1119 41 975 l 513 1119 m 239 323 q 389 174 239 259 q 563 298 544 224 l 563 398 l 414 448 q 239 323 239 428 z "},"7":{"ha":916,"x_min":41,"x_max":861,"o":"m 90 1094 q 861 945 861 1042 l 861 895 q 662 298 861 832 q 587 75 642 75 l 538 75 q 488 125 488 75 q 687 846 488 386 l 662 846 q 215 895 455 895 l 215 795 l 239 646 q 165 547 202 547 q 41 1069 60 547 l 90 1094 z "},"8":{"ha":916,"x_min":41,"x_max":861,"o":"m 587 1168 q 861 945 861 1118 q 762 746 861 885 q 811 597 811 665 q 762 547 811 547 l 587 572 q 662 373 662 448 q 389 75 594 75 l 339 75 q 41 398 115 75 q 215 646 87 646 q 190 846 190 783 q 587 1168 288 1057 m 364 821 l 364 795 q 414 746 372 746 q 712 945 571 746 l 712 970 l 612 970 q 364 821 481 970 m 190 398 q 414 249 221 249 q 513 373 448 250 l 513 398 q 364 547 513 433 l 339 547 q 190 398 304 547 z "},"9":{"ha":766,"x_min":41,"x_max":712,"o":"m 414 1168 l 438 1168 q 712 746 712 1168 q 290 -24 444 441 l 190 -24 q 165 50 190 2 q 364 522 195 237 l 364 547 l 215 547 q 41 746 41 547 q 414 1168 102 1168 m 190 746 l 190 721 l 264 721 q 538 945 538 721 l 463 994 l 414 994 q 190 746 224 994 z "}," ":{"ha":541,"x_min":0,"x_max":0,"o":""}," ":{"ha":541,"x_min":0,"x_max":0,"o":""},"!":{"ha":443,"x_min":41,"x_max":389,"o":"m 140 920 l 239 920 q 264 846 239 894 q 239 373 239 574 l 239 298 q 190 249 239 249 l 140 249 l 115 373 l 115 671 l 140 920 m 239 50 l 290 50 q 389 -124 389 9 l 389 -149 q 165 -348 389 -301 q 41 -149 41 -301 l 41 -24 q 239 50 56 50 m 165 -124 l 190 -174 q 264 -149 238 -149 l 264 -99 l 239 -99 q 165 -124 191 -124 z "},"\"":{"ha":543,"x_min":41,"x_max":488,"o":"m 90 1218 l 115 1218 q 215 870 190 1218 q 190 795 190 822 l 66 795 q 41 1069 66 899 q 90 1218 90 1171 m 389 1194 l 414 1194 q 463 1143 463 1185 l 463 994 l 488 846 q 414 746 451 746 l 389 746 l 314 795 l 339 970 q 314 1069 339 1025 q 389 1194 346 1194 z "},"#":{"ha":1362,"x_min":41,"x_max":1308,"o":"m 637 1094 q 687 1044 687 1086 l 687 970 l 612 846 q 936 746 843 746 q 1159 1019 936 812 l 1234 1019 l 1234 920 q 1060 696 1129 802 q 1308 448 1308 605 q 1234 422 1260 422 q 936 547 1043 547 l 861 422 q 1010 298 964 389 l 1010 199 q 736 298 985 199 q 463 -75 496 -75 l 438 -75 q 389 -24 389 -75 q 612 373 389 54 q 364 448 467 448 q 215 100 215 174 l 90 100 l 90 149 q 264 522 90 251 q 41 696 94 592 l 41 746 q 90 795 48 795 q 364 671 276 671 l 389 795 q 215 970 215 832 l 264 994 q 513 920 486 920 q 637 1094 578 1094 m 513 696 l 463 597 q 736 497 507 597 q 762 622 762 530 q 513 696 566 696 z "},"$":{"ha":1065,"x_min":41,"x_max":1010,"o":"m 463 1168 l 488 1168 q 587 994 528 1168 q 886 846 692 920 l 886 795 q 811 746 886 746 l 687 771 l 687 622 q 960 497 687 598 l 1010 323 q 687 -149 1010 70 q 612 -248 650 -248 q 488 -124 596 -248 q 414 -248 456 -248 q 314 -75 357 -248 q 115 149 115 4 l 115 174 l 140 174 q 339 125 298 125 l 339 249 l 364 422 l 215 422 q 41 522 81 422 l 41 671 q 414 920 210 920 q 463 1168 414 1168 m 513 771 l 513 597 l 538 597 l 563 771 l 513 771 m 190 622 l 190 597 l 364 597 l 389 721 l 389 746 q 190 622 259 746 m 488 422 l 488 50 l 513 50 q 538 422 538 363 l 488 422 m 662 422 l 662 50 l 687 50 q 861 323 861 184 l 861 348 q 662 422 846 422 z "},"%":{"ha":1114,"x_min":41,"x_max":1060,"o":"m 936 846 l 960 846 q 1010 795 1010 838 q 314 25 1010 654 q 115 -199 176 -199 q 41 -174 67 -174 l 41 -75 q 936 846 153 105 m 290 821 l 339 821 q 463 671 429 774 q 215 448 386 448 l 190 448 q 115 597 115 473 l 115 646 q 290 821 115 821 m 239 646 l 239 622 l 314 622 l 314 646 l 239 646 m 936 199 q 1060 100 1049 151 l 1060 25 q 811 -224 1010 -224 q 687 125 704 -224 q 936 199 865 199 z "},"&":{"ha":1089,"x_min":41,"x_max":1035,"o":"m 488 1044 l 637 1044 q 836 771 836 937 l 836 746 q 513 398 836 684 l 488 398 l 488 373 q 612 273 488 347 q 811 497 659 273 l 836 497 q 911 422 872 497 l 911 373 l 836 273 l 836 249 q 1035 100 880 249 l 1035 50 q 960 0 1035 0 q 662 50 740 50 q 414 -124 552 -124 l 264 -124 q 41 100 41 -92 q 239 422 41 232 q 115 696 115 602 l 115 795 q 488 1044 310 1044 m 239 721 q 389 497 333 504 q 687 795 686 770 q 538 870 662 870 l 513 870 q 239 721 388 870 m 190 75 l 239 50 l 364 50 q 513 125 493 50 q 364 273 364 244 l 339 273 q 190 75 190 193 z "},"'":{"ha":269,"x_min":41,"x_max":215,"o":"m 115 1293 l 140 1293 q 215 1019 196 1293 q 140 870 182 870 q 90 945 90 870 l 41 920 l 41 970 q 115 1293 41 1293 z "},"(":{"ha":741,"x_min":41,"x_max":687,"o":"m 513 846 l 563 771 l 563 696 q 165 323 165 591 q 637 0 165 73 q 687 -50 687 -7 l 687 -149 l 637 -149 q 41 249 41 -97 l 41 323 q 513 846 41 752 z "},")":{"ha":667,"x_min":41,"x_max":612,"o":"m 90 846 q 612 448 509 846 l 612 373 q 215 -124 612 160 l 140 -124 q 90 -75 90 -124 q 389 224 90 50 q 463 398 463 315 l 463 473 q 41 671 330 671 l 41 795 q 90 846 48 846 z "},"*":{"ha":1089,"x_min":41,"x_max":1035,"o":"m 463 795 l 488 795 q 563 671 545 795 l 538 671 q 563 572 563 628 l 787 771 l 861 771 l 886 646 q 811 572 850 646 q 1035 497 1035 542 l 1035 373 l 687 373 q 886 50 886 165 l 836 25 l 787 25 q 563 273 594 273 l 538 273 l 538 50 q 488 0 538 0 l 463 0 q 389 125 420 0 l 339 100 l 264 100 q 215 149 215 100 l 215 174 l 339 323 l 339 348 l 165 348 l 41 373 l 41 497 q 215 547 41 547 l 190 597 l 190 646 q 239 696 197 696 l 364 622 l 414 622 l 414 746 q 463 795 421 795 z "},"+":{"ha":816,"x_min":41,"x_max":762,"o":"m 389 970 l 414 970 q 513 646 456 970 q 762 473 762 646 l 712 448 l 637 448 l 513 473 l 513 249 q 463 199 513 199 l 389 199 l 364 373 l 364 497 q 90 448 124 448 l 41 547 q 364 671 41 671 l 339 795 l 339 920 q 389 970 347 970 z "},",":{"ha":592,"x_min":41,"x_max":538,"o":"m 339 448 l 364 448 q 538 199 538 345 l 538 100 q 264 -224 538 -66 l 165 -224 l 165 -99 q 438 125 438 82 l 438 174 q 165 -24 340 11 q 41 149 41 10 l 41 273 q 339 448 196 448 m 115 199 l 115 149 l 165 149 q 364 273 300 149 l 314 298 q 115 199 128 268 z "},"-":{"ha":816,"x_min":41,"x_max":762,"o":"m 712 497 l 762 422 l 762 373 q 687 298 762 337 l 90 298 q 41 348 41 298 l 41 473 q 712 497 105 473 z "},".":{"ha":468,"x_min":41,"x_max":414,"o":"m 190 199 q 414 75 414 144 l 414 -124 q 190 -248 414 -199 q 41 -149 90 -248 l 41 -50 q 190 199 41 131 m 165 -50 l 165 -75 l 190 -75 q 264 -50 238 -50 l 264 0 l 215 0 q 165 -50 165 -7 z "},"/":{"ha":791,"x_min":41,"x_max":736,"o":"m 662 895 l 712 895 l 736 771 q 165 -174 260 134 l 41 -149 l 41 -75 q 662 895 146 306 z "},":":{"ha":443,"x_min":41,"x_max":389,"o":"m 264 994 q 389 895 378 946 l 389 846 q 215 646 389 646 l 140 646 q 66 821 82 646 q 264 994 66 994 m 140 298 l 239 298 q 389 149 389 298 q 165 -75 311 -75 q 41 100 41 -40 q 140 298 85 298 m 190 149 l 190 75 q 290 149 290 112 l 190 149 z "},";":{"ha":492,"x_min":41,"x_max":438,"o":"m 264 920 q 414 746 414 881 q 290 572 414 627 l 239 572 q 41 696 104 572 l 41 771 q 264 920 41 920 m 165 795 l 165 746 l 290 721 l 290 746 q 239 795 290 795 l 165 795 m 165 448 l 290 448 q 438 174 438 369 q 264 -50 369 3 l 140 -50 l 115 75 l 115 100 q 314 224 286 100 l 190 199 q 90 373 90 239 q 165 448 90 409 z "},"<":{"ha":766,"x_min":41,"x_max":712,"o":"m 538 1044 l 587 1044 l 612 920 l 612 895 q 314 597 314 618 q 712 422 669 473 l 712 348 q 662 298 712 298 l 563 298 q 41 522 41 454 q 463 945 41 667 q 538 1044 475 1044 z "},"=":{"ha":816,"x_min":41,"x_max":762,"o":"m 90 746 l 165 746 q 762 646 762 746 l 762 622 q 712 547 736 547 q 90 572 183 572 l 41 646 l 41 696 q 90 746 48 746 m 488 298 l 587 298 q 662 149 662 273 l 637 100 q 438 125 616 100 q 115 100 423 125 l 90 149 l 90 224 q 488 298 90 298 z "},">":{"ha":766,"x_min":41,"x_max":712,"o":"m 115 945 l 140 945 q 712 696 657 758 q 290 125 712 495 q 165 75 290 75 l 140 125 q 538 597 140 256 l 41 771 l 41 870 q 115 945 41 906 z "},"?":{"ha":741,"x_min":41,"x_max":687,"o":"m 389 1143 q 687 846 687 1114 q 389 448 687 686 l 314 448 l 290 572 q 538 821 322 572 l 538 895 q 438 970 538 957 q 66 846 370 970 l 41 895 q 389 1143 41 1068 m 364 224 l 488 224 q 587 50 587 184 l 587 -24 q 438 -174 587 -60 l 314 -174 q 190 50 190 -111 q 364 224 222 224 m 339 25 l 339 0 l 414 0 q 463 50 463 0 l 414 75 l 389 75 q 339 25 339 67 z "},"@":{"ha":1388,"x_min":41,"x_max":1333,"o":"m 736 994 q 1333 373 1333 794 l 1333 298 q 787 -224 1333 -50 q 339 -124 649 -182 q 41 298 41 62 q 538 994 41 822 l 736 994 m 140 348 q 587 -50 219 -50 l 762 -50 q 1209 298 1148 -50 l 1209 398 q 587 870 1061 870 q 165 448 165 714 q 140 348 140 448 m 662 721 q 1010 249 848 721 q 1060 199 1060 241 q 985 100 1023 100 l 936 100 q 836 323 836 290 l 811 323 q 587 100 811 100 q 314 422 374 100 q 662 721 463 721 m 438 398 q 637 249 490 249 q 736 448 736 264 l 736 547 q 687 597 736 597 q 438 398 438 500 z "},"A":{"ha":1065,"x_min":41,"x_max":1010,"o":"m 587 1168 q 936 522 819 1009 q 1010 -75 1010 62 l 911 -75 q 811 473 836 -75 l 762 497 q 339 473 631 497 q 290 522 339 522 l 264 522 q 140 75 140 121 l 90 75 q 41 149 41 75 q 587 1168 202 852 m 389 671 l 414 671 q 736 696 625 696 q 612 945 612 920 l 587 945 q 389 671 389 783 z "},"B":{"ha":890,"x_min":41,"x_max":836,"o":"m 438 1143 q 712 920 712 1118 l 712 870 q 662 721 712 803 q 836 473 836 633 l 836 448 q 364 75 777 75 l 290 75 q 41 622 59 75 l 41 870 q 115 1119 41 959 q 438 1143 423 1143 m 165 821 l 165 696 q 563 870 563 799 l 563 945 l 339 970 q 165 821 165 970 m 339 547 l 190 547 l 190 298 q 314 249 314 298 q 712 448 712 318 q 488 597 650 597 q 339 547 407 547 z "},"C":{"ha":1089,"x_min":41,"x_max":1035,"o":"m 762 1044 q 960 920 891 1044 l 960 870 q 886 821 960 821 q 736 870 804 870 l 712 870 q 190 572 338 870 l 190 448 q 612 298 190 339 q 1010 348 656 298 l 1035 224 q 637 125 1035 141 q 41 497 41 125 q 563 1019 182 1019 q 762 1044 659 1044 z "},"D":{"ha":916,"x_min":41,"x_max":861,"o":"m 115 1143 q 190 1019 172 1143 l 339 1019 q 861 572 861 903 l 861 522 q 115 -99 861 155 q 90 -75 115 -75 l 115 224 l 115 422 q 41 1094 115 775 l 115 1143 m 239 846 q 215 821 239 821 l 239 771 l 239 522 q 264 149 239 397 q 736 547 736 345 q 239 846 639 846 z "},"E":{"ha":1089,"x_min":41,"x_max":1035,"o":"m 563 1069 l 637 1069 q 960 970 960 1069 l 960 945 q 936 870 936 897 l 637 895 l 463 895 q 190 821 190 895 l 190 547 l 239 547 q 811 671 370 671 l 886 671 q 1035 597 1035 656 l 1035 522 q 985 473 1035 473 l 712 473 q 314 422 597 473 q 215 448 271 448 q 290 174 251 174 q 463 199 365 174 q 787 174 627 174 l 811 174 l 936 199 l 960 149 q 886 0 960 20 l 463 0 l 165 -24 q 41 746 115 78 q 264 1044 41 1044 q 563 1069 341 1069 z "},"F":{"ha":816,"x_min":41,"x_max":762,"o":"m 190 945 l 414 945 q 736 746 720 945 l 662 696 q 438 771 567 771 l 239 771 l 215 473 l 239 473 q 762 298 762 412 l 762 224 q 687 174 762 174 q 215 298 496 264 l 190 249 q 215 -174 190 118 l 165 -199 l 140 -199 q 41 100 77 -199 q 190 945 66 945 z "},"G":{"ha":1263,"x_min":41,"x_max":1209,"o":"m 587 994 q 861 795 728 994 q 836 721 836 747 l 787 721 l 612 821 q 190 398 429 821 q 165 323 190 323 q 339 149 184 149 l 414 149 q 736 199 513 149 l 736 273 q 538 373 736 298 l 538 497 q 563 522 563 497 l 811 497 l 1135 497 q 1209 348 1209 473 q 886 273 1173 305 l 861 -24 l 861 -273 q 811 -323 861 -323 q 687 0 726 -323 q 364 -50 575 -50 l 339 -50 q 41 298 75 -50 l 41 373 q 513 994 41 685 l 587 994 z "},"H":{"ha":965,"x_min":41,"x_max":911,"o":"m 90 920 l 115 920 q 215 597 183 920 l 264 597 q 762 622 393 597 l 762 821 q 811 870 769 870 l 836 870 q 911 795 872 870 l 886 622 l 911 473 q 861 323 861 391 l 861 75 q 787 0 861 39 q 687 149 720 0 l 712 298 l 712 422 l 339 422 l 215 398 l 239 224 l 239 100 q 190 50 239 50 l 165 50 q 41 895 41 109 l 90 920 z "},"I":{"ha":865,"x_min":41,"x_max":811,"o":"m 66 1143 q 563 1069 408 1069 l 736 1069 l 762 945 q 513 870 762 895 l 513 100 q 811 50 614 100 l 811 -50 q 762 -99 811 -99 l 662 -99 l 414 -124 q 364 -75 414 -75 l 339 -75 l 90 -99 l 41 -24 l 41 75 q 364 125 302 125 l 364 895 q 41 1019 41 952 l 41 1094 l 66 1143 z "},"J":{"ha":1065,"x_min":41,"x_max":1010,"o":"m 239 1094 q 463 1044 277 1094 q 985 1094 774 1094 l 1010 970 l 1010 945 q 637 870 714 895 q 762 100 712 743 q 538 -174 745 -174 l 364 -174 q 41 50 41 -174 l 115 100 l 140 100 q 290 0 140 0 l 563 0 q 612 75 612 0 q 414 870 612 870 q 239 1044 239 903 l 239 1094 z "},"K":{"ha":965,"x_min":41,"x_max":911,"o":"m 90 1119 l 140 1119 q 239 597 239 627 q 736 870 519 703 q 787 821 787 863 l 787 721 q 364 473 774 663 l 364 448 q 911 174 911 368 l 911 149 q 836 125 863 125 q 264 298 412 298 l 290 249 l 290 0 q 239 -50 290 -50 l 215 -50 q 140 25 179 -50 l 140 298 q 90 497 140 320 q 115 522 90 522 q 41 1094 41 962 l 90 1119 z "},"L":{"ha":965,"x_min":41,"x_max":911,"o":"m 90 1094 l 115 1094 q 314 224 181 1094 l 513 224 q 836 273 724 224 q 911 249 884 249 l 911 100 q 290 25 564 25 q 140 547 140 53 q 41 1069 41 895 l 90 1094 z "},"M":{"ha":1413,"x_min":41,"x_max":1358,"o":"m 1109 1168 q 1333 224 1240 1168 q 1358 125 1358 224 l 1358 75 l 1234 75 q 1084 970 1184 191 l 1060 970 q 762 422 956 970 l 687 422 q 414 846 618 456 l 389 846 q 115 224 200 224 q 41 323 78 224 q 364 1119 250 1029 l 389 1119 l 687 696 l 712 696 q 1109 1168 865 1168 z "},"N":{"ha":1164,"x_min":41,"x_max":1109,"o":"m 264 1119 l 290 1119 q 836 323 520 893 l 911 273 q 985 497 985 470 q 960 970 960 769 l 1035 1019 l 1084 1019 q 1109 945 1084 993 q 1084 870 1109 918 q 1109 597 1109 700 l 1109 448 q 861 75 1055 75 q 339 870 699 195 l 290 870 l 290 846 q 165 224 290 612 l 90 224 q 41 273 41 224 q 215 1094 115 553 l 264 1119 z "},"O":{"ha":990,"x_min":41,"x_max":936,"o":"m 538 945 q 836 721 538 887 q 936 422 936 531 q 538 -75 936 74 l 414 -75 q 41 373 41 60 q 463 945 41 689 l 538 945 m 190 348 l 190 273 q 488 100 291 100 q 811 422 811 199 l 811 448 q 463 721 811 662 q 190 348 190 619 z "},"P":{"ha":965,"x_min":41,"x_max":911,"o":"m 66 1119 q 911 771 911 1097 l 911 597 q 364 323 911 448 l 190 348 q 165 323 190 323 q 215 -149 215 50 l 115 -149 q 41 746 41 78 l 41 1069 l 66 1119 m 165 920 l 165 473 q 787 696 787 592 l 787 746 q 463 920 787 837 l 165 920 z "},"Q":{"ha":1388,"x_min":41,"x_max":1333,"o":"m 438 1044 q 960 746 960 988 q 1035 522 1005 746 q 1010 323 1010 385 q 1333 50 1333 145 q 1308 -24 1308 2 l 1259 -24 q 960 174 1118 92 l 911 174 q 463 50 734 84 q 41 497 109 50 l 41 597 q 438 1044 41 911 m 140 572 l 140 522 q 513 199 140 199 q 762 249 577 199 l 762 298 q 538 497 598 352 q 563 572 563 545 q 960 398 618 572 l 960 671 q 736 895 881 823 l 438 895 q 140 572 225 895 z "},"R":{"ha":1015,"x_min":41,"x_max":960,"o":"m 66 1168 l 115 1168 q 190 1094 151 1168 q 389 1143 281 1143 l 488 1143 q 836 870 836 1104 l 836 771 q 513 373 836 459 l 513 348 q 960 -75 960 -31 q 886 -174 923 -174 l 861 -174 q 239 323 610 68 l 239 -224 q 140 -248 153 -248 l 90 -174 l 90 696 q 41 846 90 764 q 66 1168 66 1057 m 239 945 l 239 497 q 712 821 712 522 q 513 970 661 970 l 414 970 l 239 945 z "},"S":{"ha":940,"x_min":41,"x_max":886,"o":"m 538 1143 q 886 671 886 978 l 886 622 l 787 622 q 538 970 787 830 q 264 671 333 970 l 264 622 q 836 100 836 622 q 488 -298 791 -298 q 41 -99 41 -179 l 41 -24 q 115 25 41 25 q 463 -99 315 -99 l 587 -99 q 712 149 712 -43 q 239 448 712 448 l 140 547 l 140 721 q 538 1143 246 1143 z "},"T":{"ha":1313,"x_min":41,"x_max":1259,"o":"m 90 1143 l 985 1143 q 1259 1019 1259 1105 l 1259 970 q 1184 920 1259 920 q 960 970 1023 970 l 662 970 l 687 846 q 736 100 693 312 q 712 75 736 75 l 736 -99 l 736 -397 q 687 -448 736 -448 l 662 -448 q 587 -298 587 -422 q 563 970 587 -54 l 66 970 q 41 1119 66 988 l 90 1143 z "},"U":{"ha":1089,"x_min":41,"x_max":1035,"o":"m 985 1069 q 1035 1019 1035 1061 l 1035 522 q 836 25 1035 115 q 662 -50 745 -50 l 612 -50 q 41 795 144 -50 l 41 821 q 115 970 56 970 l 165 945 l 140 771 l 140 721 q 637 100 264 100 l 662 100 q 960 448 916 100 q 936 895 936 682 l 936 1019 q 985 1069 943 1069 z "},"V":{"ha":1065,"x_min":41,"x_max":1010,"o":"m 41 994 l 90 994 q 314 348 158 994 q 438 125 406 125 l 488 125 q 886 970 662 398 l 936 994 q 1010 920 971 994 l 1010 846 q 662 100 928 747 l 463 -99 l 414 -99 q 41 821 284 -99 l 41 994 z "},"W":{"ha":1487,"x_min":41,"x_max":1433,"o":"m 1358 1044 q 1433 945 1433 1044 q 1010 -50 1433 444 l 936 -50 q 762 622 762 77 l 736 622 q 364 -75 521 -75 l 314 -75 q 41 846 169 -75 l 41 920 l 90 920 q 314 174 174 920 l 364 149 q 712 970 491 283 l 736 970 q 960 174 861 970 q 1259 795 1259 460 q 1358 1044 1301 1044 z "},"X":{"ha":1139,"x_min":41,"x_max":1084,"o":"m 90 1094 l 140 1094 q 637 795 358 1013 l 662 795 l 1010 1069 l 1035 1069 q 1084 1019 1084 1061 q 762 646 1084 906 q 1035 0 918 406 l 1035 -75 l 936 -75 q 712 448 898 -43 l 637 522 q 140 75 593 520 l 90 75 q 41 125 41 75 l 41 199 q 513 671 83 199 q 66 945 305 859 l 41 1069 l 90 1094 z "},"Y":{"ha":1313,"x_min":41,"x_max":1259,"o":"m 1184 1417 l 1209 1417 q 1259 1367 1259 1409 l 1259 1243 q 787 721 1223 1243 q 637 597 728 721 q 612 0 612 247 q 637 -248 637 -217 l 563 -298 q 488 -224 527 -298 l 488 448 l 513 572 q 41 1143 41 946 l 41 1194 l 115 1194 q 513 771 475 771 l 563 771 q 1184 1417 654 771 z "},"Z":{"ha":1238,"x_min":41,"x_max":1184,"o":"m 1109 1268 q 1159 1119 1159 1166 q 936 622 1159 1010 q 1184 473 1184 496 l 1184 373 q 1109 323 1184 323 q 787 473 905 473 l 787 448 q 463 125 787 401 l 463 100 q 1060 -99 1004 -62 l 1084 -199 l 985 -248 q 215 50 310 -82 l 215 75 q 488 348 215 208 l 662 547 q 414 671 414 628 l 414 795 l 438 795 q 787 696 517 795 q 985 1094 985 985 l 140 970 l 90 970 q 41 1019 41 970 l 41 1094 q 1010 1268 41 1168 l 1109 1268 z "},"[":{"ha":617,"x_min":41,"x_max":563,"o":"m 389 994 l 463 994 q 513 945 513 987 l 513 870 q 463 821 513 821 l 215 821 l 215 572 l 239 422 q 215 298 215 382 q 538 125 215 125 l 563 75 l 563 0 q 513 -50 563 -50 q 66 149 66 -50 q 90 348 66 252 q 66 671 66 512 l 66 771 q 41 870 66 827 q 389 994 41 994 z "},"]":{"ha":841,"x_min":41,"x_max":787,"o":"m 115 1019 q 687 870 687 1019 q 787 0 736 670 l 389 -199 l 364 -199 q 290 -124 328 -199 l 290 -75 q 637 125 290 -26 q 513 795 568 781 q 66 846 66 795 q 41 945 41 889 l 41 994 q 115 1019 67 994 z "},"^":{"ha":766,"x_min":41,"x_max":712,"o":"m 389 1367 l 414 1367 q 712 1044 442 1367 l 712 945 l 637 945 q 364 1194 413 1194 q 115 920 138 920 l 66 920 l 41 1019 l 389 1367 z "},"_":{"ha":940,"x_min":41,"x_max":886,"o":"m 736 224 l 811 224 q 886 149 847 224 l 886 50 l 787 25 l 563 50 q 90 0 238 0 l 41 75 l 41 149 q 90 199 48 199 q 736 224 507 224 z "},"`":{"ha":1636,"x_min":41,"x_max":1582,"o":"m 488 1119 q 762 771 717 1119 l 762 646 l 736 473 l 662 473 q 612 547 612 473 q 637 821 612 600 q 513 970 587 954 q 215 795 389 970 l 215 721 l 239 597 l 190 572 q 41 721 80 572 q 488 1119 231 1119 m 1060 1119 l 1109 1119 q 1457 821 1457 1034 l 1457 671 q 1408 448 1457 609 l 1358 448 q 1284 522 1322 448 l 1284 547 q 1333 746 1284 570 l 1333 771 q 1109 970 1308 970 l 1060 970 q 936 771 936 906 l 936 746 l 985 671 l 985 547 q 811 696 811 547 q 1060 1119 811 1119 m 190 448 q 1508 422 1111 422 q 1582 398 1556 398 l 1582 323 q 886 -373 1333 -373 l 736 -373 q 140 249 352 -373 l 140 398 q 190 448 148 448 m 290 199 q 488 -75 412 -54 l 513 -75 l 513 -50 q 488 -24 513 -24 l 538 249 l 339 249 q 290 199 290 241 m 687 224 q 637 -174 669 192 l 687 -199 l 836 -199 l 811 -75 q 836 224 811 -34 l 687 224 m 1184 100 l 1209 -24 l 1234 -24 q 1383 224 1234 22 l 1333 249 l 1259 249 q 1184 100 1184 224 m 960 -149 l 1010 -149 q 1060 -99 1060 -149 l 1060 -24 q 1035 75 1060 31 q 1060 174 1060 118 l 1060 224 l 1035 224 q 960 -149 978 224 z "},"a":{"ha":1040,"x_min":41,"x_max":985,"o":"m 463 994 l 563 994 q 886 547 724 957 q 985 422 985 437 l 985 323 q 936 273 985 273 l 886 273 q 762 497 830 273 l 736 497 q 414 273 689 273 l 314 273 q 41 597 71 273 q 463 994 41 935 m 190 572 l 190 497 q 290 448 229 497 l 438 448 q 662 597 575 448 q 488 821 662 821 q 190 572 190 764 z "},"b":{"ha":816,"x_min":41,"x_max":762,"o":"m 190 1194 l 215 1194 q 264 1119 264 1194 q 239 795 239 811 l 488 795 q 762 398 762 663 l 762 348 q 290 149 762 199 q 41 572 41 149 l 41 597 q 190 1194 127 1194 m 190 547 l 190 497 l 215 323 l 339 323 q 637 398 414 323 l 637 422 q 488 622 637 559 l 389 622 q 190 547 205 622 z "},"c":{"ha":791,"x_min":41,"x_max":736,"o":"m 463 920 q 736 721 720 920 l 736 671 q 463 721 708 671 l 389 721 q 215 572 215 617 l 215 422 q 513 373 387 373 l 712 373 q 736 298 712 347 q 587 174 696 174 q 41 522 41 174 q 463 920 178 920 z "},"d":{"ha":791,"x_min":41,"x_max":736,"o":"m 587 1168 l 662 1168 l 736 348 q 239 199 687 298 q 41 323 115 199 l 41 448 q 314 696 41 646 l 389 696 l 563 671 l 563 771 q 538 1143 563 895 l 587 1168 m 190 448 l 190 398 q 538 448 351 398 l 538 497 l 414 522 l 389 522 q 190 448 205 522 z "},"e":{"ha":965,"x_min":41,"x_max":911,"o":"m 587 920 l 637 920 q 911 671 911 870 l 911 572 q 637 398 789 398 l 488 398 q 239 522 239 398 q 190 473 190 515 l 190 348 q 339 273 215 273 l 513 273 l 811 298 l 811 149 q 339 75 583 75 q 41 273 197 75 l 41 422 q 587 920 41 829 m 314 646 l 314 622 q 662 572 501 572 q 787 622 743 622 l 787 671 q 587 746 771 746 l 563 746 q 314 646 494 746 z "},"f":{"ha":965,"x_min":41,"x_max":911,"o":"m 687 1243 q 911 994 869 1243 q 787 771 911 813 q 712 1044 787 1044 l 662 1044 q 414 746 461 1044 q 861 622 861 671 l 861 547 q 811 497 861 497 q 438 547 676 497 l 438 473 l 513 373 l 513 224 q 488 199 513 199 q 513 174 488 174 q 438 0 488 0 l 414 0 q 314 100 375 0 l 314 174 q 339 199 314 199 q 290 547 314 231 l 239 547 l 66 522 l 41 572 l 41 671 q 90 721 48 721 l 290 721 l 290 771 q 687 1243 368 1243 z "},"g":{"ha":815,"x_min":41,"x_max":761,"o":"m 289 969 q 612 547 612 880 l 612 199 q 761 75 690 199 l 761 0 q 711 -50 761 -50 l 587 25 l 562 25 q 413 -223 562 -99 l 339 -223 q 41 100 110 -223 l 41 174 q 289 273 41 243 l 488 273 l 488 472 q 314 422 389 422 q 66 696 66 488 q 289 969 66 936 m 264 820 q 190 671 190 724 l 289 596 q 438 745 438 596 l 264 820 m 165 50 q 339 -50 252 -50 l 389 -50 l 438 100 l 214 100 q 165 50 165 92 z "},"h":{"ha":815,"x_min":41,"x_max":761,"o":"m 140 920 q 214 820 177 920 q 190 547 190 650 l 190 422 q 463 596 420 596 q 761 50 655 596 q 736 -24 736 2 l 662 -24 q 513 397 621 -24 l 463 422 q 165 0 165 199 l 90 0 l 41 25 q 66 522 66 360 l 66 845 q 140 920 66 880 z "},"i":{"ha":393,"x_min":41,"x_max":339,"o":"m 140 1118 l 289 1118 q 339 1068 339 1110 l 339 944 q 115 795 233 795 l 41 895 l 41 944 q 140 1118 41 1078 m 140 671 l 214 671 l 239 547 l 239 298 l 264 149 q 239 50 239 106 l 165 50 q 115 100 115 50 l 115 273 q 90 646 115 398 l 140 671 z "},"j":{"ha":666,"x_min":41,"x_max":612,"o":"m 314 1019 l 363 1019 q 538 920 538 950 l 538 845 q 438 745 538 806 l 363 745 q 289 820 328 745 l 289 895 l 314 1019 m 339 472 q 612 -24 568 472 q 513 -248 562 -248 l 363 -248 q 41 0 41 -180 l 90 25 l 140 25 q 438 -75 260 -75 q 463 25 463 -31 l 463 50 q 339 422 463 133 l 339 472 z "},"k":{"ha":915,"x_min":41,"x_max":861,"o":"m 41 969 l 115 969 q 214 547 182 969 l 662 770 q 686 671 662 714 q 389 448 686 614 l 389 422 q 861 224 861 296 l 836 100 l 761 100 q 239 348 401 249 l 214 348 l 214 0 l 90 0 q 66 124 90 124 l 90 249 l 90 298 q 41 969 90 492 z "},"l":{"ha":269,"x_min":41,"x_max":214,"o":"m 90 1044 l 165 1044 q 190 969 165 1017 q 165 572 165 715 q 214 149 214 238 l 214 -24 q 165 -75 214 -75 l 140 -75 q 66 0 104 -75 q 41 770 41 604 q 90 1044 41 831 z "},"m":{"ha":1188,"x_min":41,"x_max":1134,"o":"m 339 795 q 637 596 463 770 q 885 745 665 689 q 1134 149 1134 692 l 1109 149 q 1009 124 1065 124 q 836 572 970 572 q 662 199 686 572 q 637 149 637 199 l 538 149 q 513 298 538 168 l 538 422 q 339 596 475 596 q 165 348 165 508 l 190 298 q 115 199 153 199 l 66 199 q 41 249 66 249 q 339 795 41 623 z "},"n":{"ha":865,"x_min":41,"x_max":810,"o":"m 488 920 q 786 621 786 854 q 810 397 810 529 l 810 199 q 761 149 810 149 q 662 224 662 186 l 662 472 q 438 745 662 745 l 413 745 q 140 572 168 745 q 165 348 165 437 l 165 323 q 90 249 165 288 q 41 298 41 249 l 41 646 q 488 920 41 920 z "},"o":{"ha":840,"x_min":41,"x_max":786,"o":"m 339 795 l 389 795 q 438 745 438 787 l 488 770 l 538 770 q 786 572 786 770 l 786 472 q 463 124 736 124 l 363 124 q 41 448 41 124 q 339 795 155 795 m 165 422 q 389 273 227 273 l 438 273 q 662 448 662 273 l 662 522 q 389 621 662 596 l 389 720 q 165 422 165 555 z "},"p":{"ha":642,"x_min":41,"x_max":587,"o":"m 314 745 q 587 472 506 745 q 214 149 413 149 q 264 -99 214 45 q 239 -174 239 -147 l 165 -174 q 41 696 41 -174 q 314 745 138 745 m 165 572 l 165 472 l 190 348 q 438 497 300 348 q 289 596 413 596 l 165 572 z "},"q":{"ha":716,"x_min":41,"x_max":662,"o":"m 612 646 q 662 497 662 564 q 637 422 662 471 l 662 373 l 637 323 q 662 249 637 297 q 637 -24 637 79 l 637 -273 l 587 -273 q 513 -124 513 -248 l 513 124 q 41 348 41 180 l 41 472 q 612 646 65 621 m 165 397 l 165 373 q 513 298 297 298 q 538 397 513 397 q 513 472 513 446 l 488 472 q 165 397 165 472 z "},"r":{"ha":791,"x_min":41,"x_max":736,"o":"m 66 869 l 165 869 l 239 547 q 538 621 314 596 q 736 522 736 591 l 736 422 l 463 422 q 239 224 239 422 q 264 0 264 90 l 264 -99 q 214 -149 264 -149 l 190 -149 q 115 0 115 -124 l 115 50 q 41 795 115 498 q 66 869 66 843 z "},"s":{"ha":741,"x_min":41,"x_max":686,"o":"m 363 820 l 438 820 q 562 596 562 757 l 488 547 q 413 646 488 646 l 339 646 q 289 596 289 638 l 289 572 q 686 149 686 429 l 686 50 q 413 -75 686 -36 l 66 -75 l 41 50 q 90 100 48 100 l 389 100 l 562 124 q 165 472 562 286 l 140 596 l 140 621 q 363 820 140 820 z "},"t":{"ha":989,"x_min":41,"x_max":935,"o":"m 488 994 l 513 994 q 587 920 549 994 l 587 795 q 935 720 935 777 l 935 671 q 861 596 935 635 l 587 596 l 587 75 q 538 25 587 25 l 513 25 q 463 75 463 25 l 463 596 q 90 572 338 596 q 41 720 41 653 q 90 770 48 770 l 214 770 l 463 795 l 463 869 l 488 994 z "},"u":{"ha":741,"x_min":41,"x_max":686,"o":"m 140 845 q 190 795 190 837 q 165 472 165 488 q 264 298 199 298 q 513 621 513 345 q 612 845 559 845 q 686 720 669 845 q 662 422 662 463 q 686 224 686 286 l 637 199 l 587 199 l 513 249 q 239 124 513 163 q 41 522 41 174 q 140 845 58 845 z "},"v":{"ha":915,"x_min":41,"x_max":861,"o":"m 786 895 q 861 795 861 895 q 513 199 629 300 l 488 199 q 41 770 41 646 l 115 820 q 488 422 171 814 l 513 422 q 786 895 711 895 z "},"w":{"ha":1138,"x_min":41,"x_max":1084,"o":"m 1009 720 l 1084 720 l 1084 621 q 836 50 1084 333 l 761 0 l 736 0 q 612 298 612 111 l 562 298 q 363 25 562 172 l 339 25 q 41 596 239 25 l 41 621 q 90 671 48 671 l 115 671 q 339 224 165 671 l 363 224 q 562 646 483 368 l 637 646 q 761 199 702 646 q 960 696 863 199 l 1009 720 z "},"x":{"ha":815,"x_min":41,"x_max":761,"o":"m 140 770 l 214 770 q 389 621 339 621 q 587 770 416 621 l 662 770 l 662 646 q 513 497 662 631 l 513 472 q 761 249 595 472 q 686 149 724 149 l 389 373 l 363 373 l 140 174 q 41 249 41 212 l 41 323 q 239 497 115 323 q 115 696 129 623 q 140 770 140 744 z "},"y":{"ha":791,"x_min":41,"x_max":736,"o":"m 140 869 q 463 497 140 798 q 637 820 538 497 l 711 820 l 736 696 q 264 -149 736 590 l 190 -149 q 140 -99 140 -149 l 140 -50 q 363 373 363 272 q 41 820 41 652 l 41 845 q 140 869 96 845 z "},"z":{"ha":766,"x_min":41,"x_max":711,"o":"m 363 621 q 637 572 623 572 l 637 448 q 339 100 603 374 q 711 -50 711 34 l 711 -124 q 637 -149 685 -124 q 66 -50 495 -80 q 41 25 66 -23 q 463 448 41 59 l 115 448 q 66 497 66 448 l 66 547 q 363 621 66 609 z "},"{":{"ha":642,"x_min":41,"x_max":587,"o":"m 389 1243 q 463 1168 425 1243 l 463 1094 q 215 895 218 945 l 215 795 q 364 547 364 645 q 290 497 290 522 q 339 373 339 416 q 290 224 290 292 l 290 125 q 587 -50 309 48 l 587 -149 q 538 -199 587 -199 l 513 -199 q 140 174 140 -161 l 140 348 l 41 373 l 41 522 l 115 622 q 66 821 115 645 l 66 870 q 389 1243 66 1106 z "},"|":{"ha":269,"x_min":41,"x_max":215,"o":"m 115 1044 q 215 50 190 1044 l 165 25 l 115 25 q 41 149 79 25 q 66 199 41 199 q 41 622 41 491 l 41 970 q 115 1044 41 1005 z "},"}":{"ha":766,"x_min":41,"x_max":712,"o":"m 290 1094 q 687 721 587 1094 l 662 547 q 712 398 712 465 l 712 273 q 612 174 712 235 l 637 50 l 637 25 q 463 -397 637 -301 l 389 -397 q 339 -348 339 -397 q 463 -99 339 -304 q 488 25 488 -58 q 438 249 438 186 l 563 373 l 563 398 l 438 422 l 438 473 q 538 721 438 547 q 290 895 463 895 q 90 870 112 870 l 41 945 l 41 1019 q 290 1094 41 1069 z "},"~":{"ha":940,"x_min":41,"x_max":886,"o":"m 264 746 l 314 746 q 637 373 583 746 l 712 323 l 736 323 q 762 473 736 342 l 687 721 l 736 746 l 811 746 q 886 448 886 522 l 886 348 q 762 149 886 213 l 736 149 q 463 522 531 149 q 339 572 463 566 l 314 572 q 115 323 271 572 l 66 323 q 41 398 66 350 q 264 746 41 578 z "},"¨":{"ha":489,"x_min":41,"x_max":435,"o":"m 50 874 l 98 923 q 115 931 107 931 q 134 922 123 931 l 180 872 q 187 855 187 863 q 179 837 187 846 l 132 786 q 115 774 121 774 q 98 783 106 774 l 47 841 q 41 857 41 849 q 50 874 41 865 m 298 874 l 346 923 q 363 931 355 931 q 381 922 370 931 l 428 872 q 435 855 435 863 q 427 838 435 846 l 380 786 q 363 774 368 774 q 346 783 353 774 l 294 842 q 288 857 288 849 q 298 874 288 865 z "},"©":{"ha":1189,"x_min":41,"x_max":1135,"o":"m 513 970 l 538 970 q 1135 373 1135 817 q 836 -174 1135 91 q 165 149 165 -58 q 41 473 113 149 q 513 970 125 970 m 190 572 l 190 473 q 637 50 190 96 l 811 50 q 985 398 985 174 q 762 696 985 531 q 488 572 762 622 q 389 398 389 504 l 389 373 q 836 249 836 280 l 836 149 l 811 100 q 239 373 239 154 l 239 398 q 488 771 239 642 l 513 771 l 513 795 l 488 795 q 190 572 332 795 z "},"®":{"ha":1487,"x_min":41,"x_max":1433,"o":"m 587 1044 q 1383 597 1194 1044 q 1433 398 1383 551 q 886 -248 1433 -7 l 787 -248 q 762 -224 762 -248 q 612 -273 660 -273 q 90 249 90 -74 q 41 348 41 249 q 239 920 140 889 q 339 895 283 895 q 389 945 347 945 l 488 895 q 587 1044 505 1044 m 463 846 q 488 771 488 797 q 712 821 675 821 q 985 572 985 821 q 712 298 985 396 l 712 273 q 936 149 936 205 l 936 25 l 861 25 q 513 273 513 193 l 488 273 l 488 125 q 513 25 488 68 q 488 -75 488 -18 l 488 -99 q 662 -149 646 -149 q 1284 422 1284 4 q 712 920 1194 920 q 463 846 463 895 m 165 448 q 314 25 178 230 l 364 25 l 364 298 q 389 696 364 442 q 339 771 364 771 q 165 448 239 771 m 488 422 l 563 422 q 836 547 836 461 l 836 622 q 787 671 836 671 l 662 671 q 488 422 488 671 z "},"´":{"ha":408,"x_min":41,"x_max":353,"o":"m 238 932 q 276 964 262 956 q 303 972 290 972 q 339 959 326 972 q 353 924 353 945 q 343 896 353 909 q 311 869 332 882 l 87 731 l 41 731 l 238 932 z "},"¸":{"ha":372,"x_min":41,"x_max":317,"o":"m 41 -197 q 144 -232 98 -232 q 208 -217 189 -232 q 227 -172 227 -203 q 194 -129 227 -142 q 125 -118 167 -118 q 102 -119 114 -118 l 134 0 l 177 0 l 152 -71 q 194 -67 174 -68 q 285 -95 252 -67 q 317 -172 317 -122 q 278 -253 317 -223 q 169 -283 238 -283 q 41 -262 95 -283 l 41 -197 z "},"ˆ":{"ha":490,"x_min":41,"x_max":435,"o":"m 41 732 l 198 972 l 278 972 l 435 732 l 396 732 l 238 878 l 80 732 l 41 732 z "},"ˇ":{"ha":490,"x_min":41,"x_max":435,"o":"m 41 972 l 80 972 l 238 827 l 396 972 l 435 972 l 278 731 l 198 731 l 41 972 z "},"˘":{"ha":491,"x_min":41,"x_max":437,"o":"m 41 915 l 75 915 q 126 842 87 865 q 239 819 165 819 q 352 842 313 819 q 402 915 391 865 l 437 915 q 373 778 423 825 q 239 732 323 732 q 106 779 157 732 q 41 915 55 825 z "},"˙":{"ha":241,"x_min":41,"x_max":186,"o":"m 50 874 l 97 923 q 106 929 101 927 q 115 931 111 931 q 124 929 119 931 q 132 923 128 927 l 180 871 q 185 865 184 869 q 186 855 186 861 q 184 845 186 849 q 179 837 183 841 l 131 785 q 120 776 123 778 q 115 774 117 774 q 104 776 109 774 q 97 782 100 778 l 46 841 q 42 847 43 844 q 41 857 41 851 q 43 865 41 861 q 50 874 45 869 z "},"˚":{"ha":336,"x_min":41,"x_max":281,"o":"m 92 852 q 112 804 92 824 q 160 785 132 785 q 208 804 189 785 q 228 852 228 824 q 208 900 228 880 q 160 920 188 920 q 112 900 132 920 q 92 852 92 880 m 41 852 q 75 938 41 903 q 160 972 110 972 q 247 938 212 972 q 281 852 281 903 q 247 767 281 802 q 160 732 212 732 q 75 767 110 732 q 41 852 41 802 z "},"˛":{"ha":345,"x_min":41,"x_max":290,"o":"m 224 0 q 150 -81 176 -42 q 123 -157 123 -120 q 141 -208 123 -189 q 191 -227 159 -227 q 238 -217 218 -227 q 271 -184 258 -206 l 290 -195 q 229 -260 266 -237 q 148 -283 192 -283 q 71 -259 100 -283 q 41 -198 41 -235 q 82 -92 41 -146 q 191 0 123 -37 l 224 0 z "},"˜":{"ha":484,"x_min":41,"x_max":430,"o":"m 430 937 q 384 833 416 867 q 298 798 351 798 l 295 798 q 218 814 261 798 q 141 830 174 830 q 100 816 115 830 q 77 768 85 802 l 41 768 q 87 875 54 840 q 174 911 120 911 q 251 895 205 910 q 327 879 294 879 l 330 879 q 369 892 354 879 q 393 937 384 906 l 430 937 z "},"˝":{"ha":494,"x_min":41,"x_max":440,"o":"m 41 732 l 138 917 q 169 960 155 947 q 201 972 184 972 q 233 959 220 972 q 247 927 247 945 q 240 903 247 916 q 219 876 233 890 l 80 732 l 41 732 m 234 732 l 332 917 q 362 960 348 947 q 394 972 377 972 q 427 959 413 972 q 440 927 440 945 q 433 903 440 916 q 412 876 426 890 l 273 732 l 234 732 z "},"‘":{"ha":592,"x_min":41,"x_max":538,"o":"m 239 382 l 215 382 q 41 631 41 485 l 41 730 q 314 1054 41 896 l 414 1054 l 414 929 q 140 705 140 748 l 140 656 q 414 854 238 819 q 538 681 538 820 l 538 557 q 239 382 382 382 m 463 631 l 463 681 l 414 681 q 215 557 279 681 l 264 532 q 463 631 450 562 z "},"’":{"ha":592,"x_min":41,"x_max":538,"o":"m 339 1054 l 363 1054 q 538 805 538 951 l 538 706 q 264 382 538 541 l 165 382 l 165 507 q 438 731 438 688 l 438 781 q 165 582 340 617 q 41 755 41 616 l 41 880 q 339 1054 196 1054 m 115 805 l 115 755 l 165 755 q 363 880 300 755 l 314 905 q 115 805 128 874 z "},"“":{"ha":1288,"x_min":41,"x_max":1234,"o":"m 239 382 l 215 382 q 41 631 41 485 l 41 730 q 314 1054 41 896 l 414 1054 l 414 929 q 140 705 140 748 l 140 656 q 414 854 238 819 q 538 681 538 820 l 538 557 q 239 382 382 382 m 463 631 l 463 681 l 414 681 q 215 557 279 681 l 264 532 q 463 631 450 562 m 935 382 l 911 382 q 736 631 736 485 l 736 730 q 1010 1054 736 896 l 1109 1054 l 1109 929 q 836 705 836 748 l 836 656 q 1109 854 934 819 q 1234 681 1234 820 l 1234 557 q 935 382 1078 382 m 1159 631 l 1159 681 l 1109 681 q 911 557 975 681 l 960 532 q 1159 631 1146 562 z "},"”":{"ha":1288,"x_min":41,"x_max":1234,"o":"m 339 1054 l 363 1054 q 538 805 538 951 l 538 706 q 264 382 538 541 l 165 382 l 165 507 q 438 731 438 688 l 438 781 q 165 582 340 617 q 41 755 41 616 l 41 880 q 339 1054 196 1054 m 115 805 l 115 755 l 165 755 q 363 880 300 755 l 314 905 q 115 805 128 874 m 1035 1054 l 1059 1054 q 1234 805 1234 951 l 1234 706 q 960 382 1234 541 l 861 382 l 861 507 q 1134 731 1134 688 l 1134 781 q 861 582 1036 617 q 736 755 736 616 l 736 880 q 1035 1054 892 1054 m 811 805 l 811 755 l 861 755 q 1059 880 996 755 l 1010 905 q 811 805 824 874 z "},"·":{"ha":617,"x_min":41,"x_max":563,"o":"m 339 646 q 563 373 563 646 q 239 100 563 149 q 41 298 41 148 l 41 323 q 339 646 41 646 z "},"•":{"ha":617,"x_min":41,"x_max":563,"o":"m 339 646 q 563 373 563 646 q 239 100 563 149 q 41 298 41 148 l 41 323 q 339 646 41 646 z "},"∙":{"ha":617,"x_min":41,"x_max":563,"o":"m 339 646 q 563 373 563 646 q 239 100 563 149 q 41 298 41 148 l 41 323 q 339 646 41 646 z "},"…":{"ha":1902,"x_min":41,"x_max":1848,"o":"m 350 187 q 481 -32 516 28 l 382 -204 q 126 -199 345 -269 q 47 -39 41 -150 l 96 47 q 350 187 186 203 m 205 -16 l 192 -37 l 213 -50 q 290 -65 267 -52 l 315 -22 l 272 3 q 205 -16 226 21 m 1016 187 q 1147 -32 1182 28 l 1048 -204 q 792 -199 1010 -269 q 713 -39 707 -150 l 762 47 q 1016 187 852 203 m 870 -16 l 858 -37 l 879 -50 q 956 -65 933 -52 l 981 -22 l 938 3 q 870 -16 891 21 m 1681 187 q 1813 -32 1848 28 l 1714 -204 q 1458 -199 1676 -269 q 1378 -39 1372 -150 l 1428 47 q 1681 187 1518 203 m 1536 -16 l 1524 -37 l 1545 -50 q 1622 -65 1599 -52 l 1647 -22 l 1604 3 q 1536 -16 1557 21 z "},"™":{"ha":1462,"x_min":41,"x_max":1408,"o":"m 66 721 q 364 671 238 671 l 712 671 q 787 547 768 671 l 911 671 l 936 671 q 1084 422 1015 671 l 1109 422 q 1259 646 1203 646 l 1284 646 q 1408 100 1383 646 l 1408 75 l 1284 75 l 1234 348 l 1209 348 q 1084 125 1123 125 l 1010 125 q 936 422 936 348 l 911 422 q 787 174 873 422 l 712 174 l 687 273 q 762 497 762 485 l 488 497 l 463 323 q 488 50 488 153 l 438 25 l 414 25 q 339 100 378 25 l 339 497 l 264 497 q 41 646 41 497 q 66 721 66 694 z "},"←":{"ha":1137,"x_min":41,"x_max":1083,"o":"m 636 1142 q 760 745 711 1142 l 785 745 q 810 770 810 745 q 1034 695 1034 745 q 1083 -24 1034 496 l 835 -50 l 785 -50 q 686 -397 785 -112 l 612 -397 q 41 323 479 -271 l 41 348 q 636 1142 140 714 m 190 372 q 612 -174 456 -51 l 636 -174 q 686 100 636 -112 l 884 100 q 935 174 935 100 q 909 596 909 513 l 736 596 q 587 695 587 596 q 612 894 587 717 q 190 372 315 677 z "},"→":{"ha":1212,"x_min":41,"x_max":1158,"o":"m 463 1093 q 1158 348 539 1093 l 1158 273 q 562 -273 1158 245 q 413 50 503 -273 q 66 149 66 50 q 41 348 66 252 l 90 720 q 66 795 66 768 l 115 819 l 413 819 l 413 1043 q 463 1093 420 1093 m 537 844 q 488 646 537 646 l 314 646 q 289 671 289 646 q 165 298 165 637 q 190 224 190 250 l 363 224 q 562 -50 562 224 q 1008 348 1008 314 l 537 844 z "},"★":{"ha":1411,"x_min":41,"x_max":1356,"o":"m 512 1241 l 636 1241 q 884 968 674 1241 l 1133 968 q 1356 795 1356 968 q 1232 547 1356 782 q 1356 149 1356 305 q 1282 50 1319 50 l 1232 50 q 760 100 1060 50 q 537 -124 758 47 l 488 -124 q 388 50 388 -83 l 388 323 q 41 522 77 406 l 41 571 q 314 844 41 617 q 512 1241 408 1135 z "},"☆":{"ha":1435,"x_min":41,"x_max":1381,"o":"m 587 1167 l 636 1167 q 909 869 671 1167 q 984 894 936 869 q 1331 671 1331 894 l 1331 621 q 1232 447 1232 509 q 1381 124 1381 230 l 1381 50 q 1207 -50 1341 -50 l 1083 -50 q 760 25 1023 -50 q 488 -198 644 -198 q 413 75 413 -198 l 413 248 q 140 372 413 292 q 41 522 41 448 q 413 819 63 604 q 587 1167 546 1167 m 264 496 q 587 273 587 413 q 562 50 562 139 q 760 224 705 224 q 1158 124 942 124 l 1257 124 q 1034 348 1180 348 l 1034 422 q 1158 695 1034 470 l 1008 695 l 835 671 q 686 919 686 863 l 661 919 l 488 646 q 264 496 388 646 z "},"☎":{"ha":2180,"x_min":41,"x_max":2125,"o":"m 736 1241 l 909 1241 q 1778 1093 1463 1241 l 1828 1117 q 2001 968 1922 1109 q 2101 695 2058 962 q 2051 323 2051 423 q 2125 248 2087 323 l 2125 -24 q 1704 -546 2054 -546 l 1455 -546 q 612 -570 1130 -546 q 66 -24 288 -570 l 41 149 l 41 248 q 214 571 41 349 q 165 795 165 732 l 165 869 q 289 1192 202 1184 q 736 1241 536 1241 m 314 844 l 314 720 q 537 496 314 496 l 562 496 q 711 695 580 496 q 835 671 794 695 l 935 695 q 1579 496 1579 641 q 1778 248 1579 248 l 1828 248 l 1828 397 q 1952 695 1952 397 l 1952 770 q 1505 968 1952 903 q 909 1067 1505 1031 q 612 1018 654 1043 q 537 1067 537 1043 q 314 844 314 1067 m 612 323 q 264 397 456 323 q 165 199 165 248 q 438 -298 277 -298 q 661 -397 450 -331 q 1455 -347 1241 -372 q 1679 -372 1548 -372 q 1977 -74 1977 -357 q 2026 100 2001 -74 q 2001 174 2001 148 l 1927 174 q 1853 75 1927 75 l 1679 75 q 1431 422 1589 120 q 1108 496 1168 496 l 785 496 l 612 323 m 785 298 q 1008 124 979 298 q 1282 298 1145 298 q 1455 50 1455 181 q 1083 -248 1327 -248 l 984 -248 q 661 50 661 -208 l 661 75 q 785 298 711 298 z "},"♡":{"ha":1460,"x_min":41,"x_max":1406,"o":"m 438 844 l 587 844 q 760 671 622 844 l 785 671 q 1083 795 924 795 q 1406 397 1354 795 l 1406 348 q 1108 -149 1406 120 q 686 -248 958 -248 l 661 -248 q 41 199 196 -248 l 41 422 q 438 844 180 844 m 165 273 q 488 -74 165 62 q 686 -99 549 -74 q 1257 422 1257 -27 l 1257 496 q 1083 621 1207 621 q 810 397 810 514 l 785 397 q 612 671 612 397 l 488 695 q 165 273 165 577 z "},"♥":{"ha":1411,"x_min":41,"x_max":1356,"o":"m 512 894 q 736 695 736 823 l 760 695 q 1158 869 916 869 q 1356 472 1356 795 q 711 -174 1356 52 l 537 -174 q 66 224 183 -174 q 41 422 66 286 q 512 894 125 894 z "},"♩":{"ha":939,"x_min":41,"x_max":884,"o":"m 686 1167 q 860 174 819 1167 q 884 75 884 174 q 438 -372 884 -159 l 289 -397 l 239 -397 q 41 -149 41 -397 q 488 348 115 348 q 686 298 646 298 l 686 323 q 612 1067 661 884 q 686 1167 649 1167 m 214 -99 l 214 -174 l 363 -174 q 661 0 506 -174 q 587 174 661 83 q 214 -99 214 135 z "},"♪":{"ha":1187,"x_min":41,"x_max":1133,"o":"m 388 1192 l 413 1192 q 1133 770 995 1004 l 1133 720 l 1083 695 q 562 968 1023 695 l 512 968 q 760 372 512 671 l 760 273 q 264 -174 629 -174 q 41 124 41 -174 l 41 199 q 463 547 134 547 q 363 1117 363 958 q 388 1192 388 1165 m 214 75 q 289 50 262 50 q 562 199 562 124 l 562 298 q 512 323 512 298 q 214 75 214 237 z "},"♬":{"ha":1361,"x_min":41,"x_max":1307,"o":"m 959 1043 l 984 1043 q 1108 422 1059 1043 q 1307 174 1307 343 q 810 -248 1234 -248 q 661 -50 661 -197 l 661 25 q 984 422 661 301 q 959 571 959 459 q 537 496 537 555 q 636 199 537 484 l 636 124 q 239 -198 560 -198 q 41 75 41 -99 l 41 124 q 413 447 41 447 q 314 919 314 779 l 959 1043 m 463 770 l 463 720 l 661 720 q 935 795 935 720 l 935 844 q 463 770 779 844 m 190 0 l 214 0 q 463 174 353 0 l 463 224 l 438 224 q 190 0 190 189 m 835 25 l 835 -50 q 1108 124 987 -50 l 1108 224 l 1083 224 q 835 25 937 224 z "},"ㄱ":{"ha":915,"x_min":41,"x_max":861,"o":"m 463 845 l 761 845 q 861 522 842 845 q 836 448 861 496 l 861 298 l 861 174 l 836 50 q 711 100 711 50 q 686 671 711 214 l 612 671 q 66 646 438 671 l 41 696 l 41 820 q 463 845 332 845 z "},"ㄲ":{"ha":1238,"x_min":41,"x_max":1183,"o":"m 1034 820 q 1183 249 1183 820 l 1183 199 q 1109 149 1183 149 q 1034 199 1034 174 q 1009 646 1034 300 l 985 646 q 612 572 876 646 q 662 199 662 334 l 612 174 l 513 174 l 488 422 l 488 522 q 438 572 488 572 l 239 572 q 140 547 184 572 q 41 621 41 584 l 41 745 l 438 745 q 1034 820 480 745 z "},"ㄳ":{"ha":1461,"x_min":41,"x_max":1407,"o":"m 1009 920 l 1084 920 q 1407 249 1201 920 q 1382 174 1382 201 l 1308 174 q 1109 671 1250 209 l 1059 671 q 861 199 919 210 q 810 273 810 199 l 786 273 l 761 174 l 686 174 q 612 373 612 190 l 612 671 l 513 671 q 90 621 424 671 q 41 770 41 723 q 513 845 321 845 l 662 845 q 761 745 701 845 l 761 323 l 786 323 q 1009 920 786 428 z "},"ㄴ":{"ha":865,"x_min":41,"x_max":810,"o":"m 90 994 q 239 298 239 994 q 736 323 574 323 l 786 323 q 810 249 786 297 q 538 149 810 149 q 140 124 538 124 q 41 920 90 241 q 90 994 66 994 z "},"ㄵ":{"ha":1337,"x_min":41,"x_max":1282,"o":"m 711 895 l 810 895 q 1034 770 1034 845 l 1034 745 l 1009 497 q 1282 224 1282 266 l 1282 100 l 1208 100 l 910 373 l 885 373 q 513 0 774 0 q 239 -50 254 -50 l 239 -24 l 190 -50 l 165 -50 q 90 100 90 -24 l 90 174 q 41 770 90 549 l 90 795 l 115 795 q 214 497 214 795 l 214 149 q 761 472 700 149 q 885 720 885 621 l 662 720 q 587 795 626 720 l 587 869 l 711 895 z "},"ㄶ":{"ha":1511,"x_min":41,"x_max":1457,"o":"m 1059 1093 l 1134 1093 q 1382 869 1323 1093 q 1457 845 1430 845 l 1457 745 q 885 646 1457 665 q 836 795 836 728 q 885 845 844 845 l 1258 845 l 1258 895 q 1059 994 1059 924 l 1059 1093 m 90 845 l 165 845 l 264 323 l 389 298 q 761 323 605 323 l 810 249 l 810 199 q 438 124 810 124 q 90 397 90 124 q 41 820 90 573 l 90 845 m 1183 522 l 1282 522 q 1432 273 1432 421 l 1432 199 l 1208 0 l 1158 -24 l 985 -24 q 861 174 861 39 l 861 224 q 1183 522 861 432 m 985 149 q 1034 124 1034 149 q 1233 348 1233 153 l 1233 373 q 985 149 1033 373 z "},"ㄷ":{"ha":840,"x_min":41,"x_max":786,"o":"m 239 895 l 711 895 q 761 845 761 886 l 761 720 l 463 745 l 314 745 q 165 596 165 745 q 239 348 184 348 q 662 373 531 373 q 786 298 786 355 l 786 199 l 662 174 q 637 199 637 174 l 587 174 q 562 199 562 174 l 438 174 l 140 174 q 41 547 41 174 l 41 820 q 239 895 56 895 z "},"ㄸ":{"ha":1238,"x_min":41,"x_max":1183,"o":"m 637 845 l 836 845 q 1183 696 1025 845 l 1183 572 l 1158 572 q 711 696 851 696 l 711 671 q 686 572 711 615 q 786 224 686 224 l 885 199 l 1009 224 q 1109 75 1109 199 q 1059 25 1059 67 l 935 50 l 686 50 l 612 100 l 289 100 q 41 646 41 100 q 413 820 41 820 l 587 795 q 637 845 595 845 m 190 596 q 289 273 208 273 l 562 273 l 562 596 q 513 646 562 646 l 314 646 q 190 596 190 640 z "},"ㄹ":{"ha":865,"x_min":41,"x_max":810,"o":"m 115 920 q 686 869 241 899 l 711 745 l 711 472 q 463 273 686 273 l 190 273 l 190 149 q 413 50 190 85 l 711 100 q 810 25 810 62 q 587 -99 810 -99 l 289 -99 q 41 149 41 -66 l 41 249 q 190 448 41 429 l 363 422 l 562 472 l 562 720 l 140 720 q 90 770 90 720 l 90 869 l 115 920 z "},"ㄺ":{"ha":1411,"x_min":41,"x_max":1357,"o":"m 363 920 l 413 920 q 637 373 637 720 q 190 199 190 258 l 190 124 q 612 149 481 149 l 662 149 l 686 25 l 612 -24 l 513 -24 q 239 -50 410 -24 q 41 199 41 -50 q 339 448 41 448 q 463 472 380 472 l 463 497 q 363 745 432 745 q 115 696 315 745 l 90 745 l 90 845 q 363 920 90 920 m 1233 770 q 1357 547 1357 728 q 1333 50 1333 178 q 1258 25 1306 50 q 1183 50 1210 50 l 1183 397 l 1208 572 l 1158 596 q 810 547 971 547 q 786 696 810 566 l 861 745 l 960 745 q 1233 770 1063 745 z "},"ㄻ":{"ha":1436,"x_min":41,"x_max":1382,"o":"m 1208 944 q 1382 671 1382 877 q 1233 149 1308 149 q 1158 199 1158 174 l 1034 174 l 985 174 q 810 547 810 264 q 885 895 810 644 q 985 869 941 895 q 1208 944 1120 944 m 41 920 q 562 671 562 920 l 587 547 q 413 397 587 397 l 239 422 l 214 373 l 214 199 l 239 199 q 513 249 468 249 l 562 174 l 562 124 q 165 25 562 58 l 140 25 q 66 298 66 235 q 115 572 66 332 q 339 547 205 572 q 438 621 438 584 l 438 671 q 66 770 438 720 l 41 820 l 41 920 m 960 397 q 1109 323 985 323 l 1134 323 q 1258 770 1258 382 l 1208 770 q 960 472 960 770 l 960 397 z "},"ㄼ":{"ha":1659,"x_min":41,"x_max":1605,"o":"m 513 920 q 761 646 711 920 l 761 497 q 339 298 761 298 q 314 224 314 250 q 463 25 314 25 l 562 25 l 810 50 l 836 0 l 836 -75 q 786 -124 836 -124 l 413 -124 q 165 124 165 -91 l 165 273 q 587 472 165 472 l 587 646 q 538 770 587 770 q 165 671 455 770 l 90 671 q 41 720 41 671 l 41 745 q 513 920 41 834 m 1034 869 q 1134 720 1134 845 l 1134 448 q 1183 397 1141 397 l 1432 422 l 1432 547 l 1407 795 l 1481 845 l 1506 845 q 1605 323 1605 845 q 1432 -75 1605 -75 q 1282 -99 1320 -75 q 960 124 960 -99 l 960 795 q 1034 869 960 831 m 1308 249 l 1134 249 l 1134 124 q 1183 75 1141 75 l 1382 75 q 1432 124 1432 75 l 1432 273 l 1308 249 z "},"ㄽ":{"ha":1659,"x_min":41,"x_max":1605,"o":"m 488 994 q 810 646 810 994 q 264 298 810 430 l 239 249 l 239 149 q 339 75 239 112 q 761 100 408 100 q 786 0 786 56 l 786 -24 q 339 -75 488 -75 q 90 149 90 -50 l 90 249 q 562 547 90 466 q 637 696 637 610 q 562 845 637 825 l 538 845 q 140 770 302 845 q 41 845 41 808 q 488 994 41 954 m 1134 820 l 1208 820 q 1605 75 1430 573 l 1556 50 l 1457 50 l 1183 621 l 1134 621 q 960 149 960 269 l 861 149 l 861 174 q 1134 820 960 690 z "},"ㄾ":{"ha":1685,"x_min":41,"x_max":1630,"o":"m 686 994 q 885 745 808 994 l 910 745 q 1059 944 910 944 q 1208 969 1078 944 q 1531 820 1531 920 q 1457 720 1494 720 l 1432 720 q 1134 795 1345 795 l 1109 795 q 1034 547 1059 795 q 1382 646 1183 621 q 1630 448 1630 646 l 1581 422 l 1357 448 q 1034 348 1274 448 l 1034 323 q 1357 249 1034 249 l 1432 249 q 1506 174 1468 249 l 1506 124 q 1457 75 1506 75 l 1258 75 q 885 298 885 75 l 885 497 q 389 323 808 422 q 339 174 339 241 l 389 149 l 786 149 q 861 0 861 124 q 662 -50 662 -24 q 190 174 190 -50 l 190 199 q 637 572 190 530 q 736 596 649 572 l 736 671 q 662 820 736 800 q 140 696 488 820 l 66 696 l 41 795 q 686 994 126 956 z "},"ㄿ":{"ha":1610,"x_min":41,"x_max":1556,"o":"m 637 969 q 810 770 810 888 q 1481 895 1059 895 q 1556 869 1529 869 l 1556 770 q 1506 720 1556 720 l 1308 720 l 1308 621 q 1333 497 1308 538 l 1308 348 l 1308 149 q 1457 0 1457 149 q 1407 -50 1457 -50 l 1208 -50 q 736 -99 787 -99 l 711 -50 l 711 25 q 960 124 711 69 l 1034 646 l 1009 646 l 910 621 l 810 621 q 239 323 810 451 q 165 174 165 227 l 239 124 l 264 124 q 488 149 353 124 q 612 124 529 124 l 612 50 q 438 -50 572 -50 l 314 -50 q 41 149 41 -50 l 41 273 q 587 596 41 521 l 662 671 l 662 745 l 637 795 q 115 720 250 720 l 66 720 l 66 895 l 90 895 q 637 969 214 895 m 1158 547 q 1109 149 1158 504 l 1109 124 l 1134 124 l 1158 224 l 1134 224 q 1183 497 1158 276 l 1183 547 l 1158 547 z "},"ㅀ":{"ha":1586,"x_min":41,"x_max":1531,"o":"m 985 1143 l 1084 1143 q 1357 1068 1166 1143 l 1357 920 q 935 1019 935 920 l 935 1093 q 985 1143 943 1143 m 587 1068 q 761 621 761 929 q 339 348 761 414 l 190 323 l 190 199 l 289 174 q 686 224 604 224 l 711 174 l 711 100 q 264 25 711 25 l 239 25 q 41 224 41 25 l 41 249 q 488 547 41 547 q 612 646 612 610 l 612 720 q 488 895 612 860 q 115 795 199 795 l 90 845 l 90 920 q 587 1068 297 1068 m 1531 895 l 1531 770 q 1059 671 1531 671 l 960 671 q 885 745 924 671 l 885 820 q 935 869 893 869 l 1158 845 q 1531 895 1392 895 m 1183 572 l 1233 572 q 1481 224 1481 512 q 1258 0 1481 193 q 1134 -50 1258 -50 l 1009 -50 q 861 224 861 46 q 1183 572 861 381 m 985 199 q 1059 100 1022 100 l 1134 100 q 1308 348 1308 227 l 1233 397 l 1183 397 q 985 199 1026 297 z "},"ㅁ":{"ha":865,"x_min":41,"x_max":810,"o":"m 488 944 l 612 944 q 810 795 810 944 q 711 149 761 149 l 612 174 q 140 149 217 149 q 41 397 41 149 q 66 696 41 438 q 41 770 41 744 q 488 944 41 870 m 214 696 q 190 323 214 571 q 637 422 637 323 l 686 770 q 637 795 637 770 q 214 696 422 770 z "},"ㅂ":{"ha":915,"x_min":41,"x_max":861,"o":"m 686 994 l 810 994 q 861 572 844 620 l 836 522 q 861 448 836 496 q 662 50 815 50 q 214 0 414 0 q 41 522 41 0 l 66 745 q 41 820 41 793 q 66 895 66 868 l 165 895 q 214 671 214 733 l 214 621 l 190 572 q 264 547 238 547 q 711 596 373 547 l 686 845 l 686 994 m 190 422 l 190 373 q 214 174 214 236 l 239 174 q 686 323 686 174 l 686 397 l 662 397 q 289 348 523 397 q 214 422 214 348 l 190 422 z "},"ㅃ":{"ha":1138,"x_min":41,"x_max":1084,"o":"m 935 1217 q 1059 448 1059 1217 q 1084 422 1084 448 q 836 124 1084 124 l 289 124 q 66 621 66 124 q 41 920 66 744 l 90 944 l 165 944 q 239 422 214 747 l 214 422 q 339 298 222 340 q 413 323 387 323 l 587 298 l 587 448 l 562 448 q 413 422 432 422 q 314 572 314 448 l 389 621 l 538 621 q 488 869 538 726 q 513 944 513 918 l 612 944 l 686 646 l 935 646 q 885 1192 885 856 l 935 1217 m 711 472 q 786 298 736 298 q 910 448 910 314 l 910 472 l 711 472 z "},"ㅄ":{"ha":1312,"x_min":41,"x_max":1258,"o":"m 90 969 l 190 969 l 214 869 l 214 522 l 264 497 l 413 522 l 463 522 l 488 621 q 463 770 488 640 q 488 845 488 819 l 538 845 q 612 696 612 820 l 612 547 q 389 25 612 25 q 289 0 345 0 q 41 472 41 64 l 90 969 m 935 820 q 1258 224 1081 820 l 1258 174 q 1208 124 1258 124 l 1134 124 q 935 596 1007 586 q 736 124 781 133 l 711 124 q 662 199 662 124 q 910 820 687 459 l 935 820 m 214 323 q 289 174 230 174 q 438 323 438 174 l 214 323 z "},"ㅅ":{"ha":1114,"x_min":41,"x_max":1059,"o":"m 438 944 l 488 944 q 1059 224 861 944 q 1009 174 1059 174 l 960 174 q 736 621 926 174 q 513 770 618 745 q 165 224 165 319 l 90 224 q 41 273 41 224 l 41 323 q 438 920 41 465 l 438 944 z "},"ㅆ":{"ha":1586,"x_min":41,"x_max":1531,"o":"m 538 944 q 935 646 694 944 q 1158 944 958 768 l 1208 944 q 1531 348 1367 944 l 1531 249 l 1432 249 q 1282 646 1391 249 l 1183 745 q 960 323 1089 693 l 910 323 q 761 621 868 323 q 637 720 727 621 q 562 745 589 745 q 165 224 302 608 l 115 224 q 41 348 58 224 q 538 944 156 682 z "},"ㅇ":{"ha":989,"x_min":41,"x_max":935,"o":"m 612 869 l 686 869 q 935 422 935 735 q 587 75 935 140 l 562 75 q 41 397 41 75 q 314 820 41 623 l 363 795 l 612 869 m 190 397 q 438 273 227 273 l 612 273 q 786 373 745 273 l 786 497 q 686 671 786 631 l 587 671 q 190 397 190 574 z "},"ㅈ":{"ha":1114,"x_min":41,"x_max":1059,"o":"m 686 1093 q 836 920 836 1093 q 686 646 836 837 l 686 621 q 1059 273 1059 302 l 1059 224 q 1009 174 1059 174 q 562 472 933 174 q 264 100 540 472 l 190 100 l 165 224 q 488 720 387 520 q 637 920 606 720 q 90 869 579 920 l 41 944 l 41 1019 q 115 1068 41 1068 q 686 1093 235 1068 z "},"ㅉ":{"ha":1411,"x_min":41,"x_max":1357,"o":"m 363 1044 l 463 1044 q 587 994 587 1037 q 885 1044 821 1044 q 1134 820 1134 975 l 1134 770 q 1084 572 1134 663 q 1357 249 1357 402 q 1233 174 1357 192 q 1034 397 1177 294 l 985 397 q 836 149 975 281 l 761 149 l 736 249 l 736 323 q 513 472 618 429 q 389 199 389 242 l 264 199 l 264 249 q 438 696 359 696 q 513 845 486 703 q 413 895 413 864 q 66 845 195 845 l 41 895 l 41 969 q 363 1044 41 1044 m 587 621 q 861 448 665 621 q 1009 795 861 532 l 885 869 q 612 646 612 869 q 587 621 587 646 z "},"ㅊ":{"ha":915,"x_min":41,"x_max":861,"o":"m 264 1192 q 562 994 495 1093 l 562 944 q 488 895 562 895 q 190 1068 345 895 l 190 1118 q 264 1192 190 1154 m 90 845 q 662 646 662 795 l 662 596 q 612 448 612 515 q 861 124 861 258 l 786 75 l 488 323 q 239 50 458 323 l 140 50 q 115 124 140 76 q 463 596 115 161 l 463 621 l 339 621 q 41 795 41 621 q 90 845 90 795 z "},"ㅋ":{"ha":915,"x_min":41,"x_max":861,"o":"m 190 1044 l 587 1044 q 861 497 861 1044 q 786 50 861 50 l 761 50 q 662 149 736 50 l 686 273 l 686 448 l 115 448 q 41 596 41 472 l 90 621 l 686 621 l 686 720 q 612 869 686 849 l 463 869 l 214 845 l 140 944 l 140 994 q 190 1044 148 1044 z "},"ㅌ":{"ha":964,"x_min":41,"x_max":910,"o":"m 289 1118 l 438 1118 q 885 969 885 1118 l 885 944 q 836 895 885 895 l 810 895 q 363 969 627 944 q 214 920 262 920 l 214 596 q 711 646 391 646 q 910 472 910 615 l 861 448 l 786 448 q 662 472 703 448 q 264 422 391 422 q 239 448 264 448 l 239 422 q 413 224 239 273 q 810 273 486 224 l 861 199 l 861 100 q 389 50 510 50 q 66 596 105 50 l 41 745 l 66 745 l 41 795 q 289 1118 41 1118 z "},"ㅍ":{"ha":1114,"x_min":41,"x_max":1059,"o":"m 1009 895 l 1059 795 q 1034 720 1034 747 l 985 720 l 736 696 q 786 249 786 369 q 985 100 985 249 l 985 75 l 935 50 l 736 50 q 90 0 500 50 l 41 75 l 41 149 q 90 199 48 199 l 239 199 l 413 224 l 389 273 l 389 646 l 140 646 q 66 795 90 646 q 115 845 115 795 l 214 820 l 1009 895 m 513 646 l 538 596 q 488 249 538 421 q 562 224 514 249 q 637 249 610 249 l 587 671 l 562 671 l 513 646 z "},"ㅎ":{"ha":1014,"x_min":41,"x_max":960,"o":"m 214 1143 l 339 1143 q 363 1118 363 1143 q 389 1143 389 1118 q 786 1044 786 1109 l 786 944 q 736 920 736 944 l 488 944 l 264 944 q 190 1068 222 944 q 214 1143 214 1116 m 910 869 l 960 795 l 960 720 q 885 646 960 685 q 810 671 859 646 q 214 621 427 621 q 41 745 80 621 q 66 820 66 793 l 289 820 q 910 869 639 820 m 587 522 q 861 100 861 399 l 861 75 q 488 -99 821 -14 q 214 199 230 -99 q 587 522 214 433 m 339 199 l 339 149 q 413 75 339 113 l 438 75 q 686 174 686 105 l 686 249 q 587 348 686 288 l 562 348 q 339 199 426 348 z "},"ㅏ":{"ha":766,"x_min":41,"x_max":711,"o":"m 41 1068 l 66 1068 q 214 472 214 986 l 214 422 q 587 448 463 448 l 711 422 l 711 249 l 612 249 q 587 273 587 249 l 538 249 l 239 249 l 214 -149 l 90 -149 l 90 323 q 41 1068 90 435 z "},"ㅐ":{"ha":741,"x_min":41,"x_max":686,"o":"m 90 1168 l 140 1168 q 264 745 224 745 q 538 820 451 820 q 513 1093 513 1040 l 587 1093 q 686 745 647 1093 q 662 522 662 611 l 662 373 l 686 199 l 637 174 l 587 174 q 538 224 538 174 l 538 646 l 513 646 q 264 572 278 572 l 264 224 q 214 174 264 174 l 190 174 q 90 895 109 174 q 41 1143 41 895 l 90 1168 z "},"ㅑ":{"ha":890,"x_min":41,"x_max":836,"o":"m 41 1441 l 140 1441 q 264 994 239 1022 q 637 1068 488 1068 l 786 1068 q 836 1019 836 1061 l 836 944 q 339 845 836 895 l 289 770 l 289 745 q 662 795 414 795 l 761 770 l 761 671 q 363 572 761 629 q 289 596 315 596 l 289 224 q 239 174 289 174 l 165 174 l 165 224 q 140 348 165 307 l 165 472 q 41 1441 140 884 z "},"ㅒ":{"ha":741,"x_min":41,"x_max":686,"o":"m 90 1317 l 115 1317 q 239 820 205 1317 l 264 820 l 513 845 l 513 895 l 264 895 l 239 994 q 264 1068 264 1042 l 438 1068 l 538 1217 l 562 1217 q 686 298 645 1217 l 637 273 l 587 273 q 538 323 538 273 l 538 497 l 513 671 q 239 596 239 652 q 264 323 264 427 l 190 273 q 115 348 154 273 q 41 1292 90 1019 l 90 1317 z "},"ㅓ":{"ha":939,"x_min":41,"x_max":885,"o":"m 686 920 l 736 920 q 885 0 861 920 l 810 -50 l 761 -50 l 736 75 l 736 348 l 711 522 l 637 522 q 90 497 463 522 q 41 646 41 578 l 41 671 l 66 671 q 637 696 179 671 q 711 671 685 671 l 686 845 l 686 920 z "},"ㅔ":{"ha":1114,"x_min":41,"x_max":1059,"o":"m 910 1044 l 935 1044 q 1059 75 1034 1044 l 985 25 l 935 25 l 910 149 l 910 596 q 861 1019 910 685 l 910 1044 m 612 820 q 736 348 736 726 l 736 75 l 662 75 q 612 124 612 75 l 612 373 q 488 397 488 373 q 90 348 448 373 l 41 472 q 66 547 66 520 q 165 522 121 547 l 488 572 q 587 547 531 547 l 562 795 l 612 820 z "},"ㅕ":{"ha":890,"x_min":41,"x_max":836,"o":"m 686 969 l 736 969 q 836 646 810 969 l 810 596 q 836 572 810 572 l 810 397 l 810 -75 q 761 -124 810 -124 l 711 -124 q 662 -75 662 -124 l 662 224 l 686 273 q 66 224 626 249 l 41 273 l 41 397 q 538 422 376 422 q 662 323 662 422 l 686 323 l 686 795 q 662 895 686 851 q 686 969 686 943 m 562 720 l 612 646 l 612 547 q 140 497 229 497 q 41 646 41 522 q 90 696 48 696 q 165 671 117 696 l 562 720 z "},"ㅖ":{"ha":989,"x_min":41,"x_max":935,"o":"m 836 1192 l 861 1192 q 935 1044 935 1168 l 935 149 q 885 100 935 100 l 810 100 l 786 224 l 786 1143 q 836 1192 793 1192 m 562 1168 l 637 1168 q 711 1044 694 1168 q 637 149 711 913 l 562 149 q 488 249 538 149 l 513 373 l 513 497 l 488 497 q 90 472 450 497 l 41 547 l 41 646 l 66 646 q 538 671 460 671 l 538 745 l 363 720 l 214 720 l 90 745 l 90 920 l 264 895 l 463 895 l 538 845 l 562 845 l 562 1168 z "},"ㅗ":{"ha":1088,"x_min":41,"x_max":1034,"o":"m 513 1118 q 637 348 637 1097 l 686 323 l 1009 323 l 1034 199 l 1034 174 l 1009 124 q 314 174 507 174 l 264 149 q 41 323 41 149 l 41 348 q 115 373 67 348 q 190 323 190 348 l 239 348 l 488 348 l 488 373 q 438 1068 488 702 l 513 1118 z "},"ㅘ":{"ha":1486,"x_min":41,"x_max":1432,"o":"m 935 1044 l 1009 1044 q 1109 845 1074 1044 l 1109 671 l 1134 621 q 1208 646 1182 646 q 1432 497 1432 646 q 1109 422 1395 454 q 1034 124 1090 124 l 960 124 q 935 224 960 180 l 985 795 q 935 994 935 886 l 935 1044 m 314 920 l 339 920 q 488 448 488 751 l 736 448 l 761 323 q 711 273 761 273 q 115 224 458 273 l 41 323 l 41 373 q 90 422 48 422 l 339 422 l 339 472 q 264 845 339 606 l 264 869 q 314 920 272 920 z "},"ㅙ":{"ha":1337,"x_min":41,"x_max":1282,"o":"m 389 944 q 513 273 476 944 l 662 273 q 736 199 697 273 l 736 124 q 686 75 736 75 q 413 100 633 75 q 66 50 144 50 l 41 100 l 41 174 q 389 273 41 256 q 339 820 339 483 l 339 895 q 389 944 347 944 m 1158 845 l 1258 845 l 1282 720 l 1282 50 q 1233 0 1282 0 l 1208 0 q 1134 149 1134 25 l 1134 373 l 1109 422 q 985 348 985 391 l 985 124 q 935 75 985 75 l 861 75 l 836 249 l 836 323 q 861 348 836 348 l 836 397 l 836 547 l 810 696 q 836 770 836 744 l 885 770 q 985 547 949 770 l 1034 572 l 1158 572 l 1158 845 z "},"ㅚ":{"ha":1088,"x_min":41,"x_max":1034,"o":"m 885 1068 l 985 1068 q 1034 845 1034 907 l 1034 149 l 935 124 q 885 273 885 226 q 910 720 885 319 l 885 1068 m 190 1019 l 289 1019 q 438 472 389 764 l 562 497 l 587 497 l 711 472 l 711 348 q 90 224 138 224 q 41 348 41 304 q 66 422 66 396 l 239 422 q 289 472 289 422 q 190 944 289 537 l 190 1019 z "},"ㅛ":{"ha":1063,"x_min":41,"x_max":1009,"o":"m 587 1044 l 686 1044 q 810 472 810 697 l 985 472 l 1009 348 q 686 273 1009 292 l 637 298 q 66 273 618 273 q 41 373 41 317 q 190 422 122 422 l 314 422 l 239 820 l 289 845 l 314 845 q 488 448 379 798 q 662 472 587 472 l 662 497 q 562 969 662 749 q 587 1044 587 1017 z "},"ㅜ":{"ha":939,"x_min":41,"x_max":885,"o":"m 90 895 l 810 895 q 885 820 846 895 l 885 745 l 761 720 l 513 720 q 488 50 488 262 l 488 -174 q 438 -223 488 -223 l 413 -223 q 339 -75 339 -199 q 363 720 339 186 l 190 696 q 41 845 41 696 q 90 895 48 895 z "},"ㅝ":{"ha":1337,"x_min":41,"x_max":1282,"o":"m 1233 845 q 1282 572 1282 748 l 1282 100 q 1233 50 1282 50 l 1134 50 l 1134 348 q 761 273 1064 348 l 711 348 l 711 397 q 1134 547 711 463 l 1134 820 q 1233 845 1146 820 m 810 770 l 836 720 l 836 596 q 562 572 616 572 l 562 547 q 587 448 587 503 l 587 124 q 513 -75 587 -59 l 463 -75 q 413 0 413 -75 q 438 547 413 50 l 413 547 q 140 522 243 522 l 115 522 q 41 596 79 522 l 41 696 l 66 696 q 810 770 178 696 z "},"ㅞ":{"ha":1486,"x_min":41,"x_max":1432,"o":"m 1333 920 l 1357 920 q 1432 522 1432 920 l 1432 149 q 1357 75 1432 113 l 1308 75 l 1282 199 l 1282 869 q 1333 920 1291 920 m 1034 895 l 1059 895 q 1134 745 1134 869 l 1134 522 l 1158 224 l 1084 174 l 1059 174 q 985 348 1018 174 l 910 348 q 587 273 857 348 l 538 348 l 538 448 l 885 522 l 985 522 l 985 845 q 1034 895 992 895 m 90 795 l 214 770 l 239 770 q 736 795 401 770 l 761 671 q 463 596 692 609 q 363 0 450 0 l 339 0 q 289 50 289 0 l 289 273 l 314 572 l 264 572 q 41 671 74 572 l 41 770 q 90 795 90 770 z "},"ㅟ":{"ha":1287,"x_min":41,"x_max":1233,"o":"m 1084 1068 q 1208 249 1208 1068 q 1233 199 1233 249 l 1158 149 l 1134 149 q 1059 298 1059 174 q 1034 1044 1059 410 l 1084 1068 m 810 820 q 861 671 861 739 q 562 547 562 621 q 538 224 538 383 l 538 149 q 463 100 538 100 q 389 124 415 124 l 389 397 l 413 572 l 115 572 q 41 646 79 572 l 41 720 q 90 770 48 770 q 190 745 146 770 l 810 820 z "},"ㅠ":{"ha":1163,"x_min":41,"x_max":1109,"o":"m 90 869 q 363 795 153 831 q 1109 869 460 820 l 1109 770 q 836 671 1109 708 q 885 100 836 557 l 761 75 q 736 149 736 123 q 686 646 736 355 l 587 646 l 562 397 l 562 199 q 513 149 562 149 l 488 149 q 438 199 438 149 l 438 621 q 41 770 41 621 l 41 820 q 90 869 48 869 z "},"ㅡ":{"ha":989,"x_min":41,"x_max":935,"o":"m 836 795 q 935 646 935 770 q 885 596 935 596 q 90 522 615 596 l 41 596 l 41 671 q 90 720 48 720 l 165 720 l 836 795 z "},"ㅢ":{"ha":1014,"x_min":41,"x_max":960,"o":"m 885 1118 l 960 1118 l 960 1093 l 861 100 l 786 100 q 736 149 736 100 l 736 273 l 761 522 l 463 522 q 90 422 395 522 q 41 572 41 504 q 786 720 267 720 q 885 1118 819 1118 z "},"ㅣ":{"ha":269,"x_min":41,"x_max":214,"o":"m 115 1044 l 140 1044 q 214 845 190 1044 l 190 845 q 214 820 190 820 l 190 696 l 190 124 q 140 75 190 75 l 66 75 q 41 149 66 101 q 66 1019 66 734 l 115 1044 z "},"㈜":{"ha":1832,"x_min":41,"x_max":1778,"o":"m 338 844 l 338 745 q 165 372 165 555 q 488 174 165 207 l 488 75 q 438 25 488 25 l 413 25 q 41 372 41 25 q 338 844 109 844 m 810 844 l 835 844 q 1008 646 891 844 q 1282 472 1238 566 q 1257 372 1257 429 l 1207 372 q 935 472 1077 472 q 810 248 873 248 l 785 248 l 760 348 q 810 671 810 473 q 785 695 785 671 l 736 671 l 686 671 l 661 795 q 810 844 743 844 m 1555 795 l 1605 795 q 1778 472 1778 662 l 1778 422 q 1579 -50 1778 67 l 1455 -50 l 1455 0 q 1654 372 1654 155 l 1654 447 q 1530 671 1654 542 l 1555 795 m 736 174 l 1207 174 q 1257 124 1257 166 l 1257 75 q 1133 0 1257 39 l 1108 -124 l 1008 -124 l 984 0 l 760 0 q 686 75 725 0 l 686 124 q 736 174 694 174 z "},"가":{"ha":1337,"x_min":41,"x_max":1282,"o":"m 1009 994 q 1084 920 1045 994 l 1059 621 q 1282 522 1282 585 l 1282 448 q 1233 397 1282 397 q 1009 422 1099 422 l 1009 373 q 935 174 1009 190 l 910 174 q 836 273 873 174 q 1009 994 956 994 m 363 920 q 538 720 538 857 l 538 671 q 339 50 400 50 l 264 50 q 239 149 264 106 q 389 696 389 635 l 389 720 l 339 720 l 90 696 l 41 770 l 41 845 q 363 920 41 901 z "},"각":{"ha":1461,"x_min":41,"x_max":1407,"o":"m 1034 1093 l 1059 1093 q 1158 895 1118 1093 q 1407 770 1407 895 l 1407 745 q 1109 572 1109 745 q 1084 547 1109 547 l 1009 547 l 985 720 l 985 1044 q 1034 1093 992 1093 m 488 994 q 612 795 612 947 q 562 323 612 623 l 438 323 l 413 422 q 463 820 463 737 l 438 820 q 90 795 227 795 l 41 869 l 41 969 q 488 994 85 969 m 985 323 q 1183 75 1126 323 q 1158 -149 1158 -60 l 1158 -273 q 1109 -323 1158 -323 l 1034 -323 l 1009 -199 l 1009 149 l 985 149 q 686 75 761 75 q 612 224 612 100 l 985 323 z "},"간":{"ha":1511,"x_min":41,"x_max":1457,"o":"m 1034 1143 l 1109 1143 q 1158 895 1158 988 l 1407 920 l 1457 845 l 1457 770 q 1134 646 1134 728 q 1059 472 1134 472 l 1034 472 q 960 572 1009 472 q 1009 994 1009 836 l 985 1118 l 1034 1143 m 115 1044 q 264 994 217 994 q 488 1019 399 1019 q 637 895 590 985 l 637 820 q 538 448 637 448 l 513 448 q 438 572 456 448 q 488 845 488 748 l 115 845 q 41 994 66 845 l 115 1044 m 612 249 l 637 249 q 736 25 690 249 l 786 25 q 1183 124 831 25 q 1258 50 1219 124 l 1258 -24 q 686 -174 787 -174 q 562 149 562 -174 l 562 199 q 612 249 570 249 z "},"갇":{"ha":1486,"x_min":41,"x_max":1432,"o":"m 985 1242 l 1059 1242 q 1158 969 1127 1242 l 1208 994 l 1308 994 l 1432 969 l 1432 845 q 1158 770 1270 820 l 1183 720 q 1158 646 1158 673 l 1084 646 q 985 1242 998 646 m 587 1068 q 711 869 673 1068 q 562 422 656 422 l 513 422 l 488 547 l 562 895 q 538 920 538 895 q 66 869 272 869 l 41 920 l 41 1044 q 587 1068 90 1044 m 1158 298 l 1208 224 l 1208 174 q 1158 124 1208 124 l 1084 124 q 711 100 960 124 l 686 -75 l 736 -99 l 761 -99 q 1034 -75 864 -99 q 1109 -99 1082 -99 l 1109 -199 q 960 -273 1084 -273 l 736 -273 q 538 -50 538 -273 l 538 0 q 810 273 538 273 q 1158 298 966 298 z "},"갈":{"ha":1114,"x_min":41,"x_max":1059,"o":"m 736 1292 l 836 1292 q 885 1242 885 1284 l 885 1068 q 1059 944 1059 1029 q 1034 869 1034 896 l 885 869 l 885 745 q 836 696 885 696 q 711 994 711 718 l 736 994 l 711 1044 l 736 1093 q 711 1168 711 1141 l 736 1292 m 90 1192 l 239 1192 q 538 1019 505 1192 q 413 596 463 596 l 389 596 q 314 770 330 596 q 363 994 363 932 q 41 1093 41 1019 l 41 1143 q 90 1192 48 1192 m 438 522 l 686 522 q 885 199 885 522 l 885 75 l 761 50 l 587 75 q 513 -99 513 -16 l 513 -124 q 587 -149 587 -124 l 637 -124 l 861 -124 q 935 -199 896 -124 l 935 -273 l 810 -298 l 488 -298 q 389 -24 389 -273 q 513 199 444 199 l 736 199 l 736 348 l 463 348 q 389 497 389 373 l 438 522 z "},"갉":{"ha":1411,"x_min":41,"x_max":1357,"o":"m 885 1292 q 960 1217 921 1292 l 960 1019 q 1034 1044 986 1019 q 1357 944 1357 1025 l 1357 920 q 1308 820 1308 859 l 1258 820 l 1009 795 l 1009 572 q 960 522 1009 522 q 861 720 910 522 l 836 720 l 836 969 q 810 1192 836 1058 q 885 1292 848 1292 m 438 1168 q 587 944 587 1137 l 389 422 l 339 422 q 264 547 282 422 q 438 969 438 950 q 413 994 413 969 l 289 969 l 90 969 q 41 1019 41 969 l 41 1093 q 438 1168 41 1151 m 488 348 l 513 348 q 686 199 686 328 l 711 199 q 910 323 731 323 q 1059 149 1059 323 l 1059 -50 l 1034 -199 q 1059 -298 1059 -242 q 1034 -372 1034 -346 l 935 -372 l 910 -248 l 910 -199 q 935 174 910 -74 l 810 149 l 761 149 l 711 174 q 438 -124 711 -22 q 389 -174 389 -132 l 662 -174 l 686 -298 q 637 -347 686 -347 l 389 -347 q 190 -199 190 -347 q 538 124 190 -33 l 562 174 l 513 174 q 314 149 491 174 l 264 224 l 264 298 q 488 348 426 348 z "},"갊":{"ha":1287,"x_min":41,"x_max":1233,"o":"m 836 1143 l 885 1143 q 935 1093 935 1135 l 935 895 l 1084 895 q 1134 845 1134 886 l 1134 720 l 1009 720 l 885 572 q 786 745 786 612 q 836 1143 786 912 m 438 1044 q 587 869 587 1044 l 587 845 q 488 448 587 786 l 413 448 q 363 497 363 448 l 363 522 l 438 869 l 413 869 q 90 820 314 869 q 41 969 41 901 l 41 994 q 438 1044 247 1044 m 538 348 q 761 100 727 348 q 363 -174 761 -132 l 363 -199 l 413 -199 l 662 -149 q 711 -273 711 -229 q 686 -347 686 -321 q 314 -397 339 -372 q 165 -248 165 -347 q 587 50 165 10 l 612 100 l 612 124 q 562 174 612 174 l 538 174 l 363 124 q 289 149 315 149 l 289 249 q 538 348 289 317 m 1183 273 q 1233 224 1233 266 q 1158 -323 1233 -323 q 861 25 861 -323 l 810 100 q 885 249 836 249 l 985 224 q 1183 273 1076 273 m 1009 25 l 1009 -75 q 1084 -149 1009 -110 l 1109 100 q 1009 25 1009 62 z "},"감":{"ha":1262,"x_min":41,"x_max":1208,"o":"m 463 1068 q 612 969 612 1018 l 612 895 q 314 323 612 684 l 239 323 l 239 397 q 488 895 239 442 l 463 895 l 90 820 l 41 895 l 41 994 q 463 1068 165 994 m 810 1068 l 885 1068 q 935 1019 935 1061 l 910 770 q 1208 671 1208 732 l 1208 572 q 1158 547 1158 572 l 1034 572 l 910 572 l 885 397 l 810 397 q 761 472 761 397 q 810 1068 761 637 m 836 273 l 960 273 q 1034 174 1034 273 q 885 -273 979 -273 q 612 -298 782 -273 q 488 -149 488 -282 l 488 -75 q 662 224 488 224 q 836 273 662 266 m 612 -50 l 612 -99 q 686 -124 686 -99 q 910 100 910 -99 l 861 100 q 612 -50 713 100 z "},"갑":{"ha":1461,"x_min":41,"x_max":1407,"o":"m 985 1267 l 1009 1267 q 1084 1192 1045 1267 l 1084 944 q 1357 969 1304 969 q 1407 869 1407 908 q 1084 745 1407 763 l 1084 572 q 1034 522 1084 522 l 1009 522 q 960 572 960 522 l 960 1143 l 985 1267 m 90 1143 l 538 1143 q 711 1044 671 1143 l 711 994 q 389 497 711 831 q 339 547 339 497 l 339 596 q 538 944 339 694 l 538 994 l 239 969 l 90 969 q 41 1019 41 969 l 41 1093 q 90 1143 48 1143 m 612 547 l 637 547 q 612 124 637 416 q 935 249 935 124 l 960 397 l 1034 397 q 1084 348 1084 390 q 836 -323 1084 -323 q 513 -372 637 -372 q 463 -174 463 -281 l 463 -99 q 612 547 463 492 m 587 -75 l 587 -149 l 612 -199 q 910 -50 910 -156 q 885 -24 885 -50 q 587 -75 688 -75 z "},"값":{"ha":1337,"x_min":41,"x_max":1282,"o":"m 836 1242 l 910 1242 l 960 944 q 1208 994 1144 994 l 1233 944 q 960 770 1233 770 q 861 596 916 596 l 786 646 l 810 895 l 810 920 l 786 1217 l 836 1242 m 115 1217 q 339 1168 277 1168 l 488 1168 q 587 1068 527 1168 l 587 1044 q 289 547 587 794 l 214 547 l 190 671 q 413 994 413 861 q 66 1093 66 994 l 66 1168 q 115 1217 73 1217 m 637 397 q 711 323 673 397 l 711 249 q 662 -75 711 37 l 662 -99 l 686 -99 q 985 348 726 64 l 1034 348 q 1282 -50 1282 127 l 1282 -75 q 1233 -124 1282 -124 l 1183 -124 q 1034 149 1154 -124 l 1009 149 q 711 -248 743 -248 q 662 -149 662 -248 l 637 -149 q 562 -347 562 -329 l 314 -347 q 41 0 41 -347 l 41 174 l 66 348 l 140 348 q 190 298 190 340 l 190 199 q 165 174 190 174 q 190 75 190 131 q 562 149 413 149 q 637 397 582 397 m 214 -99 l 214 -149 l 389 -174 l 438 -174 q 513 -24 513 -149 l 214 -99 z "},"갓":{"ha":1263,"x_min":41,"x_max":1209,"o":"m 886 1019 l 911 1019 q 985 870 985 994 l 985 795 l 1010 795 l 1184 821 l 1209 771 l 1209 671 l 1109 671 q 985 547 985 671 q 936 497 985 497 l 886 497 q 836 547 836 497 l 836 646 q 861 671 836 671 l 836 721 l 836 771 q 861 795 836 795 l 836 846 l 836 970 q 886 1019 844 1019 m 538 994 q 612 970 586 970 l 612 497 q 563 448 612 448 l 538 448 q 463 572 481 448 q 488 846 488 742 q 463 870 463 846 q 90 821 148 821 l 41 895 q 538 994 41 970 m 836 348 l 861 348 q 1159 -149 978 348 l 1060 -174 q 861 174 985 -99 l 836 174 q 538 -248 658 44 l 488 -248 q 438 -199 438 -248 l 438 -174 q 836 348 494 108 z "},"갔":{"ha":1189,"x_min":41,"x_max":1135,"o":"m 836 1044 l 861 1044 q 936 821 911 1044 l 1060 795 l 1060 671 q 911 497 911 671 l 861 473 q 787 497 813 497 l 787 994 q 836 1044 794 1044 m 563 970 q 587 895 587 922 q 463 473 547 473 l 438 473 q 389 547 389 473 q 438 846 438 821 l 414 846 l 66 821 l 41 870 l 41 895 q 563 970 41 970 m 911 373 l 936 373 q 1135 -24 1135 205 l 1060 -75 q 936 174 936 -31 q 736 -99 900 174 l 712 -99 l 513 125 q 364 -99 389 -99 l 339 -99 q 290 -50 290 -99 q 563 273 359 273 q 687 149 687 216 l 712 149 q 911 373 724 149 z "},"강":{"ha":1213,"x_min":41,"x_max":1159,"o":"m 861 945 l 886 945 q 960 870 922 945 l 960 746 l 1084 746 q 1159 671 1120 746 l 1159 646 q 1109 597 1159 597 l 985 597 q 911 422 985 437 l 886 422 q 811 920 811 422 l 861 945 m 587 920 q 637 597 637 808 l 637 422 q 587 373 637 373 l 563 373 q 488 448 527 373 l 488 795 q 41 771 142 771 l 41 846 q 587 920 408 920 m 712 273 l 811 273 q 985 -24 985 165 q 612 -348 985 -263 q 438 -24 496 -348 q 712 273 516 273 m 563 -124 q 637 -224 600 -224 q 836 -24 718 -224 q 687 149 836 149 q 563 -124 563 101 z "},"갖":{"ha":1213,"x_min":41,"x_max":1159,"o":"m 587 920 l 637 846 l 637 497 q 563 348 637 368 l 538 348 q 488 398 488 348 l 488 795 l 463 795 q 140 746 165 746 q 41 771 96 771 l 41 895 l 140 895 q 165 870 165 895 q 587 920 302 920 m 861 895 l 911 895 l 1010 746 q 1035 721 1035 746 l 1084 746 q 1159 721 1133 721 l 1159 646 l 960 522 l 936 422 l 836 422 l 811 522 l 836 646 l 811 696 l 836 746 q 811 846 811 789 q 861 895 819 895 m 811 298 l 861 298 l 861 224 l 836 50 q 1109 -99 1109 -21 q 1035 -174 1109 -135 q 762 -99 897 -99 q 687 -273 687 -224 l 563 -273 l 563 -149 q 687 149 619 -78 l 662 149 l 513 125 l 463 125 q 414 174 414 125 l 414 249 q 811 298 696 298 z "},"갗":{"ha":1189,"x_min":41,"x_max":1135,"o":"m 762 994 l 811 994 q 886 920 847 994 l 886 771 q 1060 696 1060 754 l 1060 671 q 960 572 1060 633 l 936 572 l 861 622 q 787 473 861 492 l 712 473 q 687 547 712 499 l 736 846 q 712 970 712 886 l 762 994 m 513 970 l 612 970 q 637 895 612 943 q 389 473 570 627 l 290 473 l 290 572 q 438 821 438 737 l 414 821 q 66 771 175 771 l 41 821 l 41 870 q 513 970 41 939 m 762 422 l 787 373 l 787 298 q 587 273 690 273 l 587 249 q 811 199 762 249 l 787 75 l 787 25 q 1135 -124 1135 -41 l 1135 -149 q 1035 -199 1074 -199 q 712 -99 947 -149 q 587 -248 625 -248 l 538 -248 q 488 -199 488 -248 q 612 50 488 -112 l 612 100 l 463 100 q 414 149 414 100 l 414 224 l 438 273 l 389 273 l 389 348 q 762 422 389 422 z "},"같":{"ha":1089,"x_min":41,"x_max":1035,"o":"m 712 994 l 811 994 l 811 821 l 861 746 l 911 771 l 1035 746 l 1035 671 q 985 622 1035 622 l 836 622 q 762 448 836 448 q 687 473 713 473 l 687 547 q 662 970 687 677 l 712 994 m 90 970 l 538 970 l 538 895 q 463 448 538 806 l 364 448 q 314 497 314 448 q 389 870 389 833 l 339 846 l 66 846 l 41 945 l 90 970 m 836 348 l 836 273 l 290 224 l 290 75 q 811 125 420 125 l 836 75 l 836 25 q 787 -24 836 -24 l 736 -24 q 290 -99 290 -24 q 414 -149 370 -149 q 787 -124 726 -124 l 836 -199 l 836 -224 q 787 -273 836 -273 l 712 -273 q 314 -298 568 -273 q 140 -50 140 -298 l 140 174 q 488 348 140 348 l 836 348 z "},"갚":{"ha":1139,"x_min":41,"x_max":1084,"o":"m 787 1044 q 886 771 854 1044 q 1060 696 1060 771 l 1060 671 q 1010 622 1060 622 l 861 622 q 762 473 861 473 l 712 547 l 712 970 q 787 1044 712 1005 m 90 970 q 538 895 355 945 l 538 870 q 264 348 382 348 q 190 373 216 373 l 190 422 q 389 821 389 754 l 190 821 q 41 895 61 821 l 41 920 q 90 970 48 970 m 538 298 l 861 298 l 861 174 l 736 174 q 836 -124 773 -124 q 960 -149 878 -149 l 1060 -149 l 1084 -248 l 1035 -273 l 463 -273 q 414 -224 414 -273 q 463 125 445 93 q 364 273 364 149 l 538 298 m 587 125 l 587 -124 l 637 -124 q 612 125 612 6 l 587 125 z "},"갛":{"ha":1089,"x_min":41,"x_max":1035,"o":"m 736 1044 l 787 1044 q 861 795 847 1044 l 985 795 q 1035 746 1035 788 l 1035 671 q 861 646 960 671 l 861 522 q 811 473 861 473 l 762 473 q 712 522 712 473 l 712 721 l 687 1019 l 736 1044 m 41 920 l 290 920 q 513 870 351 920 l 513 795 q 215 373 410 557 l 140 373 q 115 448 140 399 q 314 795 314 716 l 165 795 l 41 821 l 41 920 m 563 473 l 612 473 q 687 249 662 473 l 811 273 q 911 149 911 249 l 836 100 q 811 125 811 100 l 762 100 l 438 100 l 314 125 l 314 249 l 538 249 l 538 273 l 513 448 l 563 473 m 687 -50 q 886 -273 886 -50 q 612 -448 715 -448 l 587 -448 q 414 -273 414 -448 l 414 -248 q 687 -50 414 -50 m 538 -273 l 538 -323 l 637 -323 q 712 -199 694 -323 q 687 -174 687 -199 q 538 -273 538 -224 z "},"개":{"ha":1562,"x_min":41,"x_max":1508,"o":"m 66 821 q 587 696 587 806 q 612 597 587 640 q 513 50 568 50 l 488 50 q 414 75 440 75 l 414 224 q 438 646 414 355 l 364 646 q 41 746 41 646 q 66 821 66 794 m 936 771 q 1060 497 1028 771 l 1234 522 l 1284 522 l 1284 696 q 1333 746 1291 746 l 1383 746 q 1508 174 1421 746 l 1508 149 q 1482 75 1482 101 l 1408 75 q 1308 373 1326 75 l 1184 373 q 1035 298 1035 357 l 1035 174 l 911 174 l 886 298 l 886 721 q 936 771 894 771 z "},"객":{"ha":1189,"x_min":41,"x_max":1135,"o":"m 787 994 q 886 846 886 970 l 960 846 q 1060 994 960 994 l 1084 994 l 1135 572 q 1035 448 1086 458 q 960 522 999 448 l 960 671 l 861 671 q 787 497 861 497 q 712 572 751 497 l 712 970 q 787 994 739 970 m 513 970 q 563 870 563 909 q 389 422 563 622 l 364 422 q 290 522 302 422 q 389 771 389 696 l 389 795 l 364 795 q 90 746 136 746 l 41 821 l 41 846 q 513 970 41 914 m 985 323 q 1109 -50 1109 323 l 1109 -75 q 1060 -124 1109 -124 l 1035 -124 q 936 174 960 -124 l 587 100 q 513 125 539 125 l 513 199 q 985 323 513 268 z "},"갠":{"ha":1213,"x_min":41,"x_max":1159,"o":"m 389 970 q 563 870 563 926 l 563 422 q 488 398 536 422 q 414 422 440 422 l 414 795 l 389 846 l 140 821 l 115 821 q 41 895 79 821 q 389 970 41 951 m 787 920 l 836 920 l 936 795 l 960 795 q 1010 920 960 920 l 1109 920 q 1159 473 1159 593 q 1010 373 1135 373 l 985 422 q 1010 522 985 479 q 985 646 985 564 l 911 646 q 836 473 911 487 l 811 473 q 736 547 776 473 l 736 870 q 787 920 745 920 m 563 249 l 687 249 l 712 125 l 712 50 l 1109 50 q 1159 0 1159 42 l 1159 -24 q 712 -124 1159 -124 q 538 125 555 -124 q 563 249 563 165 z "},"갤":{"ha":1164,"x_min":41,"x_max":1109,"o":"m 563 970 l 612 895 l 612 497 q 538 422 612 462 q 463 448 490 448 l 463 870 q 115 821 276 821 l 90 821 q 41 870 41 821 l 41 920 q 563 970 379 970 m 736 970 l 762 970 q 836 846 836 970 l 886 846 l 985 970 l 1010 970 l 1084 920 l 1060 821 q 1084 497 1084 609 l 1035 473 l 985 473 q 911 721 930 473 l 861 721 q 836 547 861 646 l 762 547 q 687 671 705 547 l 712 671 l 687 721 l 687 920 q 736 970 694 970 m 936 448 q 1109 249 1084 448 l 1109 174 q 563 0 1109 14 l 488 0 q 438 -75 438 0 q 463 -149 463 -123 l 886 -149 l 886 -248 q 836 -298 886 -298 l 762 -298 q 736 -273 736 -298 l 687 -298 l 637 -298 q 290 -75 290 -298 l 290 50 q 364 125 290 85 l 438 125 q 960 249 960 125 l 960 298 l 911 298 q 538 224 672 224 l 513 224 l 513 348 l 936 448 z "},"갬":{"ha":1338,"x_min":41,"x_max":1284,"o":"m 836 994 q 960 846 907 991 q 985 821 985 846 q 1084 970 1084 846 l 1159 970 q 1209 920 1209 962 l 1209 821 q 1234 473 1209 684 q 1209 373 1209 429 l 1284 373 l 1284 273 q 1234 -149 1284 50 l 1084 -149 q 736 -24 736 -132 l 736 224 q 1135 373 736 264 l 1135 398 q 1060 646 1060 398 l 1060 696 l 936 671 l 936 547 q 886 497 936 497 l 861 497 q 762 795 787 497 l 787 795 l 762 846 q 836 994 777 994 m 90 970 l 215 945 q 637 970 554 970 l 662 920 q 389 373 627 680 q 314 398 340 398 l 314 497 q 463 821 463 723 l 165 821 l 41 846 l 41 945 q 90 970 90 945 m 886 149 l 886 25 l 1010 0 l 1109 0 q 1159 224 1109 37 l 1135 224 l 886 149 z "},"갭":{"ha":1288,"x_min":41,"x_max":1234,"o":"m 389 1069 l 463 1069 q 612 846 612 1069 l 662 422 l 538 398 l 513 398 q 463 920 488 522 l 438 920 q 165 870 262 920 q 41 970 52 918 q 389 1069 41 1069 m 936 1044 q 985 870 985 987 l 1010 870 q 1109 1044 1044 1044 q 1234 522 1174 1044 q 1209 473 1234 473 l 1234 298 l 1234 -174 q 1184 -224 1234 -224 l 736 -224 q 587 224 587 -168 l 587 298 q 637 348 595 348 l 712 348 q 787 -75 736 123 l 1084 -75 l 1084 0 l 1060 0 q 861 -24 883 -24 q 787 0 813 0 l 787 75 q 1060 149 787 149 l 1084 149 l 1084 199 q 1060 422 1084 288 q 1084 497 1084 471 q 1010 696 1060 696 q 936 522 1010 522 l 911 522 q 836 671 836 547 l 836 1019 q 936 1044 848 1019 z "},"갯":{"ha":1238,"x_min":41,"x_max":1184,"o":"m 115 970 l 215 945 l 389 970 q 587 795 587 970 l 587 298 q 513 249 587 249 q 438 273 465 273 l 438 821 l 414 821 q 115 795 373 821 q 41 846 115 846 l 41 945 q 115 970 67 945 m 787 895 l 861 895 q 936 771 918 895 q 911 746 911 771 l 960 746 q 1060 895 960 895 l 1109 821 l 1109 597 q 1135 373 1109 507 q 1010 249 1109 249 l 960 323 l 960 572 l 911 572 q 861 448 911 448 l 787 448 l 762 572 l 762 771 l 787 895 m 936 249 l 985 249 q 1184 -124 1060 249 l 1135 -149 l 1084 -149 q 960 50 960 -80 l 936 50 q 762 -174 907 50 l 712 -174 q 662 -124 662 -174 q 936 249 662 72 z "},"갰":{"ha":1338,"x_min":41,"x_max":1284,"o":"m 488 1044 q 587 622 587 911 l 587 497 q 513 422 587 462 q 414 497 414 460 l 414 846 l 389 895 l 215 870 l 90 870 q 41 920 41 870 l 41 994 q 488 1044 96 994 m 762 1044 l 861 1044 q 911 945 911 1044 l 936 945 l 936 1019 l 1035 1019 q 1135 547 1103 1019 q 1010 448 1109 448 l 960 522 l 960 696 l 911 696 q 861 572 911 572 l 811 572 q 762 622 762 572 l 762 1044 m 1035 224 l 1109 224 q 1284 -24 1163 223 q 1259 -99 1259 -73 l 1184 -99 q 1084 50 1084 -50 l 1035 50 q 936 -174 936 -141 q 762 25 762 -174 l 736 25 l 563 -124 l 513 -124 q 463 -75 463 -124 l 463 -24 q 662 174 463 7 l 836 174 q 911 100 836 100 q 1035 224 911 133 z "},"갱":{"ha":1164,"x_min":41,"x_max":1109,"o":"m 787 1119 q 936 945 828 1119 q 1010 1069 936 1069 q 1084 1044 1059 1044 l 1084 920 q 1109 572 1084 783 q 1084 497 1084 524 l 1010 497 q 911 821 949 497 l 886 821 q 811 671 886 671 q 712 945 712 671 l 712 1044 q 787 1119 712 1080 m 314 1019 l 488 1019 q 563 696 563 1019 l 563 547 l 463 547 l 389 597 l 414 721 l 414 846 q 364 895 414 895 l 190 895 l 66 870 l 41 920 l 41 945 q 314 1019 41 1019 m 736 323 q 1035 125 903 323 l 1035 25 q 762 -174 894 -174 q 513 0 602 -174 l 538 50 l 513 100 q 736 323 563 323 m 662 149 l 662 25 q 712 -24 670 -24 l 787 -24 q 861 100 829 -24 q 762 174 762 149 q 662 149 718 149 z "},"갸":{"ha":1487,"x_min":41,"x_max":1433,"o":"m 140 846 q 587 597 587 804 l 587 199 l 563 75 l 463 75 q 389 174 426 75 l 438 422 q 414 497 414 471 l 438 547 q 41 696 438 665 l 41 821 q 140 846 96 821 m 911 846 l 960 846 q 1035 671 1019 846 l 1209 671 q 1308 696 1265 671 q 1408 671 1352 671 l 1408 597 q 1109 497 1408 535 l 1109 473 q 1433 323 1433 446 l 1433 298 l 1383 273 l 1060 323 l 1060 125 q 985 100 1034 125 q 861 821 861 100 l 911 846 z "},"갹":{"ha":1164,"x_min":41,"x_max":1109,"o":"m 140 945 q 538 795 538 945 q 563 473 563 632 l 563 422 q 488 348 563 387 l 463 348 q 389 422 427 348 l 389 597 q 239 795 389 795 q 41 870 41 795 q 140 945 41 907 m 687 920 l 762 920 q 811 821 811 920 l 1060 821 q 1109 771 1109 812 l 1109 746 q 1035 671 1109 710 l 861 671 l 861 572 l 1010 572 q 1060 522 1060 564 l 1060 448 q 836 298 836 448 l 762 298 q 687 373 726 298 l 687 473 q 637 895 687 696 l 687 920 m 736 125 l 762 125 q 960 -199 960 125 l 911 -224 l 861 -224 q 736 0 816 -224 q 538 -50 578 -50 q 463 -24 490 -24 l 463 50 q 736 125 463 125 z "},"갼":{"ha":1238,"x_min":41,"x_max":1184,"o":"m 41 945 l 339 920 l 438 920 q 563 298 507 920 l 488 249 q 389 373 389 300 q 339 821 389 670 l 215 795 l 41 846 l 41 945 m 787 920 l 836 920 q 911 795 893 920 q 886 771 886 795 l 1135 771 q 1184 721 1184 763 l 1184 696 q 1109 622 1184 661 l 936 622 l 936 547 l 1035 547 l 1159 522 l 1159 448 q 1109 398 1159 398 l 960 398 q 836 249 960 249 q 787 348 787 309 q 736 895 787 513 l 787 920 m 538 100 q 662 -124 612 100 l 1060 -124 q 1109 -174 1109 -132 l 1109 -248 l 936 -273 l 662 -273 q 463 75 463 -273 q 538 100 511 100 z "},"걀":{"ha":1213,"x_min":41,"x_max":1159,"o":"m 736 1019 l 762 1019 l 861 945 l 1084 945 q 1159 870 1120 945 l 1159 821 q 861 795 1082 795 q 1084 696 861 757 l 1109 646 q 1035 572 1109 611 l 960 572 l 911 597 q 836 422 911 437 l 787 422 q 687 945 736 422 l 687 970 q 736 1019 694 1019 m 90 945 l 140 945 q 165 920 165 945 l 215 945 l 264 920 l 414 945 q 538 895 494 895 q 563 522 563 647 l 563 323 l 463 323 q 389 473 389 348 l 389 771 l 239 771 q 41 846 56 771 l 41 895 q 90 945 48 945 m 762 298 q 936 0 911 298 q 438 -174 936 -99 q 414 -199 414 -174 q 463 -248 421 -248 l 488 -248 q 762 -224 591 -248 q 836 -248 810 -248 l 836 -323 q 762 -397 836 -359 q 736 -373 736 -397 l 612 -397 l 463 -397 q 239 -174 239 -366 q 736 25 239 -24 l 762 75 l 762 125 l 463 100 l 438 149 l 438 199 q 762 298 438 249 z "},"걋":{"ha":1213,"x_min":41,"x_max":1159,"o":"m 787 1094 q 911 870 892 1094 q 1010 895 923 870 q 1159 821 1159 870 l 1159 795 q 936 721 1159 721 l 960 671 l 1084 696 q 1159 572 1141 696 q 1010 522 1078 522 l 936 522 q 836 373 936 373 l 811 373 q 762 448 787 448 l 787 572 l 787 646 q 712 1069 787 747 q 787 1094 739 1069 m 115 1044 l 339 1044 q 538 696 538 1044 q 563 448 538 534 q 538 373 538 399 l 463 373 q 389 448 427 373 l 389 721 q 239 920 389 920 q 41 970 41 920 q 115 1044 41 1005 m 861 224 l 886 224 q 1135 -75 932 224 l 1135 -124 q 1084 -174 1135 -174 l 1035 -174 q 886 50 886 -68 l 787 50 q 637 -124 787 0 l 538 -124 l 538 -24 q 861 224 728 224 z "},"걍":{"ha":1413,"x_min":41,"x_max":1358,"o":"m 936 1069 q 1010 920 1010 972 l 1109 920 l 1234 895 l 1234 795 q 1035 771 1137 771 l 1060 721 q 1135 746 1108 746 q 1358 646 1358 721 q 1284 572 1358 611 l 1035 572 q 886 348 1035 348 l 836 448 q 886 646 886 538 l 886 771 l 836 771 l 836 795 q 861 895 836 852 q 811 1044 811 977 l 936 1069 m 488 970 q 687 422 687 970 l 687 348 l 563 323 l 513 398 l 513 646 q 463 821 513 821 q 140 771 364 821 q 41 846 41 808 l 41 920 l 488 970 m 787 224 l 886 224 q 1109 -24 1076 224 q 911 -149 1109 -77 q 762 -224 886 -224 l 637 -224 q 513 -99 604 -224 l 513 0 q 787 224 513 224 m 662 -75 q 762 -99 706 -99 q 911 75 856 -77 l 736 75 q 662 -75 662 75 z "},"걔":{"ha":1636,"x_min":41,"x_max":1582,"o":"m 936 1194 q 1060 870 1035 1194 l 1433 870 l 1433 1019 q 1482 1143 1439 1143 q 1582 1019 1582 1119 q 1532 398 1532 496 l 1557 224 l 1482 174 l 1457 174 q 1408 224 1408 174 l 1408 522 q 1010 473 1147 473 l 1010 224 q 960 174 1010 174 l 936 174 q 861 398 886 174 q 936 1194 911 1194 m 41 1119 l 66 1119 q 637 970 604 1033 l 662 821 l 587 199 l 488 199 l 463 323 q 513 870 463 444 q 41 1094 41 870 l 41 1119 m 1035 696 l 1035 671 l 1135 671 l 1135 696 l 1035 696 z "},"걘":{"ha":1537,"x_min":41,"x_max":1482,"o":"m 911 1143 l 1035 1044 q 1308 1119 1206 1046 l 1333 1119 q 1408 1044 1369 1119 l 1408 970 q 1433 547 1408 839 l 1383 522 l 1333 522 q 1234 721 1268 522 l 1084 721 l 985 646 l 936 646 q 811 1094 880 646 q 911 1143 872 1143 m 90 970 l 463 970 q 637 622 637 970 l 662 273 l 587 224 q 488 323 488 249 q 414 846 488 846 l 389 846 q 90 821 349 846 l 41 895 l 41 920 q 90 970 48 970 m 1109 870 l 1184 870 l 1184 920 l 1159 920 q 1109 870 1109 912 m 936 348 q 1035 199 1035 323 l 1035 100 q 1457 149 1259 149 l 1482 100 l 1482 50 q 985 -50 1482 -19 q 861 125 861 -15 l 861 199 q 936 348 877 348 z "},"걜":{"ha":1362,"x_min":41,"x_max":1308,"o":"m 811 1168 l 836 1168 q 911 1044 911 1168 l 1109 1044 q 1184 1143 1122 1143 q 1284 1019 1284 1119 l 1259 920 l 1308 696 q 1159 597 1284 597 q 1084 746 1126 746 l 911 746 l 911 497 l 886 448 l 936 448 l 1109 473 q 1308 199 1308 446 l 1308 149 q 787 -124 1308 -124 l 787 -199 q 861 -224 813 -199 q 1084 -199 996 -199 l 1159 -199 q 1209 -248 1209 -206 l 1209 -323 l 886 -373 q 637 -124 637 -373 q 861 25 637 -6 l 861 0 q 1159 149 1159 64 l 1159 174 q 1109 323 1159 241 q 787 273 848 273 q 712 323 787 323 q 787 448 744 448 l 762 572 l 762 994 l 736 1119 l 811 1168 m 513 970 q 538 547 538 677 l 538 522 q 414 448 538 465 l 364 522 l 364 821 q 140 795 275 821 q 41 870 41 833 q 513 970 41 970 z "},"거":{"ha":1313,"x_min":41,"x_max":1259,"o":"m 488 746 q 662 448 662 746 l 1035 522 q 1084 671 1035 671 q 1209 522 1156 668 q 1259 473 1259 515 l 1259 398 l 1209 398 l 1209 348 l 1234 100 l 1184 75 l 1135 75 q 1060 149 1099 75 l 1060 373 q 662 298 934 373 l 662 100 l 687 -75 l 612 -124 l 587 -124 q 488 0 536 -113 l 513 50 q 488 149 488 94 q 513 174 488 174 l 488 224 q 513 249 488 249 l 488 422 l 488 597 l 414 597 q 90 547 314 597 l 41 622 q 488 746 41 721 z "},"걱":{"ha":1164,"x_min":41,"x_max":1109,"o":"m 985 1019 q 1084 870 1084 994 l 1084 646 l 1109 497 q 1035 398 1072 398 l 985 398 q 936 448 936 398 l 936 721 l 911 721 q 563 646 853 721 l 563 398 l 463 398 q 389 622 404 398 l 414 622 q 389 846 389 638 q 115 795 292 795 l 90 795 q 41 870 41 795 q 66 945 66 918 l 513 994 q 587 821 555 821 q 960 1019 960 867 l 985 1019 m 886 273 q 1060 -149 1060 273 l 1060 -298 l 960 -298 q 886 -149 886 -273 l 886 100 q 612 75 666 75 l 563 149 l 563 174 q 886 273 563 249 z "},"건":{"ha":1238,"x_min":41,"x_max":1184,"o":"m 612 994 q 736 920 736 962 l 736 771 l 762 771 q 1010 945 1010 771 l 1109 945 q 1184 771 1151 945 l 1159 622 l 1159 497 l 1184 323 l 1109 273 l 1060 273 q 1010 323 1010 273 l 1010 473 l 985 646 q 736 572 864 646 l 762 398 l 762 348 l 637 323 q 563 721 595 390 l 587 771 q 563 846 563 819 q 115 771 213 771 q 41 846 79 771 q 612 994 41 926 m 513 149 l 612 149 q 662 75 662 149 l 637 -50 l 687 -75 l 1159 -75 q 1184 -174 1184 -118 q 712 -248 825 -248 l 662 -248 q 488 -50 488 -248 l 488 25 l 513 149 z "},"걷":{"ha":1114,"x_min":41,"x_max":1060,"o":"m 513 1094 l 513 1069 l 563 1094 q 687 870 614 1094 q 836 945 836 895 q 811 1044 811 988 l 886 1094 l 911 1094 q 1010 870 975 1094 q 1035 846 1035 870 l 1010 795 q 1060 448 1060 608 l 960 398 q 886 422 912 422 l 886 572 l 861 746 q 612 696 677 696 l 612 448 l 513 422 l 463 497 l 463 746 l 488 920 l 438 920 q 140 846 351 920 q 41 994 41 870 q 513 1094 174 1044 m 936 323 l 960 199 q 463 25 463 78 l 463 -124 q 563 -149 563 -124 l 612 -124 q 637 -149 637 -124 q 960 -99 675 -124 l 1010 -174 l 1010 -224 q 538 -298 1010 -298 q 314 -99 314 -298 l 314 0 q 364 224 314 62 l 389 224 q 936 323 542 224 z "},"걸":{"ha":1089,"x_min":41,"x_max":1035,"o":"m 861 1119 q 960 994 960 1067 q 936 970 960 970 q 985 572 985 764 l 911 522 l 886 522 q 811 597 850 522 l 811 771 l 787 771 q 513 646 513 771 l 513 422 l 538 422 q 811 448 641 422 q 1035 174 1035 390 q 687 -124 1035 -81 q 389 -224 389 -124 q 414 -298 414 -272 q 836 -224 637 -298 q 936 -348 936 -248 q 488 -448 886 -397 q 239 -174 239 -448 l 239 -75 q 811 50 444 -5 q 861 199 861 132 l 861 224 l 811 298 q 463 249 593 249 l 339 422 q 364 895 364 694 l 314 870 q 41 994 41 870 l 41 1019 l 165 1044 l 488 1044 q 538 895 538 1044 q 787 1019 787 895 q 861 1119 799 1119 z "},"걺":{"ha":1512,"x_min":41,"x_max":1457,"o":"m 1084 1119 q 1159 1044 1120 1119 l 1159 1019 l 1135 895 l 1184 870 l 1159 746 l 1159 448 q 1084 373 1159 412 l 1035 373 q 985 422 985 373 l 985 746 l 960 746 q 662 696 686 696 l 662 422 q 587 348 662 387 l 563 348 q 488 422 527 348 q 513 895 513 694 l 513 945 q 66 920 167 920 l 41 970 l 41 994 q 115 1069 41 1030 l 662 1069 l 662 846 q 1010 1019 1010 846 q 1084 1119 1023 1119 m 587 224 l 662 224 q 836 50 836 224 l 836 -75 q 488 -273 836 -181 l 488 -323 l 513 -323 q 811 -273 639 -323 l 836 -397 l 712 -472 q 687 -448 687 -472 l 587 -472 q 314 -298 314 -472 q 612 -99 314 -157 q 687 50 687 -35 l 687 75 q 414 50 467 50 l 389 100 l 389 149 q 587 224 404 224 m 1333 100 l 1383 100 q 1457 0 1420 100 q 1358 -397 1457 -43 l 1159 -397 q 911 -99 911 -397 l 911 -50 l 936 75 l 1035 75 q 1060 50 1060 75 q 1333 100 1157 100 m 1060 -75 l 1084 -248 l 1234 -248 q 1284 -24 1234 -230 q 1060 -75 1168 -75 z "},"검":{"ha":1413,"x_min":41,"x_max":1358,"o":"m 1234 1019 q 1308 945 1270 1019 q 1284 746 1308 882 q 1358 100 1303 326 l 1333 100 q 1358 75 1333 75 q 1308 -224 1308 -98 q 1234 -248 1282 -224 q 1159 -224 1207 -248 q 936 -248 1025 -248 l 861 -248 q 787 -50 802 -248 q 886 199 817 199 l 985 174 q 1184 249 1125 249 l 1159 298 l 1159 422 l 1135 671 q 612 572 1080 671 l 612 422 l 587 249 l 463 249 l 438 348 q 463 795 463 694 l 438 795 q 115 721 168 721 l 41 721 l 41 821 q 587 970 41 906 q 612 746 612 954 q 1159 870 1159 831 q 1234 1019 1159 1019 m 936 -75 l 1184 -75 q 1209 75 1184 37 q 1184 100 1184 75 q 960 -24 960 25 l 936 -75 z "},"겁":{"ha":1362,"x_min":41,"x_max":1308,"o":"m 1159 1069 l 1259 1069 l 1284 945 l 1284 746 q 1259 721 1284 721 l 1308 422 q 1184 323 1299 356 q 1109 746 1109 504 l 1035 746 l 687 671 q 662 696 687 696 l 637 522 l 637 323 q 587 273 637 273 l 513 273 q 463 348 463 273 q 513 895 513 823 l 438 895 q 90 821 414 895 l 41 895 l 41 920 q 488 1044 100 1044 l 612 1044 q 662 846 662 927 q 1109 970 1109 876 q 1159 1069 1109 1069 m 712 298 l 762 298 q 811 249 811 291 l 811 75 q 787 50 811 50 q 936 -99 787 -75 l 985 -75 l 1035 -99 l 1035 224 q 1109 298 1035 260 q 1209 125 1175 298 l 1184 125 l 1209 75 l 1209 -174 q 1084 -448 1209 -448 q 836 -497 1025 -472 q 637 125 637 -497 q 712 298 662 298 m 836 -248 l 836 -323 q 911 -348 863 -323 q 1035 -273 1035 -316 l 1035 -248 l 836 -248 z "},"것":{"ha":1338,"x_min":41,"x_max":1284,"o":"m 1035 994 q 1109 671 1084 945 l 1135 671 l 1109 547 q 1135 174 1135 299 l 1035 174 q 936 547 977 174 l 911 547 q 563 448 563 547 q 488 174 563 174 l 463 174 q 389 249 427 174 q 414 795 414 375 q 90 771 106 771 l 41 846 l 41 920 q 538 945 376 945 q 612 870 574 945 l 612 671 l 936 721 l 936 970 q 1035 994 948 970 m 861 75 l 911 75 q 1284 -323 1060 75 l 1284 -422 l 1259 -422 q 936 -99 1129 -422 l 911 -99 q 662 -348 886 -99 l 612 -348 q 563 -298 563 -348 l 563 -224 q 861 75 819 75 z "},"겄":{"ha":1611,"x_min":41,"x_max":1557,"o":"m 1135 1044 l 1234 1044 q 1259 994 1234 994 l 1234 821 l 1234 646 q 1284 249 1234 532 l 1209 199 q 1060 622 1060 199 l 1035 622 q 687 522 687 622 q 612 298 687 298 l 587 298 q 513 373 552 298 l 513 846 l 463 846 q 115 721 336 846 q 41 746 67 746 l 41 795 q 612 994 215 994 l 687 994 l 687 746 l 985 771 l 1060 771 l 1084 870 l 1060 920 q 1135 1044 1092 1044 m 911 125 q 1060 -50 1060 56 q 1284 125 1249 125 q 1557 -174 1417 78 q 1457 -248 1557 -248 q 1284 -75 1412 -248 q 1084 -323 1251 -75 l 1060 -323 q 886 -50 993 -323 l 861 -50 q 612 -298 795 -50 l 538 -298 q 488 -248 488 -298 q 911 125 675 125 z "},"겅":{"ha":1189,"x_min":41,"x_max":1135,"o":"m 90 1019 l 463 1019 q 538 746 519 1019 l 911 795 l 886 920 l 886 994 l 1035 994 q 1135 448 1135 570 l 1109 323 l 1084 323 l 960 348 l 960 448 q 911 622 960 622 q 538 597 598 597 l 538 448 l 513 323 l 438 323 q 364 473 364 348 l 364 846 q 314 895 364 895 q 115 870 178 870 q 41 895 67 895 l 41 970 q 90 1019 48 1019 m 787 199 l 886 199 q 1060 -75 1060 77 q 861 -298 1019 -76 l 811 -323 l 787 -323 q 513 -75 602 -323 q 787 199 563 199 m 687 -24 l 687 -149 l 787 -174 l 861 -75 l 861 0 l 836 50 q 687 -24 687 17 z "},"겆":{"ha":1338,"x_min":41,"x_max":1284,"o":"m 612 920 l 637 870 l 637 696 l 936 721 l 936 870 q 985 920 943 920 l 1035 920 q 1184 323 1073 920 q 1109 224 1147 224 l 1035 224 q 985 273 985 224 l 1010 323 q 936 572 975 572 q 637 522 835 572 l 662 373 q 637 298 637 325 l 612 298 l 488 323 q 463 696 463 572 l 463 771 l 66 721 l 41 771 l 41 821 q 612 920 41 886 m 538 174 q 985 75 985 149 l 960 -99 q 1284 -348 973 -99 q 1184 -422 1284 -422 q 886 -248 1036 -349 q 662 -522 696 -522 q 587 -497 614 -497 l 587 -397 q 811 0 811 -12 q 787 25 787 0 l 736 0 l 612 0 l 488 25 l 488 149 q 538 174 538 149 z "},"겉":{"ha":1164,"x_min":41,"x_max":1109,"o":"m 960 1069 l 1109 547 q 960 448 1084 448 l 936 448 q 861 646 911 646 q 513 473 513 646 q 438 298 488 298 l 364 298 q 314 348 314 298 q 414 821 389 758 q 389 846 389 821 l 140 821 l 115 821 q 41 895 79 821 l 41 920 q 115 994 41 956 l 264 970 q 513 994 395 994 q 587 945 513 945 l 587 771 l 612 771 q 861 821 717 771 l 811 970 q 960 1069 836 1069 m 1035 298 l 1060 249 q 438 75 1060 149 l 438 0 q 811 25 686 25 l 861 25 q 911 -24 911 17 l 911 -75 q 438 -174 911 -115 l 438 -224 q 488 -273 446 -273 q 861 -199 736 -248 q 960 -298 960 -224 q 563 -422 918 -422 l 463 -422 q 264 0 264 -422 q 463 249 264 249 q 1035 323 635 249 l 1035 298 z "},"겊":{"ha":1313,"x_min":41,"x_max":1259,"o":"m 1109 994 l 1159 994 q 1209 945 1209 987 l 1184 771 q 1259 696 1220 771 q 1209 572 1209 615 l 1234 348 l 1135 273 l 1084 273 l 1035 298 q 1060 448 1035 317 l 1035 622 q 637 473 637 556 q 587 273 637 273 l 538 273 q 463 348 502 273 l 463 795 l 438 795 q 41 746 416 795 l 41 870 q 513 920 239 920 q 612 771 612 895 l 612 696 l 637 696 q 1035 746 1013 746 l 1035 920 q 1109 994 1035 956 m 1135 224 q 1234 149 1234 186 l 1234 125 q 985 25 1234 56 l 1109 -298 l 1159 -273 l 1184 -273 q 1259 -348 1220 -273 l 1259 -448 q 687 -497 1154 -472 q 587 -422 587 -460 l 587 -373 q 712 -323 587 -323 l 687 -273 l 687 25 l 563 25 q 488 100 527 25 l 488 149 q 538 199 496 199 q 787 174 755 174 q 1135 224 878 174 m 836 -124 l 836 -149 l 861 -323 l 911 -323 q 886 -124 886 -186 l 836 -124 z "},"겋":{"ha":1263,"x_min":41,"x_max":1209,"o":"m 985 1044 q 1159 398 1091 1044 q 762 224 1019 224 l 762 199 l 836 199 q 1184 224 991 224 l 1209 174 l 1209 125 q 1109 50 1209 50 q 687 25 979 50 q 563 149 563 67 l 612 249 q 414 373 414 331 l 488 821 q 90 771 205 771 q 41 895 41 852 q 587 970 121 970 q 662 945 635 945 l 662 771 q 936 895 936 795 l 911 945 q 985 1044 948 1044 m 587 422 l 836 398 l 861 398 l 985 422 l 960 646 q 612 497 612 646 q 587 422 587 449 m 836 -124 l 936 -124 q 1184 -348 1184 -180 q 836 -572 923 -572 l 762 -572 q 538 -373 563 -572 q 836 -124 538 -201 m 687 -397 l 687 -422 q 836 -448 706 -422 q 985 -323 936 -323 l 985 -298 l 861 -298 q 687 -397 728 -298 z "},"게":{"ha":1562,"x_min":41,"x_max":1508,"o":"m 414 721 l 513 721 q 612 422 576 721 q 1010 473 895 473 l 1084 473 l 1084 646 l 1209 646 q 1259 597 1259 639 l 1259 348 l 1284 100 l 1209 50 l 1184 50 q 1084 323 1103 50 l 985 323 q 637 249 829 323 q 687 -99 637 88 q 587 -149 627 -149 q 438 522 462 -149 q 389 597 404 597 l 66 547 l 41 597 l 41 622 q 414 721 41 721 m 1333 572 l 1383 572 q 1508 -24 1508 528 q 1433 -50 1459 -50 q 1308 398 1308 -50 q 1284 547 1284 398 l 1333 572 z "},"겐":{"ha":1537,"x_min":41,"x_max":1482,"o":"m 115 1019 l 140 1019 q 165 994 165 1019 l 215 1019 l 538 1019 q 662 821 662 956 l 662 746 q 1060 795 933 795 q 1035 895 1060 852 q 1060 970 1060 943 l 1159 970 q 1234 895 1179 970 l 1284 920 q 1408 721 1408 920 l 1482 348 l 1433 323 l 1284 323 l 1284 473 l 1159 448 q 1035 646 1118 448 q 637 547 637 613 q 612 298 637 385 l 513 298 l 438 348 q 488 870 488 752 q 463 895 463 870 q 90 846 191 846 l 41 920 l 41 945 q 115 1019 41 981 m 787 174 l 836 174 q 911 100 872 174 l 911 -75 l 936 -75 q 1383 0 1144 -75 q 1482 -75 1482 -37 l 1482 -124 q 886 -248 1482 -186 q 736 25 768 -248 l 736 125 q 787 174 745 174 z "},"겔":{"ha":1462,"x_min":41,"x_max":1408,"o":"m 1284 1143 q 1383 1069 1383 1106 l 1383 895 l 1408 646 l 1333 597 l 1259 597 q 1209 671 1209 597 q 1234 696 1209 696 l 1209 821 l 1209 1119 q 1284 1143 1236 1119 m 1035 1069 l 1109 1069 l 1184 1019 l 1159 846 l 1159 646 l 1060 622 q 960 721 1060 661 l 538 646 l 538 597 q 463 398 538 414 l 414 398 l 339 448 q 389 821 389 661 l 364 821 l 66 795 l 41 846 l 41 895 q 488 994 41 970 q 612 846 578 994 q 985 870 673 846 l 985 1019 q 1035 1069 993 1069 m 1035 373 l 1060 373 q 1308 224 1207 373 l 1308 0 q 736 -199 1308 -118 l 736 -224 q 787 -273 745 -273 l 936 -273 l 1234 -248 l 1284 -323 q 1209 -422 1246 -422 q 1184 -397 1184 -422 l 1010 -422 l 787 -422 q 563 -199 563 -390 q 861 -24 563 -24 q 1159 149 1159 -24 q 1109 224 1135 224 q 762 174 1031 224 l 687 273 q 1035 373 687 373 z "},"겜":{"ha":1611,"x_min":41,"x_max":1557,"o":"m 1184 1119 q 1259 1069 1259 1094 q 1308 547 1259 988 l 1259 522 l 1209 522 q 1109 746 1151 522 q 587 522 587 746 q 513 323 587 323 l 488 323 q 414 422 426 323 q 463 821 414 560 q 66 721 362 821 l 41 771 l 41 821 q 538 970 41 909 q 612 821 612 970 l 1084 895 l 1084 1044 q 1184 1119 1084 1106 m 1358 1044 l 1457 1044 q 1508 970 1508 1044 q 1557 373 1508 867 q 1482 348 1509 348 q 1358 821 1358 348 q 1333 970 1333 821 q 1358 1044 1358 1018 m 1383 298 q 1457 224 1419 298 q 1333 -273 1457 9 q 911 -24 911 -273 l 911 100 q 1035 273 911 239 l 1084 249 q 1383 298 1257 298 m 1084 100 l 1084 -75 l 1209 -99 l 1234 -99 q 1284 125 1234 -62 l 1259 125 l 1084 100 z "},"겝":{"ha":1413,"x_min":41,"x_max":1358,"o":"m 488 994 q 587 746 587 860 l 637 746 q 936 920 936 746 l 936 945 l 1010 945 q 1135 448 1095 945 q 1109 373 1109 399 q 960 572 960 373 l 960 622 l 936 622 q 587 522 640 564 q 736 249 587 249 l 736 224 q 712 25 736 121 q 886 -248 712 -248 l 960 -248 l 1135 -224 l 1135 -124 l 836 -149 q 762 -75 800 -149 l 762 25 l 861 25 l 1109 50 l 1084 298 q 1184 373 1184 298 l 1109 870 q 1135 945 1135 918 l 1234 945 q 1358 298 1278 945 q 1234 199 1234 216 q 1308 -273 1284 57 q 1259 -348 1284 -348 q 886 -397 1158 -348 q 563 50 563 -397 l 563 125 l 587 249 q 438 323 438 249 l 438 572 l 414 821 q 90 746 163 746 l 41 821 q 488 994 41 994 z "},"겟":{"ha":1437,"x_min":41,"x_max":1383,"o":"m 1035 1044 q 1084 945 1084 983 q 1184 994 1145 994 q 1383 398 1290 994 q 1184 224 1383 249 q 1159 298 1159 272 q 1209 422 1209 379 l 1184 547 l 1159 547 q 1109 422 1159 422 l 1060 422 q 960 622 990 422 l 587 572 l 587 323 q 538 273 587 273 l 488 273 q 414 422 414 298 l 414 895 q 90 846 389 895 l 41 920 l 41 945 q 488 1019 41 1019 l 513 1019 q 587 945 549 1019 l 587 746 l 612 746 q 936 795 824 746 l 911 920 l 911 1019 l 1035 1044 m 1035 174 q 1358 -248 1219 174 l 1308 -273 l 1234 -273 q 1084 -24 1166 -273 l 1060 -24 q 836 -323 1028 -24 l 811 -323 q 712 -248 712 -286 q 1035 174 781 -31 z "},"겠":{"ha":1388,"x_min":41,"x_max":1333,"o":"m 1159 970 l 1184 970 q 1333 398 1247 970 q 1184 298 1308 298 l 1159 298 q 1109 422 1159 422 q 985 572 985 422 q 662 522 960 572 l 662 323 q 587 249 662 288 q 488 323 488 286 l 488 771 q 165 746 473 771 q 41 870 41 746 q 90 920 90 870 l 190 895 q 612 945 215 895 l 662 870 l 662 696 l 787 696 l 960 721 l 960 746 l 936 870 l 1159 970 m 1035 125 q 1333 -248 1244 125 l 1259 -298 q 1060 -75 1198 -298 q 836 -323 897 -323 q 687 -149 794 -323 q 488 -397 673 -149 l 463 -397 q 389 -323 427 -397 l 389 -273 q 712 25 552 25 q 861 -50 769 25 q 1035 125 861 -13 z "},"겡":{"ha":1437,"x_min":41,"x_max":1383,"o":"m 538 1044 q 637 970 637 1007 l 637 746 l 662 746 q 985 771 677 746 l 985 795 q 960 945 985 814 q 1060 994 1021 994 q 1135 945 1135 970 q 1209 970 1183 970 q 1333 646 1298 970 q 1383 473 1383 646 l 1383 448 q 1308 373 1383 412 l 1259 373 q 1209 473 1209 373 l 1159 448 q 1035 572 1035 448 q 985 622 1035 622 q 637 572 894 622 l 662 273 l 612 249 l 563 249 q 463 646 488 249 q 488 895 488 777 q 463 920 463 895 q 66 870 355 870 l 41 920 l 41 945 q 538 1044 41 1019 m 960 125 l 1035 125 q 1234 -75 1167 62 q 960 -422 1095 -422 q 736 -174 736 -337 l 736 -99 q 960 125 769 125 m 861 -124 l 861 -174 q 936 -248 861 -210 l 985 -248 q 1035 -124 985 -205 q 1010 -50 1010 -76 l 936 -50 q 861 -124 900 -50 z "},"겨":{"ha":1462,"x_min":41,"x_max":1408,"o":"m 513 870 q 637 622 612 870 l 662 622 q 1060 671 945 671 l 1159 671 q 1184 622 1159 622 q 637 448 1184 528 l 637 50 l 538 25 q 463 75 538 75 l 463 721 l 438 721 l 115 671 q 41 696 67 696 l 41 771 q 513 870 41 839 m 1284 746 q 1408 199 1408 746 l 1333 149 l 1308 149 q 1209 298 1209 190 l 787 249 l 712 348 l 712 373 l 762 448 l 861 422 l 1209 448 l 1209 547 l 1184 597 l 1209 597 l 1184 646 q 1284 746 1209 746 z "},"격":{"ha":1338,"x_min":41,"x_max":1284,"o":"m 66 1069 l 339 1069 q 538 994 522 1069 l 836 1019 l 1060 1019 l 1135 1069 l 1184 1069 q 1259 970 1259 1069 q 1284 497 1284 574 l 1209 448 l 1135 448 q 1084 497 1084 448 l 1109 671 l 1084 671 l 936 646 l 736 646 q 662 721 701 646 l 662 746 q 736 821 662 766 l 836 795 l 1084 821 l 1084 870 l 1035 846 l 662 846 q 538 348 597 846 l 488 348 q 389 473 437 359 q 438 895 438 760 l 389 920 l 90 895 q 41 994 41 956 q 66 1069 66 1042 m 1035 273 q 1284 -174 1213 273 l 1284 -199 l 1234 -224 q 1035 100 1059 -224 l 662 100 q 612 125 662 125 l 612 174 q 1035 273 612 273 z "},"겪":{"ha":1512,"x_min":41,"x_max":1457,"o":"m 1259 1143 l 1308 1069 l 1308 945 q 1383 473 1308 806 q 1308 398 1383 437 l 1234 398 l 1184 422 q 1209 497 1184 449 q 1184 696 1184 634 l 762 696 q 687 771 726 696 q 762 846 687 806 l 911 846 q 936 821 936 846 l 985 846 l 1159 846 l 1159 870 q 1109 920 1159 920 l 960 895 q 936 920 936 895 l 811 895 l 637 895 l 637 870 l 662 572 l 637 522 q 662 422 662 479 l 662 398 q 612 348 662 348 l 538 348 q 488 398 488 348 l 488 746 q 389 945 488 930 q 115 895 168 920 q 41 920 67 920 l 41 1019 l 314 1069 l 314 1044 l 364 1069 q 587 1019 401 1069 q 1135 1044 917 1044 q 1259 1143 1159 1143 m 1259 149 q 1457 -124 1433 149 l 1457 -273 q 1408 -323 1457 -323 l 1358 -323 q 1259 0 1284 -323 l 1184 0 q 1035 -75 1035 -16 l 1035 -348 l 911 -373 q 861 -323 861 -373 l 861 -248 l 886 0 q 563 -50 687 -50 l 538 0 l 538 50 q 1259 149 538 118 z "},"견":{"ha":1388,"x_min":41,"x_max":1333,"o":"m 389 970 l 488 970 q 538 846 488 926 q 1109 945 1087 901 l 1135 945 q 1259 273 1222 945 l 1159 249 q 1084 273 1111 273 l 1084 348 q 1035 547 1084 456 l 911 522 l 836 522 q 612 671 612 522 l 612 696 l 538 696 l 538 422 l 563 298 l 513 273 l 438 273 q 364 422 364 298 l 364 821 l 66 795 l 41 846 l 41 920 q 389 970 228 970 m 736 721 l 736 696 l 1060 696 l 1060 746 l 1035 746 l 736 721 m 762 125 q 861 25 843 100 q 811 -174 811 -66 q 1234 -75 862 -174 q 1333 -149 1333 -112 l 1333 -174 q 811 -323 1333 -248 q 662 -224 712 -323 l 662 -99 q 762 125 662 91 z "},"겯":{"ha":1288,"x_min":41,"x_max":1234,"o":"m 1060 1119 l 1084 1119 q 1159 1044 1120 1119 l 1159 895 q 1234 398 1159 510 q 1209 323 1209 350 l 1109 323 q 1010 671 1045 323 l 563 597 q 538 622 563 622 q 513 572 538 572 l 538 448 l 513 348 q 364 422 384 348 l 364 671 l 339 846 l 90 821 q 41 870 41 821 l 41 920 q 140 970 79 920 l 364 970 l 513 945 q 1010 1069 692 1015 q 1060 1119 1018 1119 m 513 821 l 513 795 l 538 746 l 936 795 q 1010 771 984 771 l 1010 895 l 911 895 q 513 821 785 895 m 960 149 q 1035 125 1008 125 l 1035 100 q 587 -50 1035 16 q 612 -174 612 -91 q 1060 -149 959 -149 q 1109 -248 1109 -210 q 1084 -323 1084 -296 l 936 -298 q 687 -348 732 -323 q 438 50 438 -348 l 513 100 l 612 100 q 960 149 696 100 z "},"결":{"ha":1238,"x_min":41,"x_max":1184,"o":"m 90 1143 l 215 1119 l 463 1119 q 513 1044 513 1119 q 587 1119 549 1044 l 712 1094 l 911 1094 l 985 1143 l 1035 1143 q 1184 696 1090 1143 q 1035 597 1159 597 l 1010 597 q 985 671 1010 623 q 1010 746 1010 720 q 687 646 915 646 l 538 646 l 563 473 q 538 448 538 473 l 563 448 l 811 473 q 1109 199 1109 404 q 339 0 1109 0 l 314 -50 l 314 -75 l 438 -99 l 463 -99 q 836 -75 588 -99 l 861 -199 q 463 -273 861 -256 q 140 -24 140 -242 q 488 174 140 174 q 936 249 936 174 q 836 323 936 273 q 463 273 811 298 l 414 348 l 414 398 l 438 448 q 389 497 389 448 l 389 671 l 364 920 q 389 945 389 920 l 339 970 l 90 970 q 41 1019 41 970 l 41 1069 l 90 1143 m 538 970 l 538 821 l 712 821 l 960 846 l 960 945 l 587 945 l 538 970 z "},"겸":{"ha":1338,"x_min":41,"x_max":1284,"o":"m 488 1168 q 612 1044 520 1168 l 712 1044 q 1060 1119 968 1044 l 1109 1119 q 1259 497 1172 1119 q 1184 398 1221 398 l 1109 398 l 1060 422 l 1084 522 q 1060 721 1060 659 q 736 671 836 671 l 612 671 l 612 721 l 587 721 l 563 473 l 563 373 l 463 373 q 389 473 426 373 q 414 945 414 745 l 414 1019 q 115 970 288 1019 q 41 994 67 994 l 41 1069 q 488 1168 41 1143 m 687 895 l 587 895 l 587 795 l 637 821 l 712 821 l 1010 846 l 1010 945 q 687 895 899 895 m 1060 373 q 1284 224 1284 311 q 1035 -174 1125 -174 q 587 50 587 -99 l 587 174 q 1060 373 587 227 m 762 125 l 762 50 q 985 0 923 0 q 1084 199 1084 141 q 1060 224 1060 199 q 762 125 817 125 z "},"겹":{"ha":1213,"x_min":41,"x_max":1159,"o":"m 936 1218 l 1010 1218 q 1159 572 1072 1218 l 1084 522 l 1060 522 q 960 721 1030 522 q 563 671 677 671 l 563 522 q 513 473 563 473 l 463 473 q 389 597 427 473 l 414 721 l 414 994 l 389 1044 l 339 1019 l 239 1019 q 41 1094 56 1019 l 41 1168 q 90 1194 90 1168 l 215 1168 l 463 1168 q 886 1069 596 1069 l 911 1069 l 936 1218 m 563 945 l 563 846 l 762 846 l 936 870 l 936 920 l 861 920 l 563 945 m 936 497 l 1010 497 q 1084 -149 1060 225 q 488 -224 1008 -224 q 364 224 364 -6 l 364 348 q 438 422 364 384 l 463 422 q 538 323 500 422 l 513 199 q 538 125 538 151 l 637 125 q 911 224 911 125 q 886 473 911 255 l 936 497 m 787 -24 l 787 -50 l 911 -50 l 911 0 l 787 -24 m 612 -50 l 612 -75 l 687 -75 l 687 -50 l 612 -50 z "},"겻":{"ha":1313,"x_min":41,"x_max":1259,"o":"m 115 1019 q 637 870 500 1019 l 911 870 q 985 994 911 994 q 1109 746 1109 957 l 1084 746 q 1159 348 1159 505 l 1159 323 q 1109 273 1159 273 l 1010 273 l 985 522 q 612 473 713 473 l 612 224 q 538 199 586 224 q 463 224 490 224 l 463 473 q 438 846 463 597 l 215 846 q 41 945 81 846 q 115 1019 41 981 m 762 696 l 612 696 l 612 646 l 936 646 l 936 721 l 762 696 m 886 100 l 1010 100 q 1259 -224 1137 41 q 1184 -323 1221 -323 l 1159 -323 q 960 -50 1131 -323 l 936 -50 q 787 -273 787 -161 l 687 -273 q 637 -199 637 -273 q 886 100 701 -26 z "},"겼":{"ha":1437,"x_min":41,"x_max":1383,"o":"m 911 1119 l 1010 1119 q 1159 448 1078 1119 q 985 348 1119 348 l 960 348 l 960 373 q 1010 522 960 441 q 985 646 985 564 q 662 597 699 622 q 587 622 614 622 l 587 572 l 612 422 q 587 348 587 374 l 563 348 l 438 373 l 438 473 q 414 572 438 528 q 438 646 438 620 q 339 945 420 945 q 140 920 162 920 q 41 1044 41 945 l 90 1069 l 463 1069 q 587 994 545 994 q 886 1019 846 1019 l 911 1119 m 587 846 l 587 746 l 936 795 l 936 870 l 886 870 l 587 846 m 1135 149 q 1383 -224 1274 149 l 1383 -273 l 1284 -273 l 1109 0 l 911 -298 l 861 -298 l 687 -24 q 563 -199 587 -199 l 488 -199 q 438 -124 438 -199 q 637 125 510 52 l 762 125 q 911 -24 781 125 q 1135 149 1035 149 z "},"경":{"ha":1313,"x_min":41,"x_max":1259,"o":"m 1060 1243 q 1259 622 1159 1243 q 1184 522 1221 522 l 1060 522 l 1060 547 q 1084 646 1060 603 q 1060 746 1060 690 l 712 721 l 712 522 q 662 473 712 473 l 612 473 q 513 1044 513 473 l 488 1044 q 115 945 168 945 l 90 945 q 41 994 41 945 l 41 1019 q 637 1194 41 1100 q 687 1119 637 1119 q 1060 1243 911 1119 m 687 945 l 687 870 l 736 870 q 1010 945 1010 870 l 1010 1019 l 985 1019 q 687 945 929 1019 m 861 149 l 886 149 q 1184 -24 1083 149 l 1184 -124 q 1010 -224 1184 -180 q 836 -397 985 -304 q 587 -99 629 -397 q 861 149 587 100 m 811 0 l 736 -99 l 787 -273 q 985 -50 928 -170 l 985 -24 l 811 0 z "},"곁":{"ha":1114,"x_min":41,"x_max":1060,"o":"m 985 1168 q 1035 1119 1035 1161 l 1035 671 q 1060 572 1035 615 q 1035 497 1035 524 l 936 497 l 911 671 l 836 671 q 736 646 780 671 l 538 696 l 538 373 l 488 373 l 488 422 l 463 422 l 463 348 q 414 398 414 348 l 414 795 l 438 970 l 90 970 q 41 1019 41 970 l 41 1094 q 90 1143 48 1143 l 165 1143 q 190 1119 190 1143 l 239 1143 q 563 1044 563 1143 l 861 1044 l 911 1019 q 985 1168 943 1168 m 563 895 q 886 821 563 821 l 911 821 l 911 895 l 736 870 l 687 870 l 563 895 m 389 298 q 1010 174 1010 298 l 1010 149 q 936 75 1010 113 q 438 149 758 125 l 438 75 q 1035 -124 1035 -44 l 1035 -199 q 985 -224 985 -199 q 438 -124 526 -124 l 438 -149 q 662 -397 438 -354 q 985 -472 985 -416 l 985 -547 q 936 -596 985 -596 l 811 -596 q 339 -348 339 -519 q 290 125 314 -2 q 389 298 304 298 z "},"계":{"ha":1686,"x_min":41,"x_max":1632,"o":"m 115 920 l 488 920 q 587 795 515 920 q 1010 846 833 795 q 1308 671 1308 846 q 1358 273 1358 308 l 1358 249 q 1308 199 1358 199 q 1184 273 1184 231 l 1184 398 l 936 373 l 787 373 q 637 497 637 373 q 687 547 687 497 q 1010 522 899 522 l 1135 547 q 1159 522 1135 522 q 1135 721 1135 547 q 587 622 1035 671 q 612 125 612 286 l 563 100 l 513 100 q 438 174 477 100 q 414 795 414 652 l 389 795 l 90 771 l 41 846 q 115 920 41 881 m 1433 846 q 1607 199 1607 789 q 1632 125 1632 199 l 1557 75 q 1383 572 1447 75 q 1358 795 1383 661 l 1433 846 z "},"곈":{"ha":1586,"x_min":41,"x_max":1532,"o":"m 1010 1019 l 1109 1019 q 1259 497 1184 1019 l 1184 448 l 1159 448 q 1035 821 1052 448 l 1010 821 l 861 795 l 687 795 q 637 746 637 788 l 637 646 l 886 671 l 960 671 q 1035 597 996 671 q 612 473 1035 522 l 612 323 l 488 298 q 438 348 488 348 q 463 721 463 596 l 463 821 q 90 795 215 795 q 41 846 41 795 l 41 895 q 488 970 41 970 q 687 945 665 945 q 1010 970 808 970 l 1010 1019 m 1333 1019 l 1433 1019 q 1532 473 1532 583 l 1482 448 l 1358 448 l 1358 473 l 1284 994 l 1333 1019 m 811 125 l 836 125 q 936 -149 905 125 l 1408 -75 q 1482 -99 1456 -99 l 1482 -174 q 836 -298 1482 -267 q 736 25 736 -203 l 736 50 q 811 125 736 85 z "},"곌":{"ha":1537,"x_min":41,"x_max":1482,"o":"m 1109 1243 l 1209 1243 q 1259 821 1259 1044 l 1259 721 q 1184 696 1232 721 q 1084 1044 1084 696 q 712 970 966 970 l 687 970 l 637 994 l 637 870 q 861 821 861 861 l 911 846 l 960 846 q 1010 795 1010 838 l 1010 771 q 861 696 985 696 l 836 696 q 637 746 728 696 q 587 497 637 497 l 538 497 q 463 572 502 497 l 463 696 l 488 945 l 438 970 l 264 970 q 41 1019 202 970 l 41 1094 l 66 1143 q 662 1069 557 1119 q 712 1119 670 1119 l 1035 1119 l 1084 1094 l 1084 1119 q 1060 1218 1060 1162 l 1109 1243 m 1358 1194 l 1408 1194 q 1482 1119 1444 1194 l 1482 795 q 1408 721 1482 760 l 1383 721 q 1308 1044 1308 721 l 1308 1143 q 1358 1194 1316 1194 m 1010 522 q 1308 249 1249 522 q 1135 25 1308 25 l 637 25 l 637 -75 q 762 -149 637 -110 q 1159 -99 787 -124 q 1209 -248 1209 -147 q 662 -298 1023 -298 q 488 -75 488 -225 l 488 100 l 662 149 l 1084 149 q 1135 199 1135 149 l 1135 323 q 1084 373 1084 323 q 612 348 747 348 l 587 398 l 587 448 q 1010 522 587 505 z "},"곕":{"ha":1512,"x_min":41,"x_max":1457,"o":"m 1159 1044 q 1234 572 1234 968 q 1184 522 1234 522 l 1135 522 q 1035 870 1060 522 l 1010 870 q 538 846 933 870 l 538 795 q 886 721 538 721 l 936 746 q 1035 671 1035 709 l 1035 646 q 762 572 1035 572 q 563 622 654 572 q 538 522 563 522 q 563 448 563 474 q 538 373 538 399 l 513 373 l 389 398 l 389 746 l 364 870 l 66 870 l 41 994 l 90 1019 q 612 994 288 1019 l 1159 1044 m 1259 1044 l 1358 1044 q 1457 373 1433 1044 l 1333 373 q 1234 970 1278 373 q 1259 1044 1259 1018 m 1109 373 l 1209 373 q 1284 224 1284 348 l 1284 75 q 1135 -323 1284 -323 q 836 -348 959 -348 q 563 199 617 -348 l 612 224 l 662 224 q 736 149 698 224 l 736 25 l 787 25 l 787 75 q 1109 25 1084 50 l 1109 373 m 787 -75 l 787 -99 q 985 -199 787 -174 q 1084 -174 1029 -174 l 1084 -149 q 787 -75 1084 -99 z "},"곗":{"ha":1512,"x_min":41,"x_max":1457,"o":"m 90 994 q 165 970 117 994 q 314 994 184 970 q 736 970 606 970 q 886 994 755 970 l 1010 920 q 1060 994 1010 994 l 1109 994 q 1234 646 1192 994 l 1259 646 l 1259 671 l 1209 970 l 1259 994 l 1333 994 q 1457 497 1418 994 q 1383 398 1420 398 l 1259 398 l 1284 522 l 1284 597 l 1259 597 q 1209 448 1259 448 l 1109 448 l 1084 572 q 612 448 971 522 l 587 323 l 513 323 q 438 398 477 323 q 463 846 463 745 l 438 846 q 190 821 408 846 q 41 895 41 846 l 41 945 q 90 994 48 994 m 637 821 l 637 646 l 762 646 l 886 671 q 911 646 886 646 q 960 696 918 696 l 1010 696 l 1060 671 q 1010 895 1010 858 q 637 821 924 821 m 1109 224 l 1184 224 q 1408 -199 1264 224 l 1408 -224 q 1333 -248 1381 -224 q 1159 0 1234 -248 l 1135 0 q 1010 -224 1078 0 l 886 -224 l 861 -99 q 1109 224 970 127 z "},"고":{"ha":816,"x_min":41,"x_max":762,"o":"m 488 945 q 687 398 582 945 l 687 348 l 587 348 q 414 795 533 348 l 389 795 q 66 721 125 721 l 41 771 l 41 846 q 488 945 41 913 m 290 448 l 314 448 q 414 298 363 448 l 389 249 q 438 75 438 149 l 736 100 l 762 50 l 762 -50 l 115 -149 q 66 -50 66 -88 q 90 25 90 -1 l 239 25 l 290 50 q 239 323 239 147 l 239 398 q 290 448 248 448 z "},"곡":{"ha":990,"x_min":41,"x_max":936,"o":"m 662 1168 q 836 721 777 1168 l 787 696 l 712 696 q 612 1044 630 696 l 438 1019 l 215 1019 q 140 1094 179 1019 q 215 1143 140 1143 q 662 1168 315 1143 m 389 846 q 513 572 488 846 l 538 572 q 811 597 708 597 q 861 547 861 589 l 861 522 q 115 373 861 426 l 41 473 q 115 547 41 508 l 140 547 q 239 522 196 547 q 339 547 283 547 l 314 795 l 389 846 m 662 298 q 936 -149 936 298 l 911 -149 q 811 -174 867 -174 q 736 50 736 -79 l 736 125 q 687 149 687 125 l 463 100 q 364 174 364 137 l 364 224 q 662 298 364 273 z "},"곤":{"ha":990,"x_min":41,"x_max":936,"o":"m 488 1243 q 687 821 687 1184 l 687 795 q 612 721 687 760 l 538 721 l 488 746 q 513 895 488 764 l 488 1069 q 90 1019 466 1069 l 41 1094 l 41 1143 q 488 1243 41 1184 m 290 795 l 339 795 q 438 497 400 795 q 687 547 478 527 l 736 473 l 736 448 q 90 323 736 323 q 41 448 41 404 l 115 497 l 264 473 l 239 646 l 239 746 q 290 795 248 795 m 264 149 l 290 149 q 364 75 325 149 l 364 -99 q 886 50 808 50 q 936 0 886 0 l 936 -50 q 389 -248 936 -118 l 314 -248 q 190 0 190 -193 l 215 0 l 190 50 q 264 149 227 149 z "},"곧":{"ha":1015,"x_min":41,"x_max":960,"o":"m 687 1293 q 811 846 811 1293 q 836 795 836 846 l 762 746 l 687 746 q 637 970 637 907 l 637 1143 l 190 1044 l 140 1119 q 687 1293 140 1217 m 389 895 q 513 572 488 895 q 861 622 800 622 l 911 547 l 911 522 q 90 373 911 425 l 41 448 l 41 497 q 90 547 48 547 l 339 547 l 339 597 l 314 846 l 389 895 m 314 174 l 438 149 q 811 174 563 149 l 811 50 q 538 0 590 20 q 438 25 494 25 l 364 25 l 364 -50 q 463 -124 364 -87 q 836 -50 726 -99 q 960 -149 949 -98 l 960 -199 q 389 -273 604 -273 q 215 -24 215 -199 l 215 75 q 314 174 215 100 z "},"골":{"ha":1015,"x_min":41,"x_max":960,"o":"m 762 1268 q 836 1044 836 1173 l 836 821 q 787 771 836 771 l 762 771 q 662 1094 680 771 l 637 1094 q 165 1019 593 1094 q 90 1044 117 1044 l 90 1168 l 115 1168 l 762 1268 m 389 895 l 438 895 q 488 846 488 887 l 488 622 l 861 671 q 960 597 960 634 q 239 448 960 484 q 41 597 41 448 l 115 646 q 314 597 206 597 q 339 671 339 645 l 314 721 q 389 895 347 895 m 339 348 q 836 75 706 348 l 836 50 q 239 -124 836 -75 l 239 -149 q 364 -248 250 -200 q 762 -199 679 -199 l 811 -273 l 811 -298 q 736 -373 811 -334 l 687 -348 q 389 -397 515 -397 l 364 -397 q 90 -149 90 -348 l 90 -75 q 637 75 90 37 l 637 125 q 314 249 314 189 l 314 273 q 339 348 339 321 z "},"곪":{"ha":1338,"x_min":41,"x_max":1284,"o":"m 811 1218 l 861 1143 l 861 1094 q 886 721 861 969 l 836 696 l 811 696 q 662 1069 729 696 q 264 1044 624 1069 l 215 1119 q 239 1194 239 1167 l 264 1194 q 811 1218 438 1194 m 463 846 l 513 846 q 587 771 549 846 l 563 622 q 587 597 587 622 l 637 622 l 787 622 q 861 547 822 622 l 861 497 q 438 422 729 448 l 438 448 l 389 422 l 215 422 q 140 497 179 422 l 140 522 q 414 597 140 578 l 414 795 q 463 846 421 846 m 1234 249 q 1284 100 1284 168 q 1060 -323 1198 -155 l 936 -323 q 687 149 687 -323 q 1234 249 1072 249 m 314 199 q 612 0 537 199 q 215 -248 539 -248 l 215 -298 q 563 -273 351 -298 q 637 -298 611 -298 l 637 -422 q 563 -448 611 -422 q 538 -422 538 -448 l 239 -472 q 41 -348 115 -472 l 41 -323 q 389 -75 41 -104 l 438 0 q 364 50 438 50 l 140 25 l 90 100 l 90 149 q 314 199 252 199 m 861 -149 l 911 -174 l 936 -174 q 1084 50 1084 -68 l 1035 75 q 861 -149 861 75 z "},"곬":{"ha":1362,"x_min":41,"x_max":1308,"o":"m 736 1343 q 861 970 787 1268 q 811 920 861 920 l 736 920 q 637 1194 662 920 q 140 1119 314 1119 l 115 1168 l 140 1293 l 165 1293 q 736 1343 712 1343 m 438 1069 l 488 1069 q 587 771 545 1069 l 762 771 q 811 721 811 763 l 811 671 q 66 572 811 590 l 41 622 l 41 646 q 414 746 41 746 l 414 771 q 389 994 389 905 l 389 1019 q 438 1069 397 1069 m 264 422 l 364 422 q 637 149 559 422 q 314 -99 528 -99 l 314 -124 l 339 -124 q 612 -75 436 -75 q 687 -224 687 -99 l 290 -298 q 66 -75 66 -266 q 438 100 66 -2 q 463 174 438 126 q 364 273 446 249 l 115 249 l 66 323 q 264 422 80 422 m 911 348 l 985 348 q 1308 100 1119 348 l 1308 50 q 1259 0 1308 0 l 1159 0 q 1010 174 1159 77 l 960 174 q 836 -149 886 -149 l 811 -149 q 762 -75 762 -149 q 911 348 762 78 z "},"곯":{"ha":1338,"x_min":41,"x_max":1284,"o":"m 861 1392 q 960 1094 904 1322 q 936 1019 936 1046 l 836 1019 q 762 1094 800 1019 l 762 1243 q 438 1194 475 1218 q 290 1218 401 1218 l 290 1293 q 861 1392 290 1359 m 488 1094 l 538 1094 q 637 795 612 1094 l 662 795 q 811 821 793 821 q 936 721 925 772 q 861 646 936 686 q 66 622 327 622 l 41 671 l 41 746 l 66 795 l 239 771 l 290 771 l 463 795 l 438 846 l 438 1044 q 488 1094 446 1094 m 215 448 l 364 448 q 662 174 662 379 q 1159 249 1057 249 l 1209 174 q 811 50 1142 50 l 762 50 l 662 125 q 264 -149 662 -3 l 264 -199 l 587 -199 q 637 -248 637 -206 l 637 -298 q 563 -373 637 -334 l 339 -373 q 90 -174 115 -373 q 463 100 90 5 l 488 149 l 488 224 q 438 273 488 273 l 264 273 l 140 298 l 140 373 q 215 448 140 409 m 811 422 l 1084 422 q 1159 348 1120 422 q 1135 273 1135 300 l 886 273 l 762 298 l 762 373 q 811 422 769 422 m 1084 0 q 1284 -224 1284 -103 q 1060 -397 1284 -278 l 985 -397 q 787 -273 850 -397 q 1084 0 787 0 m 936 -199 l 936 -224 l 960 -273 q 1060 -199 1060 -236 l 1060 -149 l 985 -149 q 936 -199 936 -157 z "},"곰":{"ha":990,"x_min":41,"x_max":936,"o":"m 687 1492 q 861 1044 797 1492 q 886 994 886 1044 l 787 920 q 612 1318 715 920 l 264 1218 q 165 1293 165 1255 l 165 1318 q 662 1467 165 1392 q 687 1492 662 1492 m 438 1019 q 563 671 513 945 q 787 721 677 721 q 861 696 835 696 l 861 622 q 115 473 775 505 q 41 547 79 473 l 41 622 l 140 646 l 140 622 l 190 646 q 215 622 215 646 l 264 646 l 389 646 q 364 994 364 726 q 438 1019 412 1019 m 811 398 q 936 273 845 398 l 936 224 q 836 -199 903 -199 q 563 -224 616 -224 q 389 249 403 -224 q 811 398 675 398 m 563 -24 q 612 -75 570 -75 q 787 199 787 -75 l 787 249 q 563 25 563 214 l 563 -24 z "},"곱":{"ha":865,"x_min":41,"x_max":811,"o":"m 612 1367 q 811 721 782 1367 q 314 646 488 646 l 190 671 l 190 795 l 389 795 l 364 920 l 364 994 q 414 1044 372 1044 l 438 1044 q 538 821 472 1044 l 587 821 q 662 870 662 846 q 587 1218 630 1218 q 190 1168 304 1168 l 190 1243 q 612 1367 190 1309 m 115 522 q 215 224 172 522 l 239 224 l 239 273 l 587 249 l 612 298 q 563 497 612 321 l 563 522 l 637 522 q 762 174 745 522 l 762 -50 q 364 -199 762 -133 l 239 -199 q 41 473 122 -199 l 115 522 m 215 174 l 215 149 l 264 -50 l 364 -50 q 637 50 637 -12 l 637 100 l 488 100 q 239 174 239 100 l 215 174 z "},"곳":{"ha":940,"x_min":41,"x_max":886,"o":"m 538 1318 q 736 795 736 1224 l 687 771 l 637 771 q 488 1168 572 771 l 438 1168 q 165 1119 194 1119 q 90 1143 117 1143 l 90 1194 q 538 1318 90 1286 m 339 1019 q 538 696 421 1019 l 563 696 q 662 721 575 696 q 762 646 762 684 l 762 622 q 190 497 762 536 q 41 572 41 522 l 41 622 q 90 671 48 671 l 339 671 l 339 696 l 264 945 l 264 994 q 339 1019 291 994 m 538 224 q 886 -174 886 -20 l 836 -199 l 787 -199 q 538 50 762 -199 q 389 -248 471 50 l 339 -273 q 264 -224 264 -248 q 538 224 264 86 z "},"공":{"ha":816,"x_min":41,"x_max":762,"o":"m 587 1417 q 762 1019 699 1277 l 687 970 l 637 970 q 513 1268 587 970 q 115 1218 227 1218 q 41 1243 67 1243 q 239 1367 41 1367 q 587 1417 552 1417 m 239 1019 l 290 1019 q 438 746 343 1019 q 687 622 687 746 l 662 622 q 115 572 520 572 l 66 646 q 140 721 66 682 l 264 721 l 264 771 q 190 994 190 866 l 239 1019 m 438 249 l 538 249 q 736 -99 736 125 l 736 -124 q 389 -348 504 -348 l 364 -348 q 115 0 141 -195 q 438 249 208 249 m 264 0 q 389 -199 264 -135 q 563 -50 563 -94 l 563 0 q 389 100 522 100 q 264 0 275 52 z "},"곶":{"ha":1189,"x_min":41,"x_max":1135,"o":"m 637 1392 q 811 870 712 1326 q 712 821 751 821 q 587 1143 630 821 q 538 1218 572 1143 q 140 1143 167 1143 l 90 1218 q 637 1392 90 1329 m 339 970 l 438 970 q 563 597 496 597 l 587 597 l 736 622 q 811 597 785 597 l 811 473 q 90 398 529 398 l 41 473 l 41 497 q 115 572 41 533 q 215 547 171 572 q 364 572 252 572 q 290 945 290 795 l 339 970 m 488 174 l 637 174 q 736 -75 706 174 q 1135 -248 966 -75 q 1060 -323 1135 -284 q 587 -199 658 -199 q 414 -448 531 -344 l 364 -448 q 314 -397 314 -448 l 314 -323 l 513 25 l 488 25 q 290 0 351 0 q 215 25 241 25 l 215 100 q 488 174 215 174 z "},"과":{"ha":1586,"x_min":41,"x_max":1532,"o":"m 90 1044 l 587 1044 q 712 473 712 1044 l 662 448 l 587 448 q 538 497 538 448 l 538 547 q 563 572 538 572 q 513 895 538 609 l 463 895 l 339 870 l 339 895 l 290 870 l 115 870 q 41 945 79 870 l 41 994 q 90 1044 48 1044 m 1109 846 q 1209 497 1184 775 l 1308 497 l 1482 522 l 1532 448 l 1532 398 q 1333 323 1516 323 l 1234 323 l 1234 100 l 1109 75 q 1010 721 1066 132 q 985 746 985 721 q 1109 846 1010 846 m 190 547 q 339 199 264 547 l 712 199 q 762 149 762 191 l 762 50 l 736 50 q 314 -24 314 50 q 66 50 66 0 l 66 149 q 165 174 121 149 q 115 497 115 373 l 190 547 z "},"곽":{"ha":1537,"x_min":41,"x_max":1482,"o":"m 1035 1243 q 1159 945 1141 1243 l 1184 945 l 1234 970 q 1482 870 1482 939 l 1482 846 q 1159 771 1482 795 q 1135 721 1159 721 l 1159 671 l 1159 622 q 1084 547 1159 586 q 985 646 1046 547 l 985 1044 q 960 1143 985 1100 q 1035 1243 998 1243 m 612 1218 q 736 795 687 1060 q 712 721 712 747 l 612 721 q 513 1044 531 721 q 190 994 215 994 l 140 1069 l 140 1094 q 612 1218 199 1218 m 239 846 l 314 846 q 414 547 389 846 l 662 547 l 687 422 l 687 398 l 563 373 l 90 373 q 41 422 41 373 l 41 473 q 90 522 48 522 l 239 522 l 215 746 l 239 846 m 1084 224 q 1284 -174 1284 224 q 1159 -224 1203 -224 q 1084 50 1116 -168 l 1035 50 q 836 0 877 0 q 736 75 736 37 l 736 100 q 1084 224 736 166 z "},"관":{"ha":1114,"x_min":41,"x_max":1059,"o":"m 488 1019 l 538 1019 q 612 820 612 1003 l 612 596 l 538 596 q 463 869 488 596 l 413 869 q 140 820 385 869 q 90 869 90 820 l 90 944 q 488 1019 354 1019 m 836 920 q 960 671 891 920 q 1059 621 1059 671 l 1059 547 q 935 397 935 450 l 836 397 q 786 869 786 595 q 836 920 793 920 m 289 671 l 314 621 l 314 472 q 363 448 363 472 l 488 472 l 562 472 q 612 422 612 465 l 612 373 q 66 249 612 309 l 41 298 l 41 397 q 190 422 59 397 l 190 646 q 289 671 202 646 m 389 25 l 463 25 q 513 -124 463 -124 q 810 -99 553 -124 q 885 -124 859 -124 l 885 -223 l 861 -273 l 761 -248 q 488 -298 502 -298 q 339 -50 357 -298 l 339 -24 q 389 25 347 25 z "},"괄":{"ha":1138,"x_min":41,"x_max":1084,"o":"m 115 1019 q 190 994 142 1019 q 289 1019 202 994 q 612 795 612 1019 l 637 671 q 612 596 612 623 l 488 596 l 488 720 q 413 869 488 849 l 289 869 q 190 845 233 869 q 66 920 66 877 l 66 969 q 115 1019 73 1019 m 736 994 l 836 994 l 861 869 l 1034 869 q 1084 820 1084 862 l 1084 745 q 861 596 991 745 q 736 895 779 596 l 736 994 m 190 671 l 289 671 q 513 472 289 472 q 538 348 538 431 l 662 373 l 761 373 q 885 249 794 373 l 885 124 q 339 -124 885 26 l 314 -174 l 438 -199 q 761 -149 637 -149 l 786 -199 l 786 -248 q 389 -323 786 -323 l 264 -323 q 165 -223 225 -323 l 165 -124 q 686 124 165 0 l 736 199 l 736 224 l 637 224 l 562 174 l 513 174 q 438 348 471 174 l 90 348 q 41 397 41 348 l 41 448 q 190 497 41 497 l 190 671 z "},"괆":{"ha":1163,"x_min":41,"x_max":1109,"o":"m 413 1044 l 513 1044 q 662 720 579 1044 q 637 646 637 673 l 513 646 l 513 720 q 438 920 513 904 q 190 869 334 920 q 90 944 90 907 l 90 969 q 413 1044 90 1044 m 786 994 l 810 994 q 885 820 885 979 l 1034 820 q 1109 745 1070 820 l 1109 720 q 960 596 960 627 l 960 547 l 935 547 q 761 895 761 547 q 736 969 736 943 l 786 994 m 239 720 l 314 720 q 389 547 389 706 l 587 547 q 662 472 623 547 l 662 448 q 612 397 662 397 l 587 397 q 90 373 426 397 l 66 422 l 66 472 q 115 522 73 522 l 264 522 l 264 547 l 239 720 m 836 249 q 1009 124 970 249 q 910 -298 960 -298 l 761 -298 q 562 -50 562 -298 q 214 -199 380 -199 l 214 -248 q 413 -199 289 -248 q 513 -298 495 -223 q 488 -372 488 -346 l 463 -372 q 90 -397 338 -372 l 41 -323 l 41 -199 q 389 0 41 -108 l 389 25 q 289 75 289 45 q 90 25 162 25 l 66 149 q 214 224 66 191 q 538 25 538 149 q 587 75 587 25 q 562 174 562 118 q 836 249 682 249 m 711 100 l 711 -24 q 686 -50 711 -50 q 711 -149 711 -93 l 836 -149 q 885 100 836 -85 l 711 100 z "},"괌":{"ha":1213,"x_min":41,"x_max":1158,"o":"m 438 969 l 488 969 q 662 621 662 969 l 662 572 q 612 522 662 522 l 562 522 q 513 572 513 522 l 513 795 q 463 845 513 845 l 90 770 l 41 845 l 41 869 q 438 969 41 936 m 861 869 l 885 869 q 960 621 946 869 l 1109 621 q 1158 572 1158 614 l 1158 497 q 1109 448 1158 448 l 985 448 q 935 298 985 298 l 861 298 q 810 845 810 673 l 861 869 m 314 671 q 488 323 314 323 q 587 249 587 323 q 562 174 562 201 l 389 199 l 165 199 l 41 224 l 41 298 q 90 348 48 348 l 115 348 q 140 323 140 348 q 214 373 214 348 l 190 596 l 314 671 m 662 149 l 786 149 q 935 75 935 134 l 935 -24 q 861 -372 935 -281 q 810 -347 810 -372 l 562 -372 l 438 -372 q 389 -273 438 -334 l 389 -199 q 662 149 428 149 m 612 0 q 513 -149 612 -50 l 513 -223 l 736 -223 q 810 -75 810 -199 l 810 0 l 612 0 z "},"괍":{"ha":1163,"x_min":41,"x_max":1109,"o":"m 140 1068 l 165 1068 q 587 944 587 1068 q 637 621 637 646 l 587 596 l 562 596 q 463 920 481 596 l 140 920 q 90 969 90 920 l 90 1019 q 140 1068 98 1068 m 810 994 q 885 795 885 978 l 885 745 l 1084 745 q 1109 671 1084 719 q 910 547 1109 583 l 935 497 l 935 472 q 861 397 935 437 l 836 397 q 761 696 773 397 l 786 696 l 761 745 l 761 944 q 810 994 769 994 m 190 745 l 289 745 l 289 596 q 413 472 289 472 q 463 348 463 472 l 413 323 l 41 323 l 41 422 q 165 472 41 472 l 165 621 l 190 745 m 314 273 l 389 273 l 413 149 l 389 149 q 413 -75 413 133 l 438 -75 q 686 25 438 6 l 686 249 l 786 249 q 810 149 810 205 q 786 124 810 124 l 810 75 l 810 -248 q 389 -347 810 -331 q 264 249 314 -347 l 314 273 m 438 -124 l 438 -149 l 463 -199 q 686 -174 597 -174 l 686 -149 q 438 -124 444 -149 z "},"괏":{"ha":1114,"x_min":41,"x_max":1059,"o":"m 587 969 q 637 522 637 844 l 587 497 l 538 497 q 488 845 488 715 l 463 845 q 115 820 252 820 l 90 820 q 41 869 41 820 l 41 944 l 66 944 q 587 969 272 969 m 736 869 l 810 869 q 885 671 869 869 l 935 696 l 1009 696 q 1059 646 1059 688 l 1059 596 l 910 497 q 861 323 910 323 l 836 323 q 736 869 736 400 m 239 646 l 289 646 q 339 397 339 435 l 413 397 q 612 323 597 397 l 612 298 l 562 224 l 438 249 l 339 249 l 90 224 l 66 348 q 190 373 106 373 l 190 596 q 239 646 197 646 m 587 100 l 662 100 q 935 -323 758 100 l 935 -347 l 810 -347 q 662 -99 810 -268 q 488 -323 633 -99 l 413 -323 l 413 -273 q 587 100 413 -199 z "},"광":{"ha":1238,"x_min":41,"x_max":1183,"o":"m 562 1068 q 662 596 662 857 l 612 572 l 538 572 l 488 920 q 66 895 196 895 l 41 994 l 115 1044 l 140 1044 q 165 1019 165 1044 q 562 1068 304 1068 m 885 994 l 910 994 q 985 795 985 978 l 985 745 l 1158 745 l 1183 621 q 985 472 985 572 l 935 472 q 836 944 836 472 q 885 994 844 994 m 264 720 q 339 646 300 720 l 339 522 l 438 522 q 587 448 587 507 l 587 397 q 538 348 587 348 l 363 373 l 339 323 q 41 397 41 348 l 41 422 q 214 572 214 524 q 264 720 214 720 m 786 199 q 1009 -75 1009 124 l 1009 -124 q 810 -347 847 -347 l 786 -347 q 488 0 536 -347 q 786 199 488 116 m 637 -75 q 736 -199 685 -188 l 761 -199 q 861 -24 802 -199 q 786 50 841 -24 q 637 -75 690 19 z "},"괘":{"ha":1213,"x_min":41,"x_max":1158,"o":"m 90 895 l 463 895 q 587 448 587 895 l 538 422 l 513 422 q 438 745 450 422 l 339 745 q 41 845 41 745 q 90 895 48 895 m 810 720 l 861 720 l 885 572 l 985 572 q 1034 671 985 671 l 1109 671 l 1109 621 q 1134 497 1109 538 l 1109 348 q 1158 199 1158 267 l 1158 124 l 1084 124 q 985 422 1027 124 l 935 422 q 836 199 877 422 l 786 199 l 736 224 q 761 596 761 472 l 761 671 q 810 720 769 720 m 190 497 q 264 174 239 497 l 314 149 l 438 149 l 438 50 q 389 0 389 50 q 41 100 41 43 l 41 199 l 90 199 l 140 174 l 140 199 q 115 348 140 218 q 190 497 140 497 z "},"괜":{"ha":1238,"x_min":41,"x_max":1183,"o":"m 214 969 l 538 969 q 662 397 642 969 l 587 397 q 513 472 551 397 q 538 547 513 498 l 488 845 l 165 845 l 165 920 q 214 969 173 969 m 810 820 q 885 696 846 820 q 985 671 928 671 l 985 745 l 1084 745 q 1183 348 1084 702 l 1109 298 l 1034 298 q 935 547 1004 547 q 910 397 910 509 l 836 397 q 736 770 761 397 l 810 820 m 214 646 l 264 646 l 339 373 l 438 373 l 562 348 l 562 273 q 513 224 562 224 l 165 224 l 41 249 l 41 373 l 214 373 q 165 596 165 534 q 214 646 173 646 m 562 149 l 662 149 l 662 -99 l 1034 -99 l 1034 -199 q 985 -248 1034 -248 l 562 -248 q 513 0 538 -60 q 562 149 562 102 z "},"괞":{"ha":1163,"x_min":41,"x_max":1109,"o":"m 488 1044 q 612 795 612 1006 l 612 646 q 538 572 612 610 l 463 572 q 488 770 463 593 l 463 895 l 90 820 l 41 895 l 41 920 q 488 1044 41 960 m 836 920 q 910 820 910 920 l 1034 845 l 1059 845 q 1109 720 1059 783 l 1084 547 l 1109 397 q 985 348 1028 348 q 861 522 960 522 l 786 770 l 786 869 q 836 920 793 920 m 289 696 q 389 472 342 696 l 438 497 l 538 497 q 637 298 602 497 l 587 273 l 562 273 q 239 298 403 273 l 90 273 l 41 348 l 41 397 q 239 596 239 397 q 289 696 239 696 m 612 273 q 935 149 935 241 l 885 75 q 985 -24 985 75 q 612 -124 911 -90 l 562 -50 l 562 25 q 836 100 836 25 q 612 174 612 100 l 612 273 m 66 -24 l 90 -24 q 214 -248 214 -94 l 413 -248 q 463 -298 463 -256 l 463 -347 q 363 -422 463 -385 q 66 -174 66 -422 l 66 -24 m 810 -199 l 861 -199 q 1059 -323 996 -199 l 1059 -397 q 910 -496 1009 -397 l 861 -496 q 662 -298 662 -496 l 810 -199 z "},"괠":{"ha":1163,"x_min":41,"x_max":1109,"o":"m 488 869 l 562 869 q 686 397 637 869 q 140 199 686 231 l 66 199 l 41 249 l 41 323 q 214 373 214 340 q 190 646 190 593 q 214 671 214 646 l 165 646 l 115 646 q 41 720 79 646 l 41 745 q 90 795 48 795 q 115 770 115 795 q 488 869 404 869 m 985 869 l 1009 869 q 1109 497 1059 604 q 1034 397 1072 397 l 985 397 q 935 621 935 584 l 885 621 l 885 596 l 910 472 l 861 448 l 836 448 q 711 795 753 448 l 761 820 l 786 820 l 861 770 l 885 770 l 985 869 m 239 671 q 413 397 339 397 l 538 422 l 538 472 l 513 720 l 463 720 q 239 671 401 720 m 711 249 q 985 -24 985 215 q 587 -199 904 -124 l 587 -223 l 686 -223 l 810 -199 l 810 -223 l 861 -199 l 910 -199 q 985 -273 946 -199 l 985 -323 q 935 -372 985 -372 l 587 -372 q 438 -223 438 -372 l 438 -174 q 836 25 438 -50 q 761 100 836 42 l 637 75 l 612 75 q 562 124 562 75 l 562 174 q 711 249 587 249 z "},"괩":{"ha":1138,"x_min":41,"x_max":1084,"o":"m 413 994 q 587 596 556 994 l 513 547 l 488 547 q 413 845 438 547 l 115 820 l 90 820 q 41 869 41 820 l 41 969 l 66 969 q 413 994 376 994 m 736 869 l 786 869 q 861 745 861 869 l 885 745 l 910 845 l 960 845 q 1084 348 1009 845 l 1009 298 l 935 298 l 885 323 l 910 448 l 910 472 l 861 448 l 810 448 q 711 795 736 448 q 736 869 736 843 m 140 671 l 214 671 q 289 472 264 671 l 413 448 l 587 448 l 587 323 l 488 298 l 488 323 l 438 298 l 90 298 q 41 348 41 298 l 41 448 l 140 448 l 140 671 m 836 298 l 861 298 q 935 100 935 283 l 935 -223 q 587 -447 935 -447 l 562 -447 q 339 -75 339 -363 l 339 25 l 363 149 l 413 149 q 463 -99 463 149 l 488 -99 l 488 -24 l 513 -24 q 810 25 810 -24 q 786 273 810 56 l 836 298 m 488 -124 l 488 -149 q 562 -298 503 -298 l 662 -298 q 810 -149 810 -298 l 786 -149 q 587 -174 609 -174 l 488 -124 z "},"괬":{"ha":1138,"x_min":41,"x_max":1084,"o":"m 140 895 q 165 869 165 895 l 214 895 l 438 895 q 587 397 543 895 l 538 373 l 389 373 l 389 422 q 438 522 438 483 q 363 745 423 745 l 314 745 q 214 720 258 745 q 140 745 166 745 l 140 895 m 662 770 l 686 770 q 786 621 736 770 l 836 621 q 885 720 836 720 l 910 720 q 1034 596 1002 596 l 1009 422 l 1009 249 q 861 174 985 174 l 861 273 q 885 298 861 298 q 861 448 861 336 l 836 448 q 761 323 836 323 l 736 323 l 612 745 l 662 770 m 115 422 q 239 323 239 422 l 513 323 l 538 199 q 90 149 538 174 l 41 224 l 41 249 q 115 422 115 307 m 538 50 l 587 50 q 686 -75 686 -1 l 711 -75 q 885 0 802 0 q 1084 -447 985 0 l 1034 -472 l 985 -472 q 861 -174 924 -472 l 836 -174 q 686 -372 812 -174 l 662 -372 q 562 -124 593 -372 q 363 -372 530 -124 l 289 -372 q 264 -298 289 -346 q 538 50 453 50 z "},"괭":{"ha":1213,"x_min":41,"x_max":1158,"o":"m 389 1044 q 637 572 637 1044 l 587 547 l 562 547 q 438 895 496 547 q 165 845 193 845 q 115 895 115 845 l 115 944 q 389 1044 115 1000 m 761 869 l 836 869 q 910 745 892 869 l 960 745 q 1009 845 960 845 l 1034 845 q 1158 323 1158 790 q 1084 224 1121 224 l 1059 224 q 1009 273 1009 224 l 1009 348 q 1034 373 1009 373 q 985 596 1009 426 l 960 596 q 885 448 960 467 q 736 795 835 448 q 761 869 761 843 m 165 646 l 239 646 q 314 448 314 631 l 314 397 q 538 323 538 373 l 538 273 q 488 224 538 224 l 463 224 q 389 249 389 224 l 264 224 l 90 224 q 41 273 41 224 l 41 373 l 190 373 l 165 497 l 165 646 m 836 75 q 1059 -223 977 75 q 985 -323 1022 -323 l 910 -273 l 861 -347 q 587 -75 587 -305 q 836 75 673 75 m 711 -149 l 761 -174 l 786 -174 q 836 -124 836 -174 l 836 -75 l 810 -75 q 711 -149 711 -112 z "},"괴":{"ha":1138,"x_min":41,"x_max":1084,"o":"m 488 969 q 637 720 618 969 l 637 323 l 587 323 l 463 348 l 463 397 q 513 497 513 458 q 488 820 513 512 l 314 795 l 214 795 q 140 869 179 795 l 140 895 q 488 969 140 951 m 935 770 q 1059 174 1059 770 q 1084 50 1084 174 l 1034 25 l 1009 25 q 885 745 922 25 l 935 770 m 214 448 l 289 448 l 314 323 l 314 174 l 562 174 l 686 149 l 686 75 q 637 25 686 25 l 513 50 q 314 -24 429 50 l 264 -24 l 190 25 l 140 0 q 41 75 41 37 l 41 100 q 190 174 41 142 l 165 224 l 165 397 q 214 448 173 448 z "},"괵":{"ha":1063,"x_min":41,"x_max":1009,"o":"m 438 994 l 587 994 q 637 522 637 754 l 587 497 l 562 497 q 463 869 480 497 q 190 845 388 845 q 165 944 165 888 q 438 994 262 994 m 885 920 l 910 920 q 985 845 946 920 l 985 795 q 1009 422 985 671 l 935 373 l 861 373 q 836 422 861 422 l 861 522 q 836 895 836 834 l 885 920 m 239 621 l 289 621 q 363 397 339 621 l 488 397 q 538 348 538 390 l 538 298 l 488 224 l 314 249 l 115 249 q 41 323 79 249 l 41 397 l 165 397 l 214 422 l 190 547 l 190 572 q 239 621 197 621 m 488 100 l 662 100 q 836 -149 836 100 l 836 -298 l 761 -298 q 662 -50 723 -298 l 488 -75 l 438 0 l 438 50 q 488 100 446 100 z "},"괸":{"ha":1088,"x_min":41,"x_max":1034,"o":"m 513 969 q 662 621 662 969 l 662 497 q 587 448 662 448 l 488 522 l 513 646 l 513 696 l 488 820 q 214 770 459 820 l 165 770 l 165 895 q 513 969 395 969 m 935 820 q 1034 249 1034 820 l 935 224 q 885 273 935 273 l 910 397 q 861 770 910 490 l 935 820 m 264 596 l 339 596 q 413 448 413 572 l 413 348 l 438 348 l 612 373 l 612 273 q 513 174 612 235 l 389 199 q 90 174 213 174 l 41 249 q 264 348 41 317 l 264 596 m 538 124 l 612 124 q 637 75 612 75 q 587 -124 637 29 l 861 -124 q 935 -199 896 -124 l 935 -223 q 885 -273 935 -273 l 587 -273 q 438 -174 463 -273 q 538 124 476 124 z "},"괼":{"ha":1063,"x_min":41,"x_max":1009,"o":"m 214 994 q 339 969 298 994 l 488 994 l 562 994 q 686 596 686 846 l 612 547 l 587 547 q 513 646 525 547 l 538 696 l 463 845 l 289 820 l 190 820 q 140 869 140 820 l 140 920 q 214 994 140 955 m 885 969 l 935 969 q 1009 572 1009 609 q 960 497 960 572 l 935 497 l 810 522 l 810 572 q 861 621 819 621 q 810 920 836 663 l 885 969 m 289 671 l 339 671 q 389 448 363 500 l 513 472 l 538 472 l 538 422 l 513 298 l 562 298 l 711 323 q 910 100 910 258 q 413 -124 910 -124 q 314 -223 314 -198 q 538 -248 538 -223 l 587 -223 l 686 -223 q 736 -273 736 -231 l 736 -347 q 686 -397 736 -397 l 413 -397 q 165 -248 165 -379 q 761 75 165 75 l 761 100 q 711 149 761 149 l 413 124 l 389 174 l 413 298 l 66 298 l 41 422 l 214 497 q 289 671 231 671 z "},"굄":{"ha":1088,"x_min":41,"x_max":1034,"o":"m 513 994 q 637 547 587 994 l 562 497 l 513 497 q 463 547 463 497 l 488 671 q 413 845 463 845 q 140 820 193 820 l 90 895 l 90 944 q 513 994 289 994 m 861 795 l 885 795 q 1034 397 968 795 l 1034 373 q 935 273 1034 334 l 861 273 q 810 323 810 273 l 810 348 q 885 422 885 348 l 810 770 l 861 795 m 165 572 l 314 373 q 587 397 484 397 q 612 323 612 349 q 140 199 612 199 q 41 348 41 224 q 115 373 89 373 l 115 522 q 165 572 123 572 m 662 149 l 810 149 q 935 -50 935 85 q 885 -347 935 -191 q 413 -124 413 -347 l 413 -99 q 662 149 471 149 m 562 -174 l 786 -174 l 810 -50 l 810 0 l 711 0 q 562 -174 562 0 z "},"굅":{"ha":989,"x_min":41,"x_max":935,"o":"m 339 869 l 413 869 q 562 646 562 869 q 587 422 587 553 q 538 373 587 373 l 463 373 l 463 572 q 363 770 463 730 q 140 696 199 696 l 90 696 q 41 745 41 696 q 339 869 41 806 m 761 795 q 935 397 869 795 l 935 373 q 836 273 935 334 l 761 273 l 761 348 q 810 397 769 397 l 711 770 l 761 795 m 190 522 q 339 273 244 518 l 363 273 l 612 298 l 637 249 l 637 174 q 214 75 214 116 q 363 -149 295 75 l 389 -149 q 662 -50 662 -112 l 637 100 l 686 124 l 711 124 q 786 -199 774 124 l 761 -447 l 513 -447 q 190 25 190 -372 l 190 100 q 66 149 66 100 l 66 249 l 190 249 q 165 448 165 385 q 190 522 190 496 m 463 -273 l 463 -298 l 587 -323 l 637 -323 q 662 -223 637 -267 l 637 -223 l 463 -273 z "},"굇":{"ha":1063,"x_min":41,"x_max":1009,"o":"m 90 920 l 190 895 q 612 920 528 920 q 662 770 662 838 l 662 497 q 587 472 635 497 l 612 422 l 612 323 q 66 298 592 298 q 41 397 41 342 l 41 422 l 165 422 q 140 572 165 441 q 165 646 165 620 q 339 448 202 646 l 562 448 l 562 472 q 513 522 562 522 l 538 646 l 538 770 q 438 795 438 770 q 214 745 323 745 q 66 895 66 745 q 90 920 90 895 m 711 845 l 786 845 q 985 448 974 607 l 985 397 q 935 348 985 348 l 910 348 q 810 572 866 348 q 711 845 711 702 m 686 174 l 736 174 q 1009 -199 1009 -58 q 960 -248 1009 -248 l 935 -248 q 711 0 743 0 q 513 -248 526 -248 q 463 -199 463 -248 l 463 -174 q 686 174 463 -31 z "},"굉":{"ha":1114,"x_min":41,"x_max":1059,"o":"m 90 920 l 587 920 q 637 522 637 713 l 587 497 l 538 497 q 488 547 488 497 q 513 646 488 603 q 463 770 488 770 q 140 745 448 770 l 90 820 l 90 920 m 836 795 l 861 795 q 1059 348 979 714 l 985 298 l 910 298 q 786 745 910 413 q 836 795 793 795 m 264 596 q 363 373 322 596 l 538 373 q 612 298 573 373 q 488 199 601 247 l 438 224 l 66 174 l 41 224 l 41 298 q 90 348 48 348 l 214 348 l 214 547 q 264 596 222 596 m 562 -50 q 861 -298 861 -50 l 861 -372 q 810 -422 861 -422 l 736 -372 q 612 -496 736 -456 q 413 -248 413 -402 q 562 -50 413 -113 m 538 -223 l 538 -273 q 612 -347 538 -309 l 662 -223 l 538 -223 z "},"교":{"ha":865,"x_min":41,"x_max":810,"o":"m 711 845 q 810 373 786 690 q 786 298 786 325 l 662 323 l 662 422 l 637 720 q 264 671 498 720 q 214 795 214 751 q 711 845 349 845 m 214 298 l 289 298 q 339 -124 339 -12 l 264 -124 q 165 273 198 -124 l 214 298 m 363 224 l 463 224 q 562 -124 562 -32 l 562 -174 l 686 -174 q 761 -248 722 -174 l 761 -273 q 686 -347 761 -309 q 488 -298 641 -347 q 389 -323 444 -323 l 339 -323 q 314 -298 314 -323 q 66 -323 314 -323 q 41 -223 41 -279 q 438 -149 112 -199 l 363 124 l 363 224 z "},"굔":{"ha":840,"x_min":41,"x_max":786,"o":"m 662 994 q 786 596 786 862 q 686 547 726 547 q 612 572 638 572 q 637 720 612 590 l 612 845 l 438 820 l 165 820 q 90 895 129 820 l 90 920 q 165 969 90 969 q 214 944 214 969 l 662 994 m 438 596 q 612 298 612 596 l 612 249 q 736 199 736 249 l 736 149 q 686 100 736 100 l 66 100 l 41 224 l 41 249 l 214 249 q 165 572 165 472 l 239 572 q 339 249 307 572 l 413 249 q 488 323 449 249 l 413 522 q 438 596 438 570 m 115 -24 l 214 -24 l 239 -149 l 214 -199 l 264 -223 l 413 -223 q 513 -199 469 -223 q 587 -223 561 -223 l 637 -199 q 786 -298 786 -249 l 786 -323 l 761 -372 l 587 -347 q 165 -372 295 -372 q 90 -99 90 -252 q 115 -24 115 -51 z "},"굘":{"ha":840,"x_min":41,"x_max":786,"o":"m 115 1068 l 438 1068 q 736 895 736 1068 q 761 696 761 758 l 711 671 l 637 671 q 587 720 587 671 l 612 869 q 562 920 612 920 l 66 920 l 41 1019 l 115 1068 m 190 770 l 239 770 q 339 422 264 422 l 389 448 l 363 497 l 363 671 q 413 720 372 720 l 438 720 q 538 422 475 720 l 587 422 q 662 448 635 448 l 662 422 l 711 448 q 786 373 747 448 l 786 348 q 711 273 786 312 l 662 298 q 637 273 637 298 l 463 298 l 389 298 l 90 273 l 41 348 l 41 422 l 140 422 l 140 720 q 190 770 148 770 m 264 199 l 587 199 q 711 0 711 135 l 711 -50 q 214 -199 711 -154 l 190 -248 l 190 -298 l 314 -323 l 538 -323 q 612 -397 573 -323 l 612 -447 l 587 -496 q 41 -323 41 -447 l 41 -298 q 562 0 41 0 l 562 25 q 513 75 562 75 l 438 75 l 264 50 q 214 174 214 131 l 264 199 z "},"굡":{"ha":840,"x_min":41,"x_max":786,"o":"m 637 1044 l 662 1044 q 786 596 770 1044 l 736 572 l 662 572 q 612 621 612 572 l 612 646 q 662 696 620 696 q 587 920 662 764 l 165 869 l 140 920 l 140 1019 q 637 1044 475 1044 m 214 671 q 289 646 262 646 l 289 522 q 264 497 289 497 q 289 397 289 454 l 463 397 q 413 596 463 421 l 413 621 q 463 671 421 671 q 637 397 515 671 q 711 323 673 397 l 711 298 q 662 249 711 249 l 115 249 q 41 323 79 249 l 41 397 l 140 397 l 140 522 q 214 671 155 671 m 190 224 q 239 174 239 216 l 239 149 q 190 -50 190 -28 l 190 -273 l 314 -298 l 438 -298 q 587 -223 567 -298 l 587 -199 l 289 -199 q 214 -124 254 -199 l 214 -99 q 264 -50 222 -50 l 339 -50 l 488 -75 q 637 -50 525 -50 l 637 75 q 711 149 637 111 q 761 100 761 142 l 761 -24 q 637 -397 736 -397 l 587 -372 q 389 -422 496 -422 l 314 -422 q 41 -75 41 -422 q 190 224 41 97 z "},"굣":{"ha":1014,"x_min":41,"x_max":960,"o":"m 885 1044 q 910 969 885 1017 q 810 596 876 596 l 736 596 l 736 770 l 761 895 q 214 845 313 869 q 115 969 115 869 q 885 1044 422 1019 m 264 671 l 289 671 q 413 348 363 671 l 538 348 q 488 621 538 381 l 562 671 q 662 373 662 671 l 662 348 q 810 224 810 348 q 761 174 761 216 l 463 199 l 90 199 q 41 249 41 199 l 41 323 l 289 348 q 214 646 214 578 l 264 671 m 736 50 q 960 -472 848 50 l 960 -496 l 861 -522 l 711 -124 q 438 -347 668 -124 q 339 -199 339 -323 q 736 50 684 50 z "},"구":{"ha":939,"x_min":41,"x_max":885,"o":"m 637 1044 q 736 646 736 936 l 736 621 q 686 572 686 621 q 587 596 643 596 l 587 720 l 562 895 l 140 845 q 115 969 115 878 l 637 1044 m 836 497 l 885 422 q 562 323 885 334 l 562 273 q 587 -99 562 149 l 538 -124 l 513 -124 q 413 174 413 -124 l 413 298 l 363 273 l 239 273 q 41 348 56 273 l 41 397 l 66 448 l 239 422 l 836 497 z "},"국":{"ha":989,"x_min":41,"x_max":935,"o":"m 587 1118 l 686 820 l 885 820 q 935 770 935 812 l 935 696 q 587 621 657 621 l 587 596 q 761 273 587 488 l 836 -149 q 810 -223 810 -197 l 761 -223 q 637 249 667 -223 l 612 249 l 165 149 l 115 149 l 90 273 q 488 397 439 357 q 413 596 488 456 l 289 572 l 190 572 q 41 671 66 572 q 66 745 66 719 l 239 745 q 538 795 538 745 q 463 944 513 944 q 190 895 218 895 l 140 895 q 90 944 90 895 l 90 1044 q 190 1068 103 1044 l 190 1044 q 587 1118 291 1093 z "},"군":{"ha":915,"x_min":41,"x_max":861,"o":"m 562 1192 q 637 795 612 1133 q 662 770 662 795 l 711 795 l 810 795 q 861 745 861 787 l 861 696 q 711 621 836 621 l 711 646 q 612 621 668 621 l 612 596 q 662 323 662 356 q 612 273 662 273 l 513 273 l 513 298 q 463 621 513 478 l 413 596 l 264 596 l 90 646 l 90 770 l 314 745 l 488 770 l 488 1044 q 115 1019 176 1019 l 66 1093 l 66 1168 l 140 1168 q 562 1192 271 1168 m 41 348 l 140 348 q 190 75 140 303 l 289 75 q 711 100 420 75 l 736 50 l 736 -50 q 239 -99 459 -50 q 41 224 41 -59 l 41 348 z "},"굳":{"ha":865,"x_min":41,"x_max":810,"o":"m 66 1118 q 264 1093 243 1093 l 562 1118 q 686 820 609 1067 q 786 745 786 808 l 786 671 q 736 621 786 621 l 538 621 q 587 323 587 449 q 736 373 669 373 l 761 323 l 761 249 q 538 174 582 174 l 264 174 l 264 149 q 289 75 289 101 l 587 75 q 612 50 612 75 l 662 75 l 736 75 q 810 -24 810 75 q 786 -99 786 -73 l 612 -75 l 339 -75 q 140 249 140 -75 l 140 273 q 190 323 148 323 l 488 323 q 413 596 438 434 l 239 596 q 90 671 111 596 l 90 770 l 314 745 q 538 795 351 745 l 538 820 q 463 969 538 949 l 165 944 q 41 1044 52 992 q 66 1118 66 1092 z "},"굴":{"ha":865,"x_min":41,"x_max":810,"o":"m 488 1118 l 538 1118 q 612 869 612 958 l 612 820 q 786 795 687 820 l 786 696 q 736 646 786 646 l 538 646 l 538 621 q 736 422 538 477 l 786 249 l 786 199 q 562 -24 786 -24 l 239 -24 q 190 -75 190 -33 l 190 -149 q 264 -174 216 -149 q 711 -124 678 -149 q 810 -199 810 -161 l 810 -223 q 736 -298 810 -259 l 513 -298 q 289 -323 423 -298 q 66 -174 66 -260 l 66 -75 q 165 100 66 59 l 488 100 q 662 199 621 100 l 662 273 q 612 323 662 323 l 587 323 q 214 298 463 323 l 165 373 l 165 448 l 190 448 l 438 472 q 413 646 413 571 q 115 621 373 646 q 41 646 67 646 l 41 745 l 66 795 q 214 770 196 770 q 463 920 420 770 l 463 969 q 66 895 199 895 l 41 944 l 41 994 q 488 1118 41 1044 z "},"굵":{"ha":1088,"x_min":41,"x_max":1034,"o":"m 488 1093 l 562 1093 q 786 745 724 1093 q 910 696 910 745 l 910 596 l 786 572 l 637 572 l 637 547 q 711 348 711 422 l 711 323 q 662 273 711 273 q 686 199 686 225 l 910 199 q 1034 -273 1019 199 l 935 -298 q 836 50 871 50 l 786 50 q 190 -75 294 -75 l 190 -149 l 314 -149 q 413 -174 370 -149 q 513 -149 456 -149 l 562 -248 q 538 -323 538 -296 l 289 -298 l 165 -298 q 41 -174 132 -298 q 214 100 41 100 l 214 75 q 562 149 400 100 l 562 174 q 513 224 562 224 l 214 199 l 190 249 l 190 298 q 463 373 190 373 l 562 373 l 562 397 q 513 547 513 479 l 438 547 l 190 522 q 115 572 190 572 l 140 696 l 438 696 l 612 720 l 612 820 l 587 944 l 488 944 q 214 895 243 895 l 165 969 l 165 1019 q 488 1093 165 1093 z "},"굶":{"ha":1163,"x_min":41,"x_max":1109,"o":"m 488 1168 q 711 696 665 1168 q 861 572 861 609 q 836 497 836 524 l 587 497 q 637 348 587 429 q 612 273 612 300 q 637 298 637 273 l 761 273 l 985 298 q 1109 149 1109 249 q 960 -149 1109 33 q 637 100 652 -149 l 612 100 q 190 -24 612 -24 l 190 -50 q 562 -174 562 -116 l 562 -223 q 513 -273 562 -273 q 41 -99 41 -172 q 214 124 41 94 l 264 100 l 314 124 l 363 100 q 513 149 465 149 l 513 174 q 463 224 513 224 l 413 224 l 165 199 l 140 249 l 140 298 q 463 373 140 373 l 463 497 q 90 596 90 522 l 90 621 l 115 671 l 289 646 l 587 646 q 438 1044 587 1044 l 140 994 l 115 1044 l 115 1118 q 488 1168 431 1168 m 761 124 l 761 100 q 836 25 761 64 l 935 25 l 960 149 l 935 149 l 761 124 z "},"굻":{"ha":1238,"x_min":41,"x_max":1183,"o":"m 66 1118 l 90 1118 q 289 1068 267 1068 q 662 1093 602 1093 q 761 671 662 1053 l 761 596 q 810 522 786 596 q 786 448 786 474 l 587 448 l 612 199 q 711 75 669 199 l 761 50 l 910 75 l 960 75 l 960 124 l 786 124 q 736 174 736 124 l 736 224 q 786 273 744 273 l 935 273 l 1059 249 l 1059 100 l 1109 25 l 1109 0 q 662 -124 1109 -56 q 463 -223 623 -183 q 314 -174 314 -205 q 239 -199 266 -199 l 239 -248 l 513 -248 l 538 -372 l 538 -397 l 314 -397 q 66 -223 66 -379 q 239 -50 127 -50 l 413 -75 q 562 0 562 -50 l 562 75 q 463 100 507 75 l 239 50 q 165 75 191 75 l 165 174 q 214 224 173 224 l 438 224 q 488 273 488 224 q 339 472 488 472 q 90 596 90 472 l 90 646 q 488 596 373 596 l 637 596 l 562 944 l 190 944 q 41 1044 66 944 q 66 1118 66 1092 m 910 -99 q 1183 -273 1183 -99 q 1158 -397 1183 -397 q 960 -496 1099 -397 l 935 -496 q 711 -323 768 -496 q 910 -99 711 -163 m 836 -298 q 885 -347 844 -347 l 935 -347 q 1009 -273 970 -347 l 960 -273 l 836 -298 z "},"굼":{"ha":1014,"x_min":41,"x_max":960,"o":"m 662 969 q 861 497 731 900 q 960 422 960 485 l 960 397 q 662 323 960 348 l 662 298 l 711 199 q 686 100 686 155 q 836 25 836 75 l 836 0 q 587 -422 836 -102 l 562 -422 l 140 -223 l 115 -99 l 190 174 l 239 174 l 314 124 l 587 124 q 389 373 528 373 q 363 348 363 373 q 41 448 41 373 q 115 522 41 483 q 711 472 614 497 q 587 820 644 820 q 115 770 203 770 q 90 845 90 819 q 115 920 115 893 l 662 969 m 239 -75 l 239 -149 q 562 -248 283 -149 q 637 -50 637 -170 q 538 -24 593 -24 l 289 -24 q 239 -75 239 -33 z "},"굽":{"ha":815,"x_min":41,"x_max":761,"o":"m 538 1019 q 662 845 662 984 l 662 795 l 637 745 q 761 671 761 728 l 761 646 q 686 572 761 610 l 562 572 l 562 497 q 711 373 711 401 l 711 -24 q 587 -298 673 -298 q 66 50 66 -298 q 41 224 41 81 l 41 298 q 90 348 48 348 l 115 348 q 190 100 165 348 l 214 100 q 413 124 236 100 q 587 75 461 124 l 587 273 l 562 273 q 488 249 514 249 l 438 323 q 463 397 438 349 l 438 547 l 140 547 l 115 671 l 165 696 l 463 696 q 538 845 463 753 l 513 895 q 140 845 240 845 l 90 920 l 90 994 q 538 1019 136 994 m 264 -50 l 264 -99 l 488 -149 q 562 -124 536 -124 l 562 -50 l 264 -50 z "},"굿":{"ha":964,"x_min":41,"x_max":910,"o":"m 612 1118 q 711 795 711 991 q 686 720 686 747 l 736 720 l 861 745 l 910 671 l 910 646 q 662 547 910 602 q 885 -24 662 260 l 885 -75 q 836 -124 885 -124 l 810 -124 q 612 199 728 -109 q 438 -50 558 199 l 314 -50 l 314 50 q 562 448 562 380 q 488 547 525 547 l 239 522 q 90 671 90 572 q 115 696 115 671 l 289 671 l 488 671 q 562 770 488 770 l 562 969 q 140 944 271 944 q 41 1044 101 944 l 41 1093 l 66 1093 l 214 1068 q 612 1118 420 1118 z "},"궁":{"ha":989,"x_min":41,"x_max":935,"o":"m 711 1019 q 786 720 786 932 l 786 696 q 935 621 935 696 l 935 572 q 885 522 935 522 l 711 522 q 861 75 711 199 q 910 -75 910 -7 l 910 -99 q 861 -149 910 -149 l 810 -149 q 761 -75 761 -149 q 612 -248 646 -248 l 587 -248 q 314 0 314 -207 q 587 298 314 161 q 562 497 562 475 l 488 497 q 264 472 399 497 q 140 547 140 504 l 140 596 q 214 646 140 646 q 637 696 637 646 q 662 770 637 722 q 637 869 637 814 q 66 795 597 869 l 41 845 l 41 944 l 66 944 q 711 1019 682 1019 m 562 124 q 463 0 463 14 q 513 -99 513 -60 l 587 -99 q 662 100 662 53 l 562 124 z "},"궂":{"ha":1014,"x_min":41,"x_max":960,"o":"m 612 1192 q 786 969 786 1136 l 786 720 q 960 646 960 720 l 960 621 q 686 547 960 547 q 736 397 736 465 l 736 373 q 711 348 736 348 q 761 199 761 267 q 711 0 761 159 q 935 -273 935 -116 q 885 -323 935 -323 l 861 -323 l 662 -149 l 612 -149 q 463 -397 531 -397 q 389 -323 427 -397 l 389 -273 l 637 199 l 612 199 q 289 174 401 174 l 239 249 q 289 323 264 323 q 612 348 597 348 l 612 373 q 538 547 538 481 q 389 522 407 522 q 115 621 115 541 l 115 646 q 190 720 115 682 q 289 671 289 701 l 413 696 l 587 696 l 662 944 q 562 1044 637 1044 q 165 994 280 994 l 90 994 q 41 1044 41 994 l 41 1093 q 612 1192 41 1148 z "},"궈":{"ha":1238,"x_min":41,"x_max":1183,"o":"m 140 969 q 214 944 214 969 l 339 969 l 463 969 q 562 795 562 928 l 562 646 l 513 572 l 513 547 l 562 572 l 612 572 q 686 448 669 572 q 562 373 605 373 l 463 397 q 389 348 389 373 l 413 249 q 389 224 413 224 l 413 100 l 413 0 q 339 -75 413 -35 q 264 0 303 -75 l 264 373 l 239 373 l 140 348 q 41 422 41 385 l 41 472 q 90 522 48 522 l 389 522 q 438 720 389 646 q 413 820 413 764 l 190 795 q 90 869 90 832 l 90 920 q 140 969 98 969 m 1059 770 l 1084 770 q 1183 174 1145 770 l 1109 174 q 985 497 1049 174 q 736 596 736 528 l 736 671 q 786 696 786 671 l 910 671 l 1009 671 q 1059 770 1009 770 z "},"궉":{"ha":1163,"x_min":41,"x_max":1109,"o":"m 66 1217 l 190 1192 l 264 1192 q 363 1217 320 1192 q 463 1192 407 1192 l 562 1192 q 637 745 637 915 q 612 646 612 702 q 736 596 736 646 l 736 522 l 637 522 l 389 547 l 389 323 l 413 323 q 314 149 379 149 l 289 149 q 239 249 289 188 l 264 547 l 190 547 q 41 671 41 547 q 90 720 90 671 l 190 696 q 488 770 488 714 l 488 1019 l 463 1068 l 214 1044 l 90 1044 q 41 1143 90 1082 q 66 1217 66 1191 m 910 1143 l 960 1143 q 1084 820 1009 1143 l 1059 820 q 1109 522 1084 778 l 1034 472 l 960 472 l 960 671 q 885 820 960 800 l 761 820 l 736 944 q 910 969 768 969 l 885 1019 l 910 1143 m 612 199 l 861 199 q 985 -174 968 199 q 910 -273 947 -273 q 836 -124 836 -248 l 836 -99 q 861 -75 836 -75 q 836 50 836 -33 l 612 50 q 562 100 562 50 l 562 149 q 612 199 570 199 z "},"권":{"ha":1114,"x_min":41,"x_max":1059,"o":"m 463 1143 l 488 1143 q 637 696 602 1143 q 662 621 662 696 l 662 596 q 363 547 465 547 l 363 224 q 314 174 363 174 l 289 174 q 214 273 227 174 l 239 497 q 41 547 87 547 l 41 671 l 239 671 q 488 820 420 671 l 488 869 q 438 994 488 994 q 190 944 334 994 q 41 1068 41 969 q 463 1143 322 1143 m 885 944 l 985 944 q 1059 422 1034 703 q 1034 348 1034 374 l 960 348 q 885 422 924 348 l 885 696 q 761 770 761 696 l 761 820 q 810 869 769 869 l 836 869 l 885 845 l 885 944 m 562 298 l 662 298 q 686 174 662 215 q 662 75 662 131 l 662 50 q 960 124 873 124 l 1009 124 q 1034 50 1009 98 q 686 -99 1034 -33 q 562 -149 686 -149 q 513 0 513 -67 q 562 298 513 126 z "},"궐":{"ha":1163,"x_min":41,"x_max":1109,"o":"m 910 1044 l 960 1044 q 1109 621 1009 1044 l 1109 547 l 985 547 q 736 770 985 736 q 612 820 612 770 l 612 920 l 637 920 q 910 869 813 920 l 910 1044 m 488 994 q 587 745 587 842 q 562 671 562 697 l 513 671 l 389 869 l 214 845 l 90 845 q 41 895 41 845 l 41 969 l 66 969 q 488 994 404 994 m 140 621 l 587 621 q 637 572 637 614 l 637 472 l 339 472 l 339 448 q 363 100 363 137 l 314 75 l 239 75 l 239 100 q 214 448 239 137 q 66 572 66 448 l 140 621 m 885 422 q 1059 273 979 422 l 1059 124 q 637 -75 1059 10 l 637 -199 l 662 -199 q 960 -174 702 -199 l 985 -223 l 985 -273 q 686 -372 985 -323 q 513 -174 538 -372 l 513 -75 q 861 149 513 87 q 935 199 935 149 l 935 249 q 885 273 885 249 q 686 224 794 224 q 637 273 637 224 l 637 323 q 885 422 637 378 z "},"궜":{"ha":1337,"x_min":41,"x_max":1282,"o":"m 562 944 q 686 596 686 779 q 662 522 662 548 l 587 522 q 513 795 538 522 l 488 795 l 190 770 l 165 820 l 165 869 q 562 944 165 944 m 985 895 l 1084 895 q 1158 273 1158 440 l 1109 249 l 1034 249 q 885 646 1034 646 q 761 696 761 646 l 761 795 l 836 795 l 960 770 q 985 895 985 811 m 66 522 q 339 472 241 472 q 662 497 354 472 q 711 373 711 416 q 413 298 413 323 l 438 75 q 413 0 413 26 l 363 0 q 289 199 289 16 l 289 323 q 41 448 41 360 l 41 472 l 66 522 m 1034 25 l 1059 25 q 1282 -372 1163 25 q 1233 -422 1282 -422 l 1183 -422 q 1059 -174 1152 -422 l 1009 -174 q 910 -397 1009 -207 l 836 -397 q 761 -199 777 -397 l 736 -199 l 488 -496 q 413 -472 439 -472 l 413 -447 q 711 -24 413 -305 l 786 -24 q 861 -149 842 -24 l 1034 25 z "},"궝":{"ha":1039,"x_min":41,"x_max":985,"o":"m 488 1044 l 538 969 l 538 745 q 612 373 538 611 q 389 298 389 343 l 389 149 l 363 -24 l 264 -24 l 239 124 q 264 323 264 301 l 140 323 q 41 422 101 323 l 41 448 l 66 497 l 239 472 l 389 472 l 438 497 l 413 671 l 413 895 l 165 869 l 140 869 q 90 920 90 869 l 90 944 q 488 1044 90 1018 m 836 820 l 885 820 q 985 249 965 820 q 960 174 960 201 l 861 174 l 836 472 l 836 547 q 612 621 612 572 l 612 720 l 836 720 l 836 820 m 736 50 q 935 -273 919 50 l 935 -298 q 885 -347 935 -347 l 836 -323 l 686 -347 l 637 -347 q 513 -149 513 -284 q 736 50 616 50 m 637 -174 l 662 -223 q 761 -199 705 -199 l 761 -124 l 686 -124 q 637 -174 637 -132 z "},"궤":{"ha":1337,"x_min":41,"x_max":1282,"o":"m 165 920 q 513 869 352 869 l 562 869 q 662 497 662 643 q 587 397 625 397 l 562 397 q 488 720 513 397 q 115 869 115 720 l 115 895 l 165 920 m 1009 596 q 1059 522 1059 596 l 1183 547 q 1282 124 1282 215 l 1233 100 l 1208 100 q 1134 249 1134 124 l 1109 249 q 1034 124 1109 124 q 960 199 998 124 l 960 323 q 736 422 770 323 l 736 448 q 786 497 744 497 l 885 497 l 935 472 q 1009 596 953 596 m 587 323 l 612 323 l 637 199 l 587 174 l 389 174 l 413 -124 l 413 -174 q 363 -223 413 -223 l 339 -223 q 264 -149 303 -223 l 264 149 l 165 149 l 41 174 l 41 298 q 587 323 413 323 z "},"궷":{"ha":1238,"x_min":41,"x_max":1183,"o":"m 438 1019 l 488 1019 q 612 745 574 1019 l 662 770 q 861 720 736 770 q 910 895 861 895 q 1084 795 994 795 q 1183 448 1109 582 q 1109 348 1146 348 l 1059 348 q 885 572 885 348 q 637 696 637 572 l 587 696 l 562 572 q 612 522 612 564 l 612 448 l 488 422 l 363 422 q 389 100 363 408 l 339 75 l 314 75 q 239 149 278 75 l 239 397 l 115 397 q 66 448 66 397 l 66 547 q 438 572 190 547 l 463 820 l 463 845 l 438 895 q 140 820 283 869 q 41 944 41 845 q 438 1019 202 1019 m 786 75 q 1059 -298 895 75 l 985 -347 l 960 -347 q 786 -124 814 -124 l 761 -124 l 612 -248 q 513 -149 513 -223 q 786 75 513 -99 z "},"귀":{"ha":1138,"x_min":41,"x_max":1084,"o":"m 637 845 l 711 720 l 711 522 l 736 273 l 513 224 l 538 174 l 538 -124 l 463 -124 q 363 224 420 -124 q 314 249 314 224 l 264 224 q 165 373 165 249 q 190 397 190 373 l 363 373 q 587 522 587 373 l 587 696 q 165 671 295 671 l 115 671 q 41 745 79 671 l 41 795 l 66 845 q 239 795 239 827 q 637 845 334 845 m 836 671 l 960 671 q 1084 50 1084 150 q 1009 25 1036 25 q 935 75 935 50 q 836 671 935 154 z "},"귁":{"ha":1138,"x_min":41,"x_max":1084,"o":"m 960 1019 q 1084 497 1045 1019 l 985 472 q 885 920 944 531 q 960 1019 922 1019 m 438 969 l 463 969 q 587 696 549 969 l 587 596 q 686 472 686 596 q 538 422 605 422 l 463 422 l 463 298 l 438 174 l 389 174 q 314 397 329 174 l 214 397 q 66 547 66 397 q 115 596 73 596 q 264 547 197 547 l 314 547 l 488 572 l 438 646 l 438 820 l 413 820 q 115 745 295 820 q 41 770 67 770 l 41 920 q 438 969 75 920 m 885 199 q 1009 -50 1009 161 l 1009 -199 l 910 -223 q 836 50 854 50 q 587 0 610 0 l 562 50 l 562 124 q 885 199 562 199 z "},"귄":{"ha":1238,"x_min":41,"x_max":1183,"o":"m 115 1068 q 190 1044 142 1068 l 488 1068 q 662 671 621 1068 l 587 621 l 513 621 q 463 671 463 621 l 463 720 l 513 720 l 513 869 q 438 944 513 889 q 190 895 324 895 q 115 920 142 920 l 115 1068 m 1059 920 q 1183 323 1139 920 l 1109 273 l 1059 273 l 1009 298 q 1034 397 1009 354 q 1009 795 1009 652 l 1009 869 q 1059 920 1017 920 m 810 572 l 861 472 q 836 397 836 424 l 612 397 l 612 124 q 562 75 612 75 l 538 75 q 463 373 463 75 l 438 373 q 140 323 182 342 q 41 348 96 348 l 41 497 l 66 497 l 810 572 m 637 149 l 736 149 q 761 50 736 94 l 736 -99 l 761 -99 q 1084 -75 1069 -75 l 1109 -199 q 711 -273 1038 -223 q 637 -223 637 -248 l 612 0 l 637 149 z "},"귈":{"ha":1114,"x_min":41,"x_max":1059,"o":"m 885 1093 l 910 1093 q 1059 646 975 1093 l 1059 572 l 935 572 q 861 1019 861 857 q 885 1093 885 1067 m 413 994 q 612 547 538 994 q 637 522 637 547 l 637 472 q 587 422 637 422 l 389 422 l 389 199 q 314 124 389 163 q 239 249 271 124 l 264 397 l 115 397 q 66 448 66 397 l 66 572 l 190 572 q 463 671 438 572 q 389 820 431 820 q 115 795 218 795 l 90 795 q 41 845 41 795 l 41 944 l 66 944 q 413 994 279 944 m 861 373 q 1059 75 1034 373 q 637 -99 1059 -40 l 612 -149 l 612 -174 q 1059 -273 612 -232 l 1059 -397 q 1009 -422 1009 -397 q 488 -199 488 -422 l 488 -75 q 935 124 488 39 l 935 199 l 637 174 l 612 224 l 612 323 q 861 373 815 348 z "},"귐":{"ha":1138,"x_min":41,"x_max":1084,"o":"m 66 1044 l 214 1019 q 562 1044 426 1044 q 662 646 662 903 q 637 547 637 603 q 810 472 810 547 l 810 448 q 736 373 810 412 q 711 397 711 373 q 363 199 363 348 q 190 0 208 0 q 140 50 140 0 l 140 75 q 264 373 140 128 l 214 348 l 190 348 q 41 472 41 348 l 115 522 q 190 497 142 522 l 513 547 l 488 671 q 538 696 538 671 q 488 895 538 770 l 363 869 l 115 869 q 66 920 66 869 l 66 1044 m 885 969 l 935 969 q 1084 448 968 969 l 1009 397 l 985 397 q 861 869 925 397 q 885 969 885 913 m 910 273 q 1009 249 954 249 l 1009 149 q 910 -223 1009 58 l 662 -223 q 587 -124 625 -223 q 612 100 612 10 l 612 174 q 910 273 847 273 m 736 0 l 736 -75 l 836 -75 l 885 100 l 836 100 q 736 0 797 100 z "},"귑":{"ha":1213,"x_min":41,"x_max":1158,"o":"m 363 1019 l 587 1019 q 662 770 662 859 l 662 621 q 711 522 711 561 q 686 448 686 474 l 389 448 l 389 273 q 314 199 389 238 l 239 199 l 239 273 l 264 448 q 41 547 41 448 q 66 621 66 595 q 488 596 357 596 l 538 596 l 538 671 q 413 869 538 869 q 339 845 365 845 l 339 869 q 115 820 295 845 l 66 895 q 363 1019 66 1019 m 1009 845 q 1158 448 1084 845 l 1158 422 q 1084 348 1158 387 l 1034 348 q 935 795 935 722 l 1009 845 m 910 273 l 1009 273 l 1009 124 q 662 -372 1009 -372 l 538 -372 q 413 -199 413 -338 q 562 249 429 249 l 587 149 l 587 -50 q 885 124 885 -50 q 910 273 885 143 z "},"귓":{"ha":1163,"x_min":41,"x_max":1109,"o":"m 538 895 q 662 522 595 819 q 736 497 710 497 l 736 422 q 562 323 736 367 l 562 298 l 587 199 q 562 124 562 151 l 488 124 q 413 298 438 124 l 289 273 l 214 273 q 41 373 81 273 q 90 422 48 422 l 289 422 q 513 547 396 422 l 488 596 l 488 745 l 314 720 l 314 745 l 264 720 l 214 720 q 165 770 165 720 l 165 845 q 538 895 524 895 m 985 895 l 1034 895 q 1109 249 1109 646 q 1009 224 1065 224 l 985 224 l 985 249 q 935 869 935 822 l 985 895 m 836 100 l 885 100 q 1059 -199 937 100 q 1084 -223 1084 -199 l 1084 -298 q 1034 -347 1084 -347 l 985 -347 q 836 -99 879 -99 l 686 -248 l 637 -248 q 587 -174 587 -248 q 836 100 587 -108 z "},"규":{"ha":815,"x_min":41,"x_max":761,"o":"m 488 944 l 587 944 q 736 596 703 944 q 637 497 711 497 q 562 522 589 522 l 587 696 l 587 745 q 513 820 587 781 q 140 720 216 720 q 90 770 90 720 l 90 820 q 488 944 90 869 m 66 448 q 239 397 114 448 q 736 448 600 448 l 761 397 l 761 298 q 637 273 678 298 l 736 -199 q 686 -248 736 -248 q 538 273 538 -248 l 339 273 l 339 100 q 363 -124 339 10 q 339 -199 339 -172 l 264 -199 q 214 -149 214 -199 l 214 224 q 41 323 214 255 l 41 397 l 66 448 z "},"균":{"ha":939,"x_min":41,"x_max":885,"o":"m 140 1093 l 264 1068 l 538 1068 q 736 820 736 1068 l 736 745 q 885 646 885 745 l 885 621 q 686 547 686 562 q 761 249 761 323 l 711 224 l 637 224 q 587 273 587 224 q 612 373 587 330 q 438 572 581 572 q 413 547 438 547 q 463 199 463 359 l 413 174 l 363 174 q 239 547 297 547 q 140 596 140 547 l 140 696 l 165 696 q 587 720 248 696 l 562 770 l 562 820 q 612 845 612 820 l 538 944 l 289 920 l 190 920 q 115 994 154 920 l 115 1044 l 140 1093 m 41 273 l 140 273 q 264 -50 212 -50 l 289 -50 q 786 25 426 -50 l 810 -24 l 810 -124 q 289 -199 424 -199 l 214 -199 q 41 273 41 -114 z "},"귤":{"ha":915,"x_min":41,"x_max":861,"o":"m 463 1242 q 686 969 686 1192 l 686 895 q 861 820 861 895 l 861 795 q 786 720 861 760 l 587 720 q 736 298 618 426 l 761 149 l 761 124 q 662 25 761 85 l 438 25 l 264 0 l 264 -99 l 438 -124 l 488 -99 l 538 -124 l 686 -99 l 736 -99 q 786 -149 786 -107 l 761 -273 q 612 -248 743 -273 q 339 -273 392 -273 q 115 -50 115 -245 l 115 50 q 637 174 115 174 l 637 249 q 538 298 598 249 q 140 249 503 298 l 115 249 l 115 397 q 289 422 191 397 l 264 671 l 264 696 l 66 696 q 41 795 66 751 q 66 869 66 843 l 239 845 q 538 920 538 845 q 562 969 538 969 l 513 1093 q 140 1019 444 1093 l 90 1093 l 90 1143 q 463 1242 90 1185 m 413 696 l 413 448 l 513 448 l 488 572 l 488 696 l 413 696 z "},"귬":{"ha":939,"x_min":41,"x_max":885,"o":"m 140 1168 q 289 1118 222 1118 l 587 1118 q 736 820 637 1118 l 786 845 l 836 845 q 885 795 885 837 l 885 720 q 836 671 885 671 q 810 696 810 671 q 662 671 773 671 q 761 373 662 659 l 761 348 l 637 323 l 612 323 q 562 373 562 323 l 587 472 q 538 646 538 547 l 413 646 l 413 572 q 389 472 413 515 q 413 373 413 429 l 413 273 l 562 273 q 786 124 724 273 q 662 -223 721 -223 q 463 -174 571 -174 q 140 -199 448 -174 q 41 50 41 -73 q 115 273 56 273 l 165 273 q 190 224 165 224 l 314 249 q 264 448 264 339 l 264 572 l 289 621 q 90 720 90 671 l 90 795 q 140 820 140 795 l 264 795 l 438 795 q 587 845 506 795 q 513 969 555 969 l 314 969 q 66 1143 66 969 q 140 1168 114 1168 m 165 50 l 165 0 q 214 -50 173 -50 q 538 -24 230 -50 q 612 -50 586 -50 q 637 100 612 -31 l 587 124 l 538 124 q 165 50 389 124 z "},"그":{"ha":865,"x_min":41,"x_max":810,"o":"m 463 969 q 736 472 736 969 q 761 273 761 336 l 686 224 l 662 224 q 612 298 612 224 q 488 820 612 820 q 90 770 205 770 q 41 820 41 770 l 41 920 l 463 969 m 736 124 l 761 124 q 810 75 810 117 l 810 0 q 761 -50 810 -50 q 686 -24 686 -50 q 90 -124 195 -124 l 66 -75 l 66 25 l 90 25 q 736 124 640 124 z "},"극":{"ha":865,"x_min":41,"x_max":810,"o":"m 463 944 q 662 472 551 858 q 810 373 810 472 q 786 298 786 325 q 289 249 648 298 q 90 298 136 298 l 90 448 l 339 422 l 463 422 l 513 448 q 413 795 463 730 l 115 720 q 41 745 67 745 l 41 869 q 463 944 91 869 m 140 50 l 587 50 q 711 -372 686 50 l 711 -397 l 637 -397 q 538 -99 581 -397 l 190 -99 q 140 -50 140 -99 l 140 50 z "},"근":{"ha":1063,"x_min":41,"x_max":1009,"o":"m 488 1044 q 686 596 623 1044 l 612 547 l 587 547 q 513 820 538 547 l 463 869 q 115 845 153 845 l 41 944 l 41 1019 q 239 994 103 1019 q 488 1044 443 1019 m 736 522 l 761 472 l 761 373 q 339 348 469 348 l 115 348 q 66 397 66 348 l 66 448 l 90 497 l 214 472 l 736 522 m 264 224 l 339 174 l 314 0 l 314 -50 q 985 25 767 25 l 1009 -24 l 1009 -75 q 314 -199 1009 -131 q 264 -223 314 -223 q 190 -50 190 -132 l 190 25 q 264 224 190 208 z "},"귿":{"ha":840,"x_min":41,"x_max":786,"o":"m 538 1068 q 686 770 686 1019 l 686 745 q 612 671 686 709 l 587 671 l 513 720 l 538 845 l 538 869 l 513 920 q 115 820 330 895 q 41 845 67 845 l 41 969 l 538 1068 m 761 671 l 786 547 q 264 472 638 472 l 90 472 q 41 522 41 472 l 41 621 l 264 621 q 761 671 408 621 m 637 249 l 662 149 q 314 75 619 100 q 239 -99 239 -16 l 463 -99 l 612 -75 q 786 -149 786 -108 l 786 -199 l 761 -248 q 488 -223 541 -223 l 314 -248 l 264 -223 q 165 -248 221 -248 q 90 -174 129 -248 l 90 -124 q 463 249 141 249 l 637 249 z "},"글":{"ha":840,"x_min":41,"x_max":786,"o":"m 538 1192 q 612 969 612 1097 l 612 795 l 587 745 q 736 671 736 745 l 736 646 q 339 572 736 572 l 115 572 q 41 696 58 572 l 90 720 l 513 720 q 463 1044 488 987 q 115 994 193 994 q 66 1093 66 1055 q 90 1168 90 1141 q 165 1143 117 1168 q 538 1192 399 1192 m 538 522 l 587 522 q 786 323 786 522 l 786 273 q 214 75 692 75 l 214 50 q 339 -50 239 -50 q 612 0 400 -50 l 662 -75 l 662 -174 l 637 -174 q 264 -199 576 -174 q 90 50 90 -124 l 90 124 q 637 298 90 201 l 662 348 l 662 373 l 637 373 q 264 298 503 373 l 214 298 q 165 348 165 298 l 165 422 q 538 522 461 522 z "},"긁":{"ha":1088,"x_min":41,"x_max":1034,"o":"m 538 1068 q 662 671 662 886 l 810 671 q 885 596 846 671 q 165 422 885 490 l 115 422 q 41 497 79 422 l 41 522 q 513 621 41 572 q 538 720 513 720 q 488 920 488 848 q 165 820 367 895 q 66 944 66 845 q 538 1068 230 1019 m 214 348 l 413 348 q 587 249 547 348 q 861 348 668 292 q 1034 174 1034 329 l 1034 -124 q 960 -174 1034 -174 q 885 -149 911 -149 l 885 -99 l 910 199 l 885 199 q 686 149 862 199 l 612 149 q 264 0 612 0 l 264 -50 l 513 -50 q 562 -99 562 -57 l 562 -199 l 239 -199 q 115 0 115 -135 l 115 50 q 438 174 115 124 l 438 199 q 413 224 413 199 l 289 199 l 264 199 q 214 249 214 199 l 214 348 z "},"금":{"ha":915,"x_min":41,"x_max":861,"o":"m 463 1143 l 562 1143 q 686 795 654 1143 q 662 720 662 747 l 810 720 q 861 671 861 713 l 861 621 q 140 522 861 522 q 41 646 41 547 q 90 696 90 646 l 214 671 l 389 671 q 538 895 538 671 l 538 944 q 463 994 538 994 q 115 944 198 944 l 41 944 l 41 1093 l 190 1093 q 463 1143 434 1143 m 637 397 q 736 149 736 397 q 662 -124 736 -124 l 463 -124 l 314 -149 q 190 25 190 -109 q 289 373 222 373 q 314 348 314 373 q 637 397 538 397 m 314 25 q 339 0 339 25 q 612 75 612 25 l 612 224 q 339 100 339 224 q 314 25 339 73 z "},"급":{"ha":915,"x_min":41,"x_max":861,"o":"m 463 1143 q 711 869 662 1143 l 711 745 l 686 696 q 861 621 846 696 l 861 596 q 711 497 861 547 l 612 522 q 339 497 442 497 l 339 199 l 587 224 l 562 448 l 587 448 q 736 0 736 448 q 587 -199 736 -199 l 438 -199 q 190 323 190 -199 l 190 472 q 90 621 90 497 l 115 621 q 562 770 562 621 q 587 795 562 795 q 438 994 587 994 q 66 869 380 994 l 66 895 q 41 994 41 938 l 41 1019 q 463 1143 363 1143 m 363 0 q 413 -50 372 -50 l 587 -50 l 612 75 q 363 0 363 50 z "},"긋":{"ha":1039,"x_min":41,"x_max":985,"o":"m 513 1044 l 612 1044 q 761 572 736 1016 q 736 497 736 524 q 885 397 885 497 l 885 373 q 761 323 804 323 l 761 348 q 90 273 485 273 l 41 348 l 41 397 l 66 448 l 190 422 q 587 522 587 439 q 637 596 587 596 q 538 920 598 920 q 214 820 268 820 q 165 869 165 820 l 165 920 q 513 1044 165 985 m 662 149 q 985 -273 793 149 q 960 -347 960 -321 l 861 -347 q 686 -24 827 -182 q 413 -372 618 -48 l 389 -372 q 339 -323 339 -372 l 339 -298 q 662 149 339 -124 z "},"긍":{"ha":815,"x_min":41,"x_max":761,"o":"m 513 1093 l 587 1093 q 711 596 642 968 q 761 547 761 589 l 761 522 l 711 448 l 587 472 q 115 448 315 448 l 66 522 l 66 596 l 214 596 q 538 696 538 596 l 538 770 l 513 944 l 463 944 q 115 869 438 944 l 90 869 q 41 920 41 869 l 41 969 q 513 1093 41 1009 m 438 249 l 488 249 q 761 -50 692 249 l 761 -99 q 686 -174 761 -135 l 637 -149 q 562 -273 637 -191 q 140 -99 250 -273 l 140 -24 q 438 249 140 174 m 264 -24 l 264 -75 l 438 -124 l 538 -124 q 587 50 538 -50 l 463 124 q 264 -24 298 57 z "},"긔":{"ha":1238,"x_min":41,"x_max":1183,"o":"m 66 1044 l 165 1019 q 587 1044 456 1044 q 761 397 686 949 q 637 298 736 298 l 587 373 l 612 472 q 488 920 553 920 q 115 869 254 869 q 41 944 79 869 l 41 994 l 66 1044 m 1034 820 q 1158 323 1114 820 q 1183 224 1183 323 q 1134 174 1183 174 l 1084 174 q 985 770 985 233 q 1034 820 992 820 m 587 174 l 637 174 q 686 100 686 174 q 239 -24 686 -24 q 140 -50 239 -50 l 90 25 l 90 75 q 587 174 438 174 z "},"기":{"ha":1387,"x_min":41,"x_max":1333,"o":"m 90 994 q 587 920 146 944 q 662 745 662 829 q 463 199 581 296 l 389 199 l 389 273 l 538 720 q 513 795 513 768 l 264 795 q 41 895 74 795 l 41 944 q 90 994 48 994 m 1158 994 l 1208 994 q 1333 199 1282 994 l 1282 174 l 1258 174 q 1158 869 1158 174 l 1158 994 z "},"긱":{"ha":1262,"x_min":41,"x_max":1208,"o":"m 41 1019 l 115 1019 q 562 869 224 954 q 637 745 637 810 q 339 323 600 536 l 314 323 q 239 397 278 323 l 239 422 q 488 745 488 665 q 41 895 69 834 l 41 1019 m 1084 994 q 1208 448 1164 994 q 1084 422 1175 422 q 1009 944 1034 587 l 1084 994 m 960 273 q 1109 100 1109 210 q 1059 -248 1109 39 l 985 -248 q 935 -199 935 -248 q 960 75 960 -28 l 960 100 l 935 100 q 637 75 895 100 l 612 124 l 612 149 q 960 273 614 183 z "},"긴":{"ha":1188,"x_min":41,"x_max":1134,"o":"m 935 1044 l 985 1044 q 1134 547 1033 1044 q 1109 448 1109 503 l 1009 448 q 960 497 960 448 l 985 547 q 910 969 910 869 q 935 1044 935 1017 m 41 1019 l 339 1019 q 587 795 587 1019 l 513 348 l 438 348 q 389 422 389 348 l 463 845 l 413 869 l 115 869 q 41 944 79 869 l 41 1019 m 463 224 l 488 224 l 513 100 l 513 -75 l 637 -75 l 885 -50 l 910 -174 q 587 -248 910 -230 q 389 -75 389 -248 l 389 25 q 463 224 389 208 z "},"긷":{"ha":1262,"x_min":41,"x_max":1208,"o":"m 1009 1217 l 1034 1217 q 1183 671 1073 1217 q 1208 621 1208 671 l 1134 572 l 1059 572 q 960 1192 960 1078 l 1009 1217 m 612 994 l 662 920 l 662 770 q 538 448 662 711 l 488 448 q 438 497 438 448 l 438 547 q 538 845 538 819 l 538 869 q 140 820 465 869 q 41 944 41 845 l 90 969 q 612 994 526 994 m 985 373 q 1059 298 1020 373 l 1059 249 l 1034 199 l 910 224 l 861 224 q 538 124 549 224 q 637 -75 577 -75 l 836 -75 l 985 -50 q 1059 -75 1033 -75 l 1059 -174 q 1009 -223 1059 -223 l 637 -223 q 413 174 413 -223 q 836 373 413 373 l 985 373 z "},"길":{"ha":1262,"x_min":41,"x_max":1208,"o":"m 1009 1267 l 1034 1267 q 1208 770 1067 1267 l 1109 696 l 1059 696 q 960 1242 960 1120 l 1009 1267 m 513 1143 q 637 920 637 1143 q 538 547 612 547 l 463 547 l 438 646 q 488 969 488 869 l 488 994 l 90 920 q 41 969 41 920 l 41 1044 q 513 1143 41 1112 m 861 572 l 910 572 q 1084 397 1057 474 l 1084 224 q 463 50 1084 93 l 463 -24 q 612 -99 463 -75 q 985 -75 860 -75 l 985 -174 q 836 -248 960 -248 l 612 -248 q 314 75 314 -248 q 861 249 314 249 q 960 323 960 286 q 885 397 960 359 l 810 397 q 612 348 787 397 l 587 348 q 538 397 538 348 l 538 448 q 861 572 538 522 z "},"긺":{"ha":1287,"x_min":41,"x_max":1233,"o":"m 836 1292 q 935 944 918 1292 q 985 770 985 944 l 985 696 l 885 696 q 786 1192 826 696 l 786 1242 q 836 1292 793 1292 m 463 1217 q 538 969 538 1040 l 513 969 q 538 944 513 944 q 438 621 498 621 l 389 621 l 363 720 l 363 1068 q 140 1019 255 1068 q 41 1093 41 1056 l 41 1192 q 463 1217 332 1217 m 488 422 q 736 149 736 316 l 736 124 q 289 -50 736 10 l 289 -124 l 463 -99 l 587 -99 q 662 -223 644 -99 l 587 -273 q 562 -248 562 -273 l 438 -273 l 289 -273 q 140 -75 140 -273 q 562 149 140 149 l 587 199 l 587 224 q 488 273 488 224 l 363 249 l 289 249 l 264 373 q 488 422 379 422 m 836 373 l 885 373 q 985 323 946 323 q 1183 348 1162 348 l 1233 273 l 1233 174 q 1134 -149 1233 -149 q 810 100 913 -149 q 761 149 761 100 l 761 199 q 836 373 836 290 m 960 149 l 960 100 q 1084 25 960 57 l 1109 75 l 1109 174 l 1084 174 l 960 149 z "},"김":{"ha":1188,"x_min":41,"x_max":1134,"o":"m 910 1192 l 985 1192 q 1134 646 1134 775 q 985 596 1052 596 l 960 646 l 985 745 l 861 1168 l 910 1192 m 66 1168 q 612 994 612 1130 l 612 869 q 413 422 612 679 q 339 448 365 448 l 339 522 l 488 944 q 289 994 289 969 q 214 969 241 969 q 41 1068 41 1003 l 41 1118 l 66 1168 m 910 448 q 1009 298 1009 422 l 1009 149 l 985 -99 l 885 -99 q 612 -149 857 -99 q 538 25 562 -149 q 736 397 538 397 q 910 448 736 439 m 662 25 l 686 25 q 885 174 885 25 l 885 273 l 786 273 q 662 25 711 273 z "},"깁":{"ha":1188,"x_min":41,"x_max":1134,"o":"m 935 1242 l 985 1242 l 1134 696 l 1134 621 l 1084 621 q 960 671 960 621 l 985 770 q 885 1217 885 1023 l 935 1242 m 90 1192 q 513 1118 165 1151 q 587 920 587 1013 q 314 547 469 547 l 289 596 l 289 671 q 438 969 438 876 l 389 994 l 239 994 q 41 1068 56 994 l 41 1143 q 90 1192 48 1192 m 538 472 l 612 472 q 562 25 562 224 l 562 -99 q 885 -24 616 -99 l 885 0 l 861 50 q 637 -24 679 -24 l 587 50 l 587 100 q 885 199 587 163 l 885 298 q 861 397 885 354 q 885 472 885 446 l 985 472 q 1034 174 1015 216 l 1009 124 q 1034 100 1009 100 q 861 -174 1034 -174 q 612 -248 733 -248 l 488 -248 q 438 -24 438 -87 l 438 149 q 538 472 456 472 z "},"깃":{"ha":1238,"x_min":41,"x_max":1183,"o":"m 985 1192 l 1009 1192 q 1183 547 1084 1192 l 1109 497 l 1059 497 l 935 1168 l 985 1192 m 562 1118 q 662 1044 662 1081 l 662 944 q 413 448 564 595 q 363 497 363 448 l 363 572 q 513 944 363 605 l 488 944 q 66 895 399 944 l 41 944 l 41 1019 q 562 1118 41 1068 m 935 323 l 960 323 q 1183 -50 1113 189 q 1158 -124 1158 -98 q 960 124 1019 -124 l 910 124 q 736 -124 910 75 l 662 -124 l 637 0 l 935 323 z "},"깄":{"ha":1337,"x_min":41,"x_max":1282,"o":"m 960 1267 l 1009 1267 q 1158 596 1158 745 l 1109 572 l 1084 572 q 910 1242 996 572 l 960 1267 m 513 1143 q 562 1044 513 1104 l 562 895 q 413 522 562 522 l 389 572 l 389 596 q 438 969 438 955 q 413 994 413 969 q 90 944 389 969 l 41 1019 l 41 1118 l 66 1118 q 513 1143 111 1118 m 1084 348 q 1282 -75 1244 163 l 1282 -124 l 1183 -149 q 1034 149 1079 126 q 885 -99 895 17 l 761 -99 q 736 75 736 -1 l 711 75 q 513 -174 536 -174 q 438 -99 477 -174 l 438 -75 q 686 298 658 298 l 736 298 q 836 149 836 249 l 861 149 q 1084 348 939 348 z "},"깅":{"ha":1238,"x_min":41,"x_max":1183,"o":"m 1009 1192 l 1034 1192 q 1183 621 1091 1192 q 1109 522 1146 522 l 1084 522 q 960 1168 997 522 l 1009 1192 m 637 1093 q 711 944 711 1068 q 538 497 682 497 l 513 547 q 562 944 562 909 l 538 944 q 66 869 440 944 l 41 920 l 41 994 q 637 1093 41 1061 m 810 373 l 910 373 q 1084 100 1084 269 l 1084 25 q 836 -199 1084 -7 l 711 -199 q 612 50 643 -199 l 612 100 q 810 373 612 231 m 736 124 l 736 75 q 786 -50 743 -50 q 910 149 910 -3 l 910 199 q 861 224 861 199 q 736 124 747 176 z "},"깆":{"ha":1090,"x_min":41,"x_max":1036,"o":"m 538 822 q 613 672 613 725 q 513 323 613 323 q 439 374 439 349 q 489 648 439 435 l 439 672 q 115 572 328 672 q 41 597 67 597 l 41 722 q 538 822 362 822 m 812 822 q 937 374 937 762 q 787 323 855 323 l 787 349 q 763 797 787 450 l 812 822 m 738 174 q 962 -199 798 -98 q 1036 -274 998 -199 q 1012 -349 1012 -322 l 987 -349 q 713 -199 904 -349 q 564 -398 596 -398 l 538 -398 q 489 -349 489 -398 l 489 -274 q 638 0 638 -50 q 613 25 613 0 q 340 -25 516 -25 l 340 75 q 738 174 340 157 z "},"깊":{"ha":1016,"x_min":41,"x_max":962,"o":"m 763 971 q 962 448 868 971 l 962 423 q 812 349 937 349 l 787 349 l 812 523 q 738 871 738 754 l 763 971 m 364 897 q 538 747 538 844 q 489 398 538 617 l 364 398 l 364 722 q 115 672 300 722 q 41 697 67 697 l 41 846 l 66 846 q 364 897 192 846 m 912 274 l 937 174 q 912 100 912 126 l 738 100 q 912 -298 738 -50 q 887 -374 887 -347 l 414 -374 q 364 -323 364 -374 l 364 -274 l 439 -174 q 414 50 414 -39 l 414 75 q 290 149 290 93 l 290 249 l 364 249 q 912 274 538 249 m 538 75 l 538 50 q 638 -199 570 -199 l 663 -199 l 638 -25 l 638 75 l 538 75 z "},"까":{"ha":1613,"x_min":41,"x_max":1559,"o":"m 838 722 q 987 523 987 671 l 987 199 l 1012 75 l 887 50 l 862 100 l 862 523 q 787 572 862 572 q 564 473 564 548 l 564 100 q 513 50 564 50 l 489 50 q 439 100 439 50 l 439 423 q 340 548 357 548 q 90 523 309 548 l 41 597 l 41 648 q 90 697 48 697 q 165 672 117 697 q 389 697 300 697 l 439 697 l 513 648 q 838 722 732 722 m 1261 697 q 1335 498 1335 682 l 1335 374 l 1510 374 q 1559 323 1559 366 l 1559 249 q 1510 199 1559 199 l 1385 224 q 1310 0 1355 0 l 1285 0 q 1211 323 1211 0 l 1211 648 q 1261 697 1219 697 z "},"깍":{"ha":1564,"x_min":41,"x_max":1510,"o":"m 1112 946 l 1211 946 q 1410 697 1211 697 q 1510 648 1510 697 l 1510 597 q 1410 523 1510 523 l 1285 548 l 1285 523 l 1310 473 q 1285 398 1285 425 l 1161 423 l 1161 448 q 1112 846 1112 812 l 1112 946 m 364 797 q 638 772 534 772 l 787 772 q 887 597 887 731 l 887 249 l 812 249 q 763 299 763 249 l 763 523 l 738 648 q 589 572 589 623 l 589 274 q 538 224 589 224 l 513 224 q 439 323 489 224 l 464 448 l 464 548 q 389 648 414 648 q 66 572 348 648 l 41 623 l 41 747 l 66 747 q 364 797 208 747 m 1211 199 q 1310 -149 1310 85 l 1310 -224 l 1186 -224 q 1161 50 1161 -3 l 1136 50 l 987 25 l 912 25 q 887 100 912 52 q 912 174 912 148 l 962 174 l 1211 199 z "},"깎":{"ha":1439,"x_min":41,"x_max":1385,"o":"m 1061 996 l 1112 996 q 1211 747 1161 996 q 1385 672 1385 722 l 1385 623 q 1310 548 1385 587 l 1261 572 q 1186 448 1229 448 l 1161 448 q 1036 921 1086 448 q 1061 996 1061 970 m 364 897 l 389 897 l 464 846 q 787 871 676 871 q 887 473 862 804 l 812 423 l 738 423 l 738 722 q 688 747 688 722 q 513 697 562 697 l 538 523 l 538 423 q 489 374 538 374 l 464 374 q 364 747 397 374 l 340 747 q 66 697 311 747 l 41 747 l 41 772 q 364 897 41 854 m 862 125 l 887 75 q 1112 125 1002 125 q 1211 -274 1211 9 l 1161 -298 l 1136 -298 q 1061 -224 1100 -298 l 1061 -25 l 1036 -25 l 912 -50 l 912 -174 l 887 -298 l 787 -298 q 763 -224 787 -272 q 787 -25 787 -87 l 763 -25 l 613 -50 l 589 75 q 862 125 624 100 z "},"깐":{"ha":1439,"x_min":41,"x_max":1385,"o":"m 215 971 l 315 971 q 414 921 375 921 q 613 946 591 946 q 812 772 781 884 q 688 299 738 299 l 638 299 q 589 374 589 299 q 663 772 589 434 l 513 772 l 538 722 l 538 623 q 464 473 538 493 l 389 473 l 389 597 q 414 697 389 654 q 240 822 380 822 l 41 822 l 41 946 l 215 971 m 1086 921 q 1161 772 1161 897 l 1136 648 l 1335 648 q 1385 597 1385 640 l 1385 473 l 1161 473 q 1112 349 1161 349 l 1061 349 q 1012 648 1012 522 l 1012 772 q 1086 921 1027 921 m 713 224 q 738 149 738 176 q 713 -124 713 -71 l 738 -124 q 1061 -75 850 -75 l 1086 -199 q 638 -274 1006 -274 q 589 -75 589 -182 l 589 -50 q 713 224 589 224 z "},"깔":{"ha":1464,"x_min":41,"x_max":1410,"o":"m 1086 1071 q 1161 871 1145 1071 l 1236 871 l 1410 822 l 1410 722 q 1335 648 1410 686 l 1310 648 l 1236 697 l 1161 697 q 1112 548 1161 548 l 1061 548 q 1012 822 1012 788 l 1036 822 l 1012 871 q 1086 1071 1012 1055 m 738 971 q 862 846 804 955 l 862 697 q 763 448 812 448 l 738 448 q 663 548 701 448 q 738 797 738 722 q 713 822 713 797 q 513 623 513 822 l 489 398 l 414 398 q 364 448 364 398 q 389 772 364 463 l 340 797 q 66 772 119 772 l 41 822 l 41 921 q 290 946 258 946 l 513 921 l 738 971 m 862 398 l 962 398 q 1112 149 1112 274 q 538 -75 1112 -75 l 489 -149 l 489 -199 l 613 -224 q 937 -199 922 -199 l 962 -323 l 887 -374 l 564 -374 q 340 -124 340 -374 q 937 125 340 125 l 962 174 q 887 249 962 210 q 713 174 823 249 l 688 174 q 638 224 638 174 l 638 299 q 862 398 638 354 z "},"깖":{"ha":1564,"x_min":41,"x_max":1510,"o":"m 1236 897 q 1485 747 1236 747 l 1510 697 q 1335 572 1470 572 q 1310 597 1335 597 l 1310 398 l 1186 423 l 1186 448 q 1161 897 1161 661 l 1236 897 m 115 822 l 215 822 q 613 797 359 822 q 688 822 661 822 q 838 623 838 770 l 838 398 q 763 249 838 269 l 738 249 q 688 323 688 249 q 713 648 688 339 l 638 648 l 513 623 l 513 349 q 464 299 513 299 l 439 299 q 389 349 389 299 l 389 623 l 340 697 q 66 648 242 648 l 41 772 l 115 822 m 1136 199 q 1510 100 1510 174 q 1385 -298 1510 17 l 1310 -298 q 1086 -75 1086 -224 q 1036 75 1086 18 l 1036 100 q 1136 199 1036 125 m 763 174 q 937 -50 937 101 l 937 -100 q 713 -224 868 -224 l 713 -249 l 887 -249 q 912 -323 887 -275 q 887 -398 887 -372 l 763 -398 q 489 -249 489 -366 q 812 -50 489 -141 l 812 -25 l 738 25 q 538 -25 579 -25 l 513 25 l 513 100 q 763 174 708 174 m 1211 25 l 1211 -100 q 1310 -124 1267 -100 l 1385 25 l 1211 25 z "},"깜":{"ha":1539,"x_min":41,"x_max":1485,"o":"m 1112 921 l 1186 921 l 1186 797 q 1335 597 1186 597 q 1485 548 1485 597 l 1485 473 l 1459 423 l 1335 448 l 1211 448 l 1211 323 l 1086 349 l 1086 473 q 1061 897 1086 604 l 1112 921 m 638 846 l 738 846 q 812 747 775 846 q 713 299 787 299 l 688 299 q 638 349 638 299 q 688 697 638 510 l 638 722 q 364 523 364 722 l 340 299 l 264 299 q 215 349 215 299 q 240 672 215 363 l 215 672 q 115 648 172 648 l 90 648 q 41 697 41 648 l 41 797 l 264 822 l 364 797 q 638 846 462 846 m 787 149 l 838 149 l 838 100 q 1086 149 1022 149 l 1161 0 q 1036 -423 1161 -197 q 663 -274 663 -423 l 663 -124 q 787 149 701 149 m 862 -50 l 787 -50 q 763 -174 787 -133 q 962 -274 777 -274 q 1036 -25 1036 -146 q 1012 0 1012 -25 q 862 -50 930 -50 z "},"깝":{"ha":1315,"x_min":41,"x_max":1261,"o":"m 962 996 q 1036 846 1036 971 l 1036 772 l 1236 772 l 1261 648 q 1012 498 1095 631 l 987 498 q 912 572 951 498 l 912 946 q 962 996 920 996 m 41 971 l 165 971 q 364 871 351 941 l 613 946 q 738 722 700 946 q 688 448 707 500 q 713 423 713 448 l 589 423 l 589 747 q 538 797 589 797 q 364 423 364 765 l 264 423 q 240 523 264 479 l 264 672 q 41 846 264 846 l 41 971 m 887 398 l 912 398 q 1012 0 995 398 q 912 -224 970 -224 l 564 -224 q 414 -75 414 -224 l 414 323 q 464 374 422 374 q 538 75 538 374 q 862 149 603 100 l 862 249 l 838 374 l 887 398 m 663 -50 l 663 -75 l 787 -75 q 862 -50 836 -50 l 862 0 q 663 -50 771 -50 z "},"깟":{"ha":1514,"x_min":41,"x_max":1459,"o":"m 1186 946 q 1285 672 1242 946 q 1459 623 1459 672 l 1459 572 q 1310 498 1435 498 l 1335 374 l 1285 349 l 1211 349 q 1112 523 1177 523 l 1136 822 l 1136 897 q 1186 946 1144 946 m 787 871 q 937 722 937 852 q 838 224 937 224 q 763 249 789 249 l 763 299 q 812 722 763 387 l 787 722 q 489 623 489 679 l 489 374 q 439 323 489 323 l 414 323 q 340 398 378 323 q 364 672 364 619 q 340 697 340 672 l 290 672 l 90 672 q 41 722 41 672 l 41 772 q 787 871 243 772 m 937 100 l 987 100 q 1236 -199 1031 98 l 1236 -274 q 1186 -323 1236 -323 q 987 -100 1156 -323 q 812 -274 883 -274 l 787 -274 l 763 -224 l 763 -174 q 937 100 909 100 z "},"깠":{"ha":1564,"x_min":41,"x_max":1510,"o":"m 1161 971 l 1211 971 q 1310 672 1285 971 l 1459 672 q 1510 623 1510 665 l 1510 572 q 1360 498 1510 523 l 1360 323 l 1310 323 q 1161 548 1261 330 q 1186 648 1161 604 q 1161 871 1161 782 l 1161 971 m 140 871 q 165 846 165 871 l 290 871 l 513 871 q 564 822 564 864 q 763 871 654 871 l 838 871 q 962 423 962 871 l 962 398 q 912 349 962 349 l 862 349 q 812 398 812 349 l 812 722 l 638 697 l 638 498 l 613 374 l 538 374 q 439 722 496 722 l 90 697 q 41 822 41 778 q 140 871 101 871 m 1211 125 q 1459 -199 1453 -94 q 1435 -274 1435 -248 l 1335 -274 q 1211 -75 1335 -185 q 1086 -274 1183 -75 q 1012 -298 1038 -298 q 937 -75 937 -117 l 912 -75 q 763 -323 862 -75 l 713 -323 q 663 -274 663 -323 l 663 -249 q 887 100 663 -84 l 937 100 q 1061 0 1047 0 l 1211 125 z "},"깡":{"ha":1564,"x_min":41,"x_max":1510,"o":"m 1086 971 q 1211 672 1147 971 l 1236 672 l 1485 697 l 1510 648 l 1510 572 q 1459 523 1510 523 l 1236 523 l 1236 398 q 1186 349 1236 349 q 1036 946 1074 349 l 1086 971 m 713 822 l 787 822 q 887 274 887 559 l 838 249 l 812 249 q 688 648 764 249 q 638 672 638 648 q 538 597 538 635 l 538 498 l 564 323 l 489 274 q 389 423 440 274 l 414 473 q 389 597 389 514 l 190 597 q 41 672 61 597 l 41 772 q 364 747 349 747 l 713 822 m 1012 100 l 1036 100 q 1285 -199 1285 41 l 1285 -298 q 1086 -398 1181 -298 l 962 -398 q 787 -124 787 -328 q 1012 100 787 -42 m 912 -199 q 987 -274 948 -199 q 1112 -199 1112 -242 l 1112 -124 q 1036 -50 1112 -89 q 912 -199 912 -109 z "},"깥":{"ha":1514,"x_min":41,"x_max":1459,"o":"m 1086 946 l 1136 946 l 1211 672 l 1435 672 l 1459 548 l 1385 498 l 1261 498 q 1186 349 1261 349 q 1036 871 1112 349 l 1036 897 q 1086 946 1044 946 m 264 871 q 812 846 701 846 q 912 374 912 579 q 887 274 887 330 l 838 274 q 713 697 772 274 l 688 697 q 613 672 640 672 l 613 398 q 538 323 613 363 q 439 548 486 323 l 464 597 q 389 722 432 722 l 264 722 l 90 697 l 41 772 q 264 871 55 871 m 1136 149 l 1186 75 l 1186 50 q 1112 -25 1186 14 q 1086 0 1086 -25 l 962 -25 l 613 -25 l 613 -100 l 663 -100 q 1086 -224 1086 -100 l 1061 -274 q 1112 -423 1112 -355 l 1036 -473 q 1012 -448 1012 -473 l 838 -473 l 638 -473 q 464 -174 464 -473 l 464 -25 q 688 125 464 125 q 1136 149 1038 125 m 613 -274 l 613 -323 l 937 -323 l 937 -274 q 787 -249 825 -274 q 613 -274 689 -274 z "},"깨":{"ha":1539,"x_min":41,"x_max":1485,"o":"m 713 697 q 887 323 887 697 q 838 -50 887 262 l 787 -50 l 713 0 l 738 249 l 738 523 l 713 523 q 513 448 529 523 l 513 323 l 538 174 q 464 50 507 50 l 439 50 q 364 125 420 50 l 389 299 l 364 473 l 115 448 q 41 523 79 448 l 41 572 q 90 623 48 623 l 264 623 l 414 648 q 489 623 463 623 q 713 697 568 662 m 1086 672 l 1161 672 l 1161 498 q 1211 448 1168 448 l 1261 448 q 1335 648 1261 632 l 1385 648 l 1410 548 l 1385 448 l 1485 -25 l 1435 -50 l 1385 -50 q 1261 274 1350 -50 l 1211 274 l 1211 50 l 1136 50 q 1036 648 1036 50 l 1086 672 z "},"깩":{"ha":1390,"x_min":41,"x_max":1335,"o":"m 41 1021 l 538 1021 q 564 996 564 1021 l 613 1021 q 862 747 862 1021 q 763 398 838 398 l 713 398 l 688 498 q 738 846 713 815 l 613 871 q 489 349 544 349 l 464 349 q 389 423 428 349 q 439 797 439 658 q 364 871 439 833 l 90 871 q 41 921 41 871 l 41 1021 m 937 996 l 1036 996 q 1112 871 1055 871 l 1161 871 l 1161 971 l 1285 971 l 1335 523 l 1261 473 q 1161 672 1201 473 l 1112 697 l 1086 697 l 1086 572 q 987 498 1086 535 q 912 921 937 630 q 937 996 937 970 m 812 249 l 1086 249 q 1186 -149 1169 249 l 1186 -174 q 1136 -224 1186 -224 l 1061 -224 l 1036 -100 l 1036 100 l 1012 100 l 838 75 q 763 100 789 100 l 763 199 q 812 249 770 249 z "},"깬":{"ha":1489,"x_min":41,"x_max":1435,"o":"m 364 996 l 464 946 q 688 971 599 971 l 763 971 q 838 822 838 946 l 838 448 q 763 374 838 412 l 738 374 q 688 423 688 374 q 713 822 713 677 l 638 822 l 513 797 l 513 697 l 489 448 l 364 448 q 389 822 364 573 q 315 846 341 846 q 90 797 153 797 q 41 846 41 797 l 41 871 q 364 996 136 996 m 1012 971 l 1086 971 q 1112 822 1112 840 l 1236 822 q 1285 946 1236 946 l 1310 946 q 1435 672 1354 946 l 1410 623 q 1435 523 1435 579 l 1410 423 l 1285 423 q 1261 498 1285 450 q 1285 597 1285 542 q 1236 648 1285 648 l 1136 648 l 1136 523 q 1086 473 1136 473 l 1012 473 l 1012 523 q 962 946 1012 612 l 1012 971 m 812 224 l 887 224 q 937 174 937 216 l 937 0 l 1360 0 q 1410 -50 1410 -7 l 1410 -100 l 1360 -174 l 1236 -149 l 887 -149 q 812 -75 851 -149 l 812 224 z "},"깰":{"ha":1415,"x_min":41,"x_max":1360,"o":"m 1061 1021 l 1086 1021 q 1161 846 1128 1021 l 1211 846 l 1236 996 l 1335 996 l 1360 822 l 1360 548 q 1310 498 1360 498 l 1236 498 q 1211 697 1211 595 l 1186 697 q 1161 523 1186 622 l 1086 523 q 1012 672 1012 548 l 1036 672 l 1012 722 l 1012 971 q 1061 1021 1019 1021 m 66 971 l 464 946 l 688 971 q 812 871 802 923 l 812 747 q 738 349 812 349 l 663 349 q 638 398 663 398 l 688 797 l 638 822 l 589 822 q 389 523 422 822 q 340 473 389 473 q 290 523 290 473 l 290 797 l 115 797 q 41 946 41 822 q 66 971 66 946 m 1086 323 q 1186 125 1186 218 l 1186 75 q 1086 -100 1186 -59 l 738 -100 q 638 -199 699 -100 l 638 -249 q 763 -274 763 -249 l 812 -249 l 962 -249 q 1012 -298 1012 -256 l 987 -423 l 962 -423 q 887 -398 887 -423 l 763 -423 q 489 -298 489 -412 q 763 50 489 10 q 1012 25 981 25 l 1061 100 l 1061 149 l 912 174 q 638 125 867 174 l 613 174 l 613 249 q 1086 323 613 323 z "},"깸":{"ha":1514,"x_min":41,"x_max":1459,"o":"m 1036 971 l 1061 971 q 1136 797 1103 971 l 1261 797 q 1335 946 1276 946 l 1360 946 q 1459 398 1410 780 q 1236 224 1372 224 q 1310 25 1310 100 l 1310 0 q 1136 -374 1229 -374 q 787 -149 787 -374 q 937 174 787 174 l 1112 224 l 1211 224 q 1310 398 1211 342 q 1261 648 1310 503 q 1136 473 1161 648 l 1036 473 q 987 846 987 707 l 987 921 q 1036 971 994 971 m 439 921 l 489 897 l 638 921 q 812 747 812 921 q 763 398 812 617 l 688 398 q 638 473 638 398 q 688 772 688 748 l 663 772 q 489 597 489 772 q 389 374 458 374 l 364 374 q 315 423 315 374 l 315 448 q 364 722 315 477 l 340 772 l 290 747 l 66 747 l 41 871 l 41 897 l 66 897 q 439 921 126 897 m 937 25 l 937 -199 l 1086 -199 q 1211 50 1149 -199 l 1161 75 q 937 25 1099 75 z "},"깹":{"ha":1364,"x_min":41,"x_max":1310,"o":"m 937 846 l 962 846 q 1012 797 1012 839 l 1012 672 l 1112 672 l 1112 797 q 1161 846 1119 846 l 1211 846 q 1310 349 1310 508 l 1310 299 q 1112 174 1246 174 l 1086 224 l 1086 274 q 1186 349 1136 274 q 1086 523 1171 523 q 1012 498 1038 498 l 1012 374 q 962 323 1012 323 q 862 523 887 323 l 887 523 l 862 572 q 937 846 862 846 m 364 797 l 389 747 l 589 797 q 763 623 763 778 q 564 299 763 299 l 538 349 q 638 623 538 392 q 613 648 613 623 q 389 423 389 648 q 364 249 389 348 l 315 249 q 240 323 279 249 q 290 572 260 572 q 264 648 264 621 l 140 623 l 115 623 q 41 697 79 623 q 90 772 66 772 q 364 797 311 797 m 1036 149 l 1112 149 q 1186 -75 1171 149 q 1036 -473 1186 -473 l 1012 -473 l 1012 -448 l 962 -473 l 912 -473 q 513 100 513 -473 l 564 125 l 589 125 q 663 -149 663 125 l 1061 -50 l 1036 75 l 1036 149 m 812 -274 l 812 -298 l 987 -323 q 1036 -274 1036 -323 l 1036 -224 q 812 -274 999 -224 z "},"깻":{"ha":1415,"x_min":41,"x_max":1360,"o":"m 987 897 q 1061 871 1035 871 l 1061 697 q 1112 648 1069 648 l 1136 648 l 1136 822 q 1186 871 1144 871 q 1360 398 1241 871 q 1211 274 1345 274 l 1186 323 q 1211 423 1186 380 q 1161 498 1186 498 l 1036 398 l 1012 398 q 937 797 954 398 q 987 897 956 897 m 41 822 l 240 822 q 439 797 342 822 q 638 822 536 822 l 713 822 q 838 597 838 753 q 713 199 779 199 q 638 224 665 224 q 688 648 638 313 q 613 672 640 672 q 464 448 464 672 q 389 323 446 323 l 315 323 q 290 398 315 350 q 340 597 340 557 q 290 672 290 597 l 90 672 q 41 722 41 672 l 41 822 m 1012 125 l 1036 125 q 1261 -274 1141 125 l 1261 -349 l 1186 -349 q 1036 -75 1150 -349 l 1012 -75 q 838 -298 879 -295 l 812 -298 q 763 -249 763 -298 l 763 -174 q 1012 125 975 125 z "},"깼":{"ha":1390,"x_min":41,"x_max":1335,"o":"m 887 946 l 987 946 q 1012 747 987 884 l 1086 747 l 1086 871 q 1136 921 1094 921 q 1236 747 1177 921 q 1285 672 1261 747 l 1261 623 q 1310 398 1310 460 l 1310 349 q 1261 299 1310 299 l 1211 299 q 1161 349 1161 299 l 1161 374 q 1186 398 1161 398 q 1086 597 1121 597 l 1061 597 q 987 448 1061 469 l 937 448 l 862 871 q 887 946 887 920 m 90 846 l 290 846 q 414 797 414 840 q 613 846 542 846 q 738 523 738 725 q 663 299 718 299 q 589 374 627 299 l 589 672 l 489 672 q 414 374 414 672 l 340 374 q 290 423 290 374 l 290 648 l 264 697 l 215 672 l 115 672 q 41 747 79 672 l 41 797 q 90 846 48 846 m 1112 174 l 1161 174 q 1335 -174 1236 174 q 1285 -224 1335 -224 l 1236 -224 q 1136 -25 1181 -224 l 1112 -25 q 962 -323 1022 -323 l 937 -323 q 838 -50 899 -323 l 812 -50 q 613 -298 644 -298 l 589 -298 q 513 -174 532 -298 q 812 149 780 149 l 862 149 q 962 0 912 149 q 1112 174 987 0 z "},"깽":{"ha":1489,"x_min":41,"x_max":1435,"o":"m 315 897 l 439 846 q 713 871 610 871 q 787 722 787 846 q 638 349 705 349 l 613 349 q 564 398 564 349 l 564 448 q 638 722 638 692 l 613 722 q 489 672 489 716 q 414 398 489 398 l 340 398 q 315 473 340 425 q 364 722 364 658 l 315 747 q 90 697 252 747 l 41 772 l 41 846 q 315 897 86 846 m 987 897 q 1086 722 1043 897 q 1112 697 1112 722 q 1261 897 1261 697 l 1310 897 q 1435 423 1350 897 q 1335 299 1387 310 l 1310 299 q 1261 374 1261 299 l 1285 473 q 1261 572 1261 517 q 1086 473 1086 572 q 1036 398 1086 398 l 987 398 q 937 822 937 597 l 937 846 q 987 897 945 897 m 1061 149 q 1360 -149 1360 80 l 1360 -224 q 1285 -274 1360 -274 q 1211 -249 1237 -249 q 1061 -349 1186 -349 l 1012 -349 q 862 -124 862 -261 l 862 -100 q 1061 149 862 47 m 987 -124 q 1012 -199 1012 -173 l 1061 -199 q 1161 -25 1161 -159 q 1112 0 1112 -25 q 987 -124 987 -42 z "},"꺄":{"ha":1589,"x_min":41,"x_max":1535,"o":"m 1136 822 l 1186 822 q 1261 572 1221 572 q 1410 597 1279 572 q 1535 498 1524 549 l 1535 473 q 1485 423 1535 423 l 1360 448 q 1261 423 1316 423 q 1485 349 1261 378 l 1485 224 l 1360 199 l 1261 224 l 1261 125 l 1236 -50 l 1161 -50 l 1112 -25 q 1136 299 1136 187 q 1086 797 1086 751 l 1136 822 m 66 697 l 240 672 l 290 672 l 414 697 l 439 648 q 638 697 530 697 l 738 697 q 862 473 862 628 q 738 25 831 25 q 688 75 688 25 q 713 548 713 471 q 688 572 688 548 q 464 249 464 572 q 414 125 464 125 l 340 125 q 315 224 340 180 q 364 523 364 460 l 190 523 q 41 597 61 523 l 41 648 l 66 697 z "},"꺅":{"ha":1489,"x_min":41,"x_max":1435,"o":"m 1012 1046 l 1061 1046 q 1161 846 1112 1046 q 1435 722 1435 846 q 1385 672 1385 714 l 1211 697 l 1161 697 l 1161 623 l 1360 623 l 1385 498 l 1335 473 l 1161 473 l 1161 423 q 1086 224 1161 239 q 1012 299 1050 224 l 1012 448 q 1036 473 1012 473 l 1012 523 q 1036 672 1012 542 q 987 971 1012 928 q 1012 1046 1012 1019 m 340 747 l 414 747 q 538 697 538 741 l 589 722 l 763 722 q 862 597 798 722 q 763 224 829 224 q 688 323 701 224 q 713 572 688 355 l 564 572 q 439 224 513 224 l 414 224 q 364 299 364 224 q 414 473 364 473 q 340 597 364 597 q 66 572 119 572 l 41 623 l 41 722 l 340 747 m 738 100 l 912 100 q 1112 -50 1112 100 l 1112 -323 l 1036 -323 q 962 -25 987 -323 l 937 -25 l 787 -50 q 713 25 752 -50 q 738 100 738 73 z "},"꺆":{"ha":1589,"x_min":41,"x_max":1535,"o":"m 1112 996 q 1161 822 1161 921 l 1459 822 q 1535 747 1495 822 l 1535 722 l 1485 648 l 1360 672 l 1310 672 l 1186 648 l 1186 597 l 1360 597 q 1410 548 1410 590 l 1410 448 l 1360 448 l 1186 423 l 1186 199 q 1112 125 1186 163 l 1086 125 q 1036 174 1036 125 q 1061 498 1036 189 q 1012 971 1061 553 l 1112 996 m 340 822 q 538 772 431 772 l 564 772 q 663 797 620 772 q 862 623 862 797 l 862 597 q 738 224 804 224 l 713 224 q 663 274 663 224 l 663 323 q 738 623 663 411 l 688 648 l 663 648 q 513 423 513 648 q 414 274 447 274 l 389 274 q 340 323 340 274 q 389 597 340 353 q 315 672 389 617 l 190 648 l 90 648 q 41 697 41 648 l 41 747 q 340 822 41 797 m 564 0 l 713 0 q 838 -50 838 -6 l 887 -25 l 1061 -25 q 1186 -274 1186 -81 l 1186 -374 q 1136 -423 1186 -423 l 1061 -423 l 1036 -298 l 1036 -174 l 962 -174 l 838 -199 l 838 -349 l 763 -349 q 713 -298 713 -349 l 713 -149 l 663 -149 l 538 -174 l 489 -100 l 489 -75 q 564 0 489 -39 z "},"꺌":{"ha":1613,"x_min":41,"x_max":1559,"o":"m 1186 921 l 1211 921 q 1236 772 1236 791 l 1360 797 l 1435 797 l 1559 772 l 1559 672 l 1535 623 l 1360 648 l 1236 623 l 1236 572 l 1435 572 l 1435 473 q 1186 398 1435 423 q 1061 174 1186 174 q 1036 249 1036 222 q 1186 921 1105 921 m 115 822 l 364 822 l 538 772 q 613 797 565 772 q 838 697 838 766 l 838 572 q 638 249 721 249 q 564 323 602 249 l 564 349 q 713 623 713 543 l 663 648 q 414 349 513 648 l 364 349 q 290 423 328 349 l 290 473 q 389 672 389 473 l 215 672 l 90 648 l 41 722 l 41 747 q 115 822 41 783 m 887 174 l 1012 174 q 1136 -75 1136 119 q 962 -274 1136 -274 l 688 -274 q 613 -349 652 -274 l 613 -398 l 738 -423 l 962 -423 q 1036 -498 998 -423 l 1036 -523 q 987 -572 1036 -572 l 962 -572 q 489 -473 489 -572 l 489 -374 q 713 -124 523 -124 l 987 -124 l 987 -25 q 912 25 987 25 q 713 -50 853 25 q 613 25 613 -12 l 613 50 q 887 174 613 136 z "},"꺍":{"ha":1464,"x_min":41,"x_max":1410,"o":"m 1012 1171 l 1112 1171 l 1112 921 l 1236 946 l 1410 946 l 1410 871 q 1112 772 1410 783 l 1112 747 l 1236 722 l 1310 722 l 1310 572 l 1112 572 l 1112 398 q 1061 349 1112 349 l 1036 349 q 962 498 962 374 l 962 623 q 1012 1171 962 960 m 290 996 q 389 971 333 971 q 613 996 479 971 q 787 846 738 996 q 638 473 705 473 q 564 498 590 498 l 564 523 q 638 846 564 576 l 538 846 q 414 523 479 846 l 364 498 q 290 572 328 498 q 340 822 340 758 q 315 846 315 822 l 264 822 l 115 822 q 41 897 79 822 l 41 921 q 290 996 41 971 m 613 224 q 838 75 838 186 q 1061 125 999 125 l 1136 125 q 1261 -124 1261 68 l 1261 -249 q 1211 -298 1261 -298 l 1186 -298 q 1086 0 1149 -298 l 1061 0 q 589 -224 596 -185 q 663 -249 615 -224 l 812 -224 l 862 -298 l 862 -323 q 787 -398 862 -359 l 589 -398 q 464 -224 464 -349 l 464 -124 q 713 -25 490 -25 l 713 25 q 638 75 713 75 q 439 50 460 50 l 414 100 l 414 149 q 613 224 430 224 z "},"꺠":{"ha":1564,"x_min":41,"x_max":1510,"o":"m 937 822 l 962 822 q 1061 572 1031 822 l 1186 597 l 1310 597 q 1360 672 1310 672 l 1385 672 q 1435 623 1435 665 l 1435 498 q 1510 -25 1435 392 l 1459 -50 l 1385 -50 q 1310 274 1385 4 q 1086 199 1086 249 l 1112 -100 l 1061 -124 l 987 -124 q 912 747 987 -47 q 937 822 937 795 m 638 747 q 787 548 738 747 q 663 25 728 25 l 638 25 q 589 75 589 25 l 663 597 l 538 597 q 489 548 489 590 q 513 523 489 523 q 414 125 481 125 q 340 199 378 125 q 389 572 364 548 l 340 597 l 264 597 l 90 572 l 41 648 l 41 722 l 240 722 q 638 747 384 722 m 1112 423 l 1112 398 l 1211 398 l 1211 423 l 1112 423 z "},"꺼":{"ha":1439,"x_min":41,"x_max":1385,"o":"m 663 697 q 912 448 821 671 q 1136 498 949 448 l 1112 548 l 1112 648 q 1161 697 1119 697 l 1186 697 q 1335 249 1245 697 q 1385 25 1335 140 q 1285 -25 1346 25 q 1161 323 1219 -25 l 1086 323 q 887 174 887 323 q 812 -25 887 -9 l 787 -25 q 738 25 738 -25 q 763 448 763 365 q 613 548 738 548 l 464 498 l 464 100 q 414 50 464 50 l 389 50 q 340 100 340 50 l 340 473 q 264 523 340 523 q 66 473 106 473 l 41 523 l 41 623 q 389 672 306 672 l 414 672 l 414 623 q 663 697 589 697 z "},"꺽":{"ha":1415,"x_min":41,"x_max":1360,"o":"m 1161 971 l 1186 971 q 1360 448 1247 971 q 1261 323 1312 334 q 1186 548 1216 323 l 1136 572 l 838 572 q 787 523 787 565 l 787 448 l 812 299 q 787 224 787 251 l 713 224 q 663 274 663 224 l 663 697 q 613 747 663 747 q 464 572 464 747 q 389 249 439 249 l 315 249 l 315 323 q 340 697 315 448 l 315 697 q 66 648 266 697 l 41 697 l 41 797 l 638 897 l 688 897 q 787 747 787 856 l 1012 747 l 1136 722 l 1112 897 l 1112 921 q 1161 971 1119 971 m 1112 100 q 1236 -398 1196 100 l 1112 -398 q 1036 -50 1068 -50 q 763 -75 816 -75 l 738 -25 l 738 25 q 1112 100 738 100 z "},"꺾":{"ha":1315,"x_min":41,"x_max":1261,"o":"m 1112 1046 q 1261 398 1199 1046 q 1161 299 1236 317 q 1086 323 1113 323 l 1112 572 l 1086 697 q 812 498 812 697 q 763 398 812 398 l 688 398 q 663 448 688 448 l 688 572 l 688 747 q 638 797 688 797 q 489 722 489 772 l 489 448 q 414 299 489 319 l 389 299 q 340 349 340 299 l 364 697 q 315 846 315 697 l 66 846 l 41 971 l 41 996 l 389 1021 l 464 897 q 738 946 561 946 q 787 822 787 884 q 1086 846 964 846 l 1061 897 l 1061 996 q 1112 1046 1069 1046 m 663 199 q 763 100 763 174 q 1012 199 937 199 q 1186 -323 1186 139 l 1086 -398 q 1036 -349 1036 -398 l 1036 -25 q 987 25 1036 25 q 812 -100 862 25 l 812 -349 q 763 -398 812 -398 l 738 -398 q 663 -249 663 -374 q 688 -50 663 -227 l 638 50 q 513 0 557 0 l 464 75 l 464 125 q 663 199 464 174 z "}}}
